%TF.GenerationSoftware,KiCad,Pcbnew,9.0.6-1.fc42*%
%TF.CreationDate,2025-12-07T23:33:45+01:00*%
%TF.ProjectId,coilgun,636f696c-6775-46e2-9e6b-696361645f70,rev?*%
%TF.SameCoordinates,Original*%
%TF.FileFunction,Legend,Top*%
%TF.FilePolarity,Positive*%
%FSLAX46Y46*%
G04 Gerber Fmt 4.6, Leading zero omitted, Abs format (unit mm)*
G04 Created by KiCad (PCBNEW 9.0.6-1.fc42) date 2025-12-07 23:33:45*
%MOMM*%
%LPD*%
G01*
G04 APERTURE LIST*
%ADD10C,0.150000*%
%ADD11C,0.120000*%
G04 APERTURE END LIST*
D10*
X118638095Y-58714819D02*
X118638095Y-59524342D01*
X118638095Y-59524342D02*
X118685714Y-59619580D01*
X118685714Y-59619580D02*
X118733333Y-59667200D01*
X118733333Y-59667200D02*
X118828571Y-59714819D01*
X118828571Y-59714819D02*
X119019047Y-59714819D01*
X119019047Y-59714819D02*
X119114285Y-59667200D01*
X119114285Y-59667200D02*
X119161904Y-59619580D01*
X119161904Y-59619580D02*
X119209523Y-59524342D01*
X119209523Y-59524342D02*
X119209523Y-58714819D01*
X119590476Y-58714819D02*
X120209523Y-58714819D01*
X120209523Y-58714819D02*
X119876190Y-59095771D01*
X119876190Y-59095771D02*
X120019047Y-59095771D01*
X120019047Y-59095771D02*
X120114285Y-59143390D01*
X120114285Y-59143390D02*
X120161904Y-59191009D01*
X120161904Y-59191009D02*
X120209523Y-59286247D01*
X120209523Y-59286247D02*
X120209523Y-59524342D01*
X120209523Y-59524342D02*
X120161904Y-59619580D01*
X120161904Y-59619580D02*
X120114285Y-59667200D01*
X120114285Y-59667200D02*
X120019047Y-59714819D01*
X120019047Y-59714819D02*
X119733333Y-59714819D01*
X119733333Y-59714819D02*
X119638095Y-59667200D01*
X119638095Y-59667200D02*
X119590476Y-59619580D01*
X92609580Y-85066666D02*
X92657200Y-85114285D01*
X92657200Y-85114285D02*
X92704819Y-85257142D01*
X92704819Y-85257142D02*
X92704819Y-85352380D01*
X92704819Y-85352380D02*
X92657200Y-85495237D01*
X92657200Y-85495237D02*
X92561961Y-85590475D01*
X92561961Y-85590475D02*
X92466723Y-85638094D01*
X92466723Y-85638094D02*
X92276247Y-85685713D01*
X92276247Y-85685713D02*
X92133390Y-85685713D01*
X92133390Y-85685713D02*
X91942914Y-85638094D01*
X91942914Y-85638094D02*
X91847676Y-85590475D01*
X91847676Y-85590475D02*
X91752438Y-85495237D01*
X91752438Y-85495237D02*
X91704819Y-85352380D01*
X91704819Y-85352380D02*
X91704819Y-85257142D01*
X91704819Y-85257142D02*
X91752438Y-85114285D01*
X91752438Y-85114285D02*
X91800057Y-85066666D01*
X92133390Y-84495237D02*
X92085771Y-84590475D01*
X92085771Y-84590475D02*
X92038152Y-84638094D01*
X92038152Y-84638094D02*
X91942914Y-84685713D01*
X91942914Y-84685713D02*
X91895295Y-84685713D01*
X91895295Y-84685713D02*
X91800057Y-84638094D01*
X91800057Y-84638094D02*
X91752438Y-84590475D01*
X91752438Y-84590475D02*
X91704819Y-84495237D01*
X91704819Y-84495237D02*
X91704819Y-84304761D01*
X91704819Y-84304761D02*
X91752438Y-84209523D01*
X91752438Y-84209523D02*
X91800057Y-84161904D01*
X91800057Y-84161904D02*
X91895295Y-84114285D01*
X91895295Y-84114285D02*
X91942914Y-84114285D01*
X91942914Y-84114285D02*
X92038152Y-84161904D01*
X92038152Y-84161904D02*
X92085771Y-84209523D01*
X92085771Y-84209523D02*
X92133390Y-84304761D01*
X92133390Y-84304761D02*
X92133390Y-84495237D01*
X92133390Y-84495237D02*
X92181009Y-84590475D01*
X92181009Y-84590475D02*
X92228628Y-84638094D01*
X92228628Y-84638094D02*
X92323866Y-84685713D01*
X92323866Y-84685713D02*
X92514342Y-84685713D01*
X92514342Y-84685713D02*
X92609580Y-84638094D01*
X92609580Y-84638094D02*
X92657200Y-84590475D01*
X92657200Y-84590475D02*
X92704819Y-84495237D01*
X92704819Y-84495237D02*
X92704819Y-84304761D01*
X92704819Y-84304761D02*
X92657200Y-84209523D01*
X92657200Y-84209523D02*
X92609580Y-84161904D01*
X92609580Y-84161904D02*
X92514342Y-84114285D01*
X92514342Y-84114285D02*
X92323866Y-84114285D01*
X92323866Y-84114285D02*
X92228628Y-84161904D01*
X92228628Y-84161904D02*
X92181009Y-84209523D01*
X92181009Y-84209523D02*
X92133390Y-84304761D01*
X130859580Y-50666666D02*
X130907200Y-50714285D01*
X130907200Y-50714285D02*
X130954819Y-50857142D01*
X130954819Y-50857142D02*
X130954819Y-50952380D01*
X130954819Y-50952380D02*
X130907200Y-51095237D01*
X130907200Y-51095237D02*
X130811961Y-51190475D01*
X130811961Y-51190475D02*
X130716723Y-51238094D01*
X130716723Y-51238094D02*
X130526247Y-51285713D01*
X130526247Y-51285713D02*
X130383390Y-51285713D01*
X130383390Y-51285713D02*
X130192914Y-51238094D01*
X130192914Y-51238094D02*
X130097676Y-51190475D01*
X130097676Y-51190475D02*
X130002438Y-51095237D01*
X130002438Y-51095237D02*
X129954819Y-50952380D01*
X129954819Y-50952380D02*
X129954819Y-50857142D01*
X129954819Y-50857142D02*
X130002438Y-50714285D01*
X130002438Y-50714285D02*
X130050057Y-50666666D01*
X130050057Y-50285713D02*
X130002438Y-50238094D01*
X130002438Y-50238094D02*
X129954819Y-50142856D01*
X129954819Y-50142856D02*
X129954819Y-49904761D01*
X129954819Y-49904761D02*
X130002438Y-49809523D01*
X130002438Y-49809523D02*
X130050057Y-49761904D01*
X130050057Y-49761904D02*
X130145295Y-49714285D01*
X130145295Y-49714285D02*
X130240533Y-49714285D01*
X130240533Y-49714285D02*
X130383390Y-49761904D01*
X130383390Y-49761904D02*
X130954819Y-50333332D01*
X130954819Y-50333332D02*
X130954819Y-49714285D01*
X89714819Y-57668094D02*
X88714819Y-57668094D01*
X88714819Y-57668094D02*
X88714819Y-57429999D01*
X88714819Y-57429999D02*
X88762438Y-57287142D01*
X88762438Y-57287142D02*
X88857676Y-57191904D01*
X88857676Y-57191904D02*
X88952914Y-57144285D01*
X88952914Y-57144285D02*
X89143390Y-57096666D01*
X89143390Y-57096666D02*
X89286247Y-57096666D01*
X89286247Y-57096666D02*
X89476723Y-57144285D01*
X89476723Y-57144285D02*
X89571961Y-57191904D01*
X89571961Y-57191904D02*
X89667200Y-57287142D01*
X89667200Y-57287142D02*
X89714819Y-57429999D01*
X89714819Y-57429999D02*
X89714819Y-57668094D01*
X88714819Y-56763332D02*
X88714819Y-56144285D01*
X88714819Y-56144285D02*
X89095771Y-56477618D01*
X89095771Y-56477618D02*
X89095771Y-56334761D01*
X89095771Y-56334761D02*
X89143390Y-56239523D01*
X89143390Y-56239523D02*
X89191009Y-56191904D01*
X89191009Y-56191904D02*
X89286247Y-56144285D01*
X89286247Y-56144285D02*
X89524342Y-56144285D01*
X89524342Y-56144285D02*
X89619580Y-56191904D01*
X89619580Y-56191904D02*
X89667200Y-56239523D01*
X89667200Y-56239523D02*
X89714819Y-56334761D01*
X89714819Y-56334761D02*
X89714819Y-56620475D01*
X89714819Y-56620475D02*
X89667200Y-56715713D01*
X89667200Y-56715713D02*
X89619580Y-56763332D01*
X67254819Y-60810833D02*
X67969104Y-60810833D01*
X67969104Y-60810833D02*
X68111961Y-60858452D01*
X68111961Y-60858452D02*
X68207200Y-60953690D01*
X68207200Y-60953690D02*
X68254819Y-61096547D01*
X68254819Y-61096547D02*
X68254819Y-61191785D01*
X67254819Y-60429880D02*
X67254819Y-59763214D01*
X67254819Y-59763214D02*
X68254819Y-60191785D01*
X90538095Y-38254819D02*
X90538095Y-39064342D01*
X90538095Y-39064342D02*
X90585714Y-39159580D01*
X90585714Y-39159580D02*
X90633333Y-39207200D01*
X90633333Y-39207200D02*
X90728571Y-39254819D01*
X90728571Y-39254819D02*
X90919047Y-39254819D01*
X90919047Y-39254819D02*
X91014285Y-39207200D01*
X91014285Y-39207200D02*
X91061904Y-39159580D01*
X91061904Y-39159580D02*
X91109523Y-39064342D01*
X91109523Y-39064342D02*
X91109523Y-38254819D01*
X92109523Y-39254819D02*
X91538095Y-39254819D01*
X91823809Y-39254819D02*
X91823809Y-38254819D01*
X91823809Y-38254819D02*
X91728571Y-38397676D01*
X91728571Y-38397676D02*
X91633333Y-38492914D01*
X91633333Y-38492914D02*
X91538095Y-38540533D01*
X143338095Y-87954819D02*
X143338095Y-88764342D01*
X143338095Y-88764342D02*
X143385714Y-88859580D01*
X143385714Y-88859580D02*
X143433333Y-88907200D01*
X143433333Y-88907200D02*
X143528571Y-88954819D01*
X143528571Y-88954819D02*
X143719047Y-88954819D01*
X143719047Y-88954819D02*
X143814285Y-88907200D01*
X143814285Y-88907200D02*
X143861904Y-88859580D01*
X143861904Y-88859580D02*
X143909523Y-88764342D01*
X143909523Y-88764342D02*
X143909523Y-87954819D01*
X144861904Y-87954819D02*
X144385714Y-87954819D01*
X144385714Y-87954819D02*
X144338095Y-88431009D01*
X144338095Y-88431009D02*
X144385714Y-88383390D01*
X144385714Y-88383390D02*
X144480952Y-88335771D01*
X144480952Y-88335771D02*
X144719047Y-88335771D01*
X144719047Y-88335771D02*
X144814285Y-88383390D01*
X144814285Y-88383390D02*
X144861904Y-88431009D01*
X144861904Y-88431009D02*
X144909523Y-88526247D01*
X144909523Y-88526247D02*
X144909523Y-88764342D01*
X144909523Y-88764342D02*
X144861904Y-88859580D01*
X144861904Y-88859580D02*
X144814285Y-88907200D01*
X144814285Y-88907200D02*
X144719047Y-88954819D01*
X144719047Y-88954819D02*
X144480952Y-88954819D01*
X144480952Y-88954819D02*
X144385714Y-88907200D01*
X144385714Y-88907200D02*
X144338095Y-88859580D01*
X105994819Y-64108094D02*
X104994819Y-64108094D01*
X104994819Y-64108094D02*
X104994819Y-63869999D01*
X104994819Y-63869999D02*
X105042438Y-63727142D01*
X105042438Y-63727142D02*
X105137676Y-63631904D01*
X105137676Y-63631904D02*
X105232914Y-63584285D01*
X105232914Y-63584285D02*
X105423390Y-63536666D01*
X105423390Y-63536666D02*
X105566247Y-63536666D01*
X105566247Y-63536666D02*
X105756723Y-63584285D01*
X105756723Y-63584285D02*
X105851961Y-63631904D01*
X105851961Y-63631904D02*
X105947200Y-63727142D01*
X105947200Y-63727142D02*
X105994819Y-63869999D01*
X105994819Y-63869999D02*
X105994819Y-64108094D01*
X105328152Y-62679523D02*
X105994819Y-62679523D01*
X104947200Y-62917618D02*
X105661485Y-63155713D01*
X105661485Y-63155713D02*
X105661485Y-62536666D01*
X122933333Y-59059580D02*
X122885714Y-59107200D01*
X122885714Y-59107200D02*
X122742857Y-59154819D01*
X122742857Y-59154819D02*
X122647619Y-59154819D01*
X122647619Y-59154819D02*
X122504762Y-59107200D01*
X122504762Y-59107200D02*
X122409524Y-59011961D01*
X122409524Y-59011961D02*
X122361905Y-58916723D01*
X122361905Y-58916723D02*
X122314286Y-58726247D01*
X122314286Y-58726247D02*
X122314286Y-58583390D01*
X122314286Y-58583390D02*
X122361905Y-58392914D01*
X122361905Y-58392914D02*
X122409524Y-58297676D01*
X122409524Y-58297676D02*
X122504762Y-58202438D01*
X122504762Y-58202438D02*
X122647619Y-58154819D01*
X122647619Y-58154819D02*
X122742857Y-58154819D01*
X122742857Y-58154819D02*
X122885714Y-58202438D01*
X122885714Y-58202438D02*
X122933333Y-58250057D01*
X123885714Y-59154819D02*
X123314286Y-59154819D01*
X123600000Y-59154819D02*
X123600000Y-58154819D01*
X123600000Y-58154819D02*
X123504762Y-58297676D01*
X123504762Y-58297676D02*
X123409524Y-58392914D01*
X123409524Y-58392914D02*
X123314286Y-58440533D01*
X134253333Y-64434819D02*
X133920000Y-63958628D01*
X133681905Y-64434819D02*
X133681905Y-63434819D01*
X133681905Y-63434819D02*
X134062857Y-63434819D01*
X134062857Y-63434819D02*
X134158095Y-63482438D01*
X134158095Y-63482438D02*
X134205714Y-63530057D01*
X134205714Y-63530057D02*
X134253333Y-63625295D01*
X134253333Y-63625295D02*
X134253333Y-63768152D01*
X134253333Y-63768152D02*
X134205714Y-63863390D01*
X134205714Y-63863390D02*
X134158095Y-63911009D01*
X134158095Y-63911009D02*
X134062857Y-63958628D01*
X134062857Y-63958628D02*
X133681905Y-63958628D01*
X134634286Y-63530057D02*
X134681905Y-63482438D01*
X134681905Y-63482438D02*
X134777143Y-63434819D01*
X134777143Y-63434819D02*
X135015238Y-63434819D01*
X135015238Y-63434819D02*
X135110476Y-63482438D01*
X135110476Y-63482438D02*
X135158095Y-63530057D01*
X135158095Y-63530057D02*
X135205714Y-63625295D01*
X135205714Y-63625295D02*
X135205714Y-63720533D01*
X135205714Y-63720533D02*
X135158095Y-63863390D01*
X135158095Y-63863390D02*
X134586667Y-64434819D01*
X134586667Y-64434819D02*
X135205714Y-64434819D01*
X138209580Y-82042857D02*
X138257200Y-82090476D01*
X138257200Y-82090476D02*
X138304819Y-82233333D01*
X138304819Y-82233333D02*
X138304819Y-82328571D01*
X138304819Y-82328571D02*
X138257200Y-82471428D01*
X138257200Y-82471428D02*
X138161961Y-82566666D01*
X138161961Y-82566666D02*
X138066723Y-82614285D01*
X138066723Y-82614285D02*
X137876247Y-82661904D01*
X137876247Y-82661904D02*
X137733390Y-82661904D01*
X137733390Y-82661904D02*
X137542914Y-82614285D01*
X137542914Y-82614285D02*
X137447676Y-82566666D01*
X137447676Y-82566666D02*
X137352438Y-82471428D01*
X137352438Y-82471428D02*
X137304819Y-82328571D01*
X137304819Y-82328571D02*
X137304819Y-82233333D01*
X137304819Y-82233333D02*
X137352438Y-82090476D01*
X137352438Y-82090476D02*
X137400057Y-82042857D01*
X138304819Y-81090476D02*
X138304819Y-81661904D01*
X138304819Y-81376190D02*
X137304819Y-81376190D01*
X137304819Y-81376190D02*
X137447676Y-81471428D01*
X137447676Y-81471428D02*
X137542914Y-81566666D01*
X137542914Y-81566666D02*
X137590533Y-81661904D01*
X137638152Y-80233333D02*
X138304819Y-80233333D01*
X137257200Y-80471428D02*
X137971485Y-80709523D01*
X137971485Y-80709523D02*
X137971485Y-80090476D01*
X133109580Y-82042857D02*
X133157200Y-82090476D01*
X133157200Y-82090476D02*
X133204819Y-82233333D01*
X133204819Y-82233333D02*
X133204819Y-82328571D01*
X133204819Y-82328571D02*
X133157200Y-82471428D01*
X133157200Y-82471428D02*
X133061961Y-82566666D01*
X133061961Y-82566666D02*
X132966723Y-82614285D01*
X132966723Y-82614285D02*
X132776247Y-82661904D01*
X132776247Y-82661904D02*
X132633390Y-82661904D01*
X132633390Y-82661904D02*
X132442914Y-82614285D01*
X132442914Y-82614285D02*
X132347676Y-82566666D01*
X132347676Y-82566666D02*
X132252438Y-82471428D01*
X132252438Y-82471428D02*
X132204819Y-82328571D01*
X132204819Y-82328571D02*
X132204819Y-82233333D01*
X132204819Y-82233333D02*
X132252438Y-82090476D01*
X132252438Y-82090476D02*
X132300057Y-82042857D01*
X133204819Y-81090476D02*
X133204819Y-81661904D01*
X133204819Y-81376190D02*
X132204819Y-81376190D01*
X132204819Y-81376190D02*
X132347676Y-81471428D01*
X132347676Y-81471428D02*
X132442914Y-81566666D01*
X132442914Y-81566666D02*
X132490533Y-81661904D01*
X132204819Y-80757142D02*
X132204819Y-80138095D01*
X132204819Y-80138095D02*
X132585771Y-80471428D01*
X132585771Y-80471428D02*
X132585771Y-80328571D01*
X132585771Y-80328571D02*
X132633390Y-80233333D01*
X132633390Y-80233333D02*
X132681009Y-80185714D01*
X132681009Y-80185714D02*
X132776247Y-80138095D01*
X132776247Y-80138095D02*
X133014342Y-80138095D01*
X133014342Y-80138095D02*
X133109580Y-80185714D01*
X133109580Y-80185714D02*
X133157200Y-80233333D01*
X133157200Y-80233333D02*
X133204819Y-80328571D01*
X133204819Y-80328571D02*
X133204819Y-80614285D01*
X133204819Y-80614285D02*
X133157200Y-80709523D01*
X133157200Y-80709523D02*
X133109580Y-80757142D01*
X118409580Y-85542857D02*
X118457200Y-85590476D01*
X118457200Y-85590476D02*
X118504819Y-85733333D01*
X118504819Y-85733333D02*
X118504819Y-85828571D01*
X118504819Y-85828571D02*
X118457200Y-85971428D01*
X118457200Y-85971428D02*
X118361961Y-86066666D01*
X118361961Y-86066666D02*
X118266723Y-86114285D01*
X118266723Y-86114285D02*
X118076247Y-86161904D01*
X118076247Y-86161904D02*
X117933390Y-86161904D01*
X117933390Y-86161904D02*
X117742914Y-86114285D01*
X117742914Y-86114285D02*
X117647676Y-86066666D01*
X117647676Y-86066666D02*
X117552438Y-85971428D01*
X117552438Y-85971428D02*
X117504819Y-85828571D01*
X117504819Y-85828571D02*
X117504819Y-85733333D01*
X117504819Y-85733333D02*
X117552438Y-85590476D01*
X117552438Y-85590476D02*
X117600057Y-85542857D01*
X118504819Y-84590476D02*
X118504819Y-85161904D01*
X118504819Y-84876190D02*
X117504819Y-84876190D01*
X117504819Y-84876190D02*
X117647676Y-84971428D01*
X117647676Y-84971428D02*
X117742914Y-85066666D01*
X117742914Y-85066666D02*
X117790533Y-85161904D01*
X117504819Y-83971428D02*
X117504819Y-83876190D01*
X117504819Y-83876190D02*
X117552438Y-83780952D01*
X117552438Y-83780952D02*
X117600057Y-83733333D01*
X117600057Y-83733333D02*
X117695295Y-83685714D01*
X117695295Y-83685714D02*
X117885771Y-83638095D01*
X117885771Y-83638095D02*
X118123866Y-83638095D01*
X118123866Y-83638095D02*
X118314342Y-83685714D01*
X118314342Y-83685714D02*
X118409580Y-83733333D01*
X118409580Y-83733333D02*
X118457200Y-83780952D01*
X118457200Y-83780952D02*
X118504819Y-83876190D01*
X118504819Y-83876190D02*
X118504819Y-83971428D01*
X118504819Y-83971428D02*
X118457200Y-84066666D01*
X118457200Y-84066666D02*
X118409580Y-84114285D01*
X118409580Y-84114285D02*
X118314342Y-84161904D01*
X118314342Y-84161904D02*
X118123866Y-84209523D01*
X118123866Y-84209523D02*
X117885771Y-84209523D01*
X117885771Y-84209523D02*
X117695295Y-84161904D01*
X117695295Y-84161904D02*
X117600057Y-84114285D01*
X117600057Y-84114285D02*
X117552438Y-84066666D01*
X117552438Y-84066666D02*
X117504819Y-83971428D01*
X122933333Y-37059580D02*
X122885714Y-37107200D01*
X122885714Y-37107200D02*
X122742857Y-37154819D01*
X122742857Y-37154819D02*
X122647619Y-37154819D01*
X122647619Y-37154819D02*
X122504762Y-37107200D01*
X122504762Y-37107200D02*
X122409524Y-37011961D01*
X122409524Y-37011961D02*
X122361905Y-36916723D01*
X122361905Y-36916723D02*
X122314286Y-36726247D01*
X122314286Y-36726247D02*
X122314286Y-36583390D01*
X122314286Y-36583390D02*
X122361905Y-36392914D01*
X122361905Y-36392914D02*
X122409524Y-36297676D01*
X122409524Y-36297676D02*
X122504762Y-36202438D01*
X122504762Y-36202438D02*
X122647619Y-36154819D01*
X122647619Y-36154819D02*
X122742857Y-36154819D01*
X122742857Y-36154819D02*
X122885714Y-36202438D01*
X122885714Y-36202438D02*
X122933333Y-36250057D01*
X123838095Y-36154819D02*
X123361905Y-36154819D01*
X123361905Y-36154819D02*
X123314286Y-36631009D01*
X123314286Y-36631009D02*
X123361905Y-36583390D01*
X123361905Y-36583390D02*
X123457143Y-36535771D01*
X123457143Y-36535771D02*
X123695238Y-36535771D01*
X123695238Y-36535771D02*
X123790476Y-36583390D01*
X123790476Y-36583390D02*
X123838095Y-36631009D01*
X123838095Y-36631009D02*
X123885714Y-36726247D01*
X123885714Y-36726247D02*
X123885714Y-36964342D01*
X123885714Y-36964342D02*
X123838095Y-37059580D01*
X123838095Y-37059580D02*
X123790476Y-37107200D01*
X123790476Y-37107200D02*
X123695238Y-37154819D01*
X123695238Y-37154819D02*
X123457143Y-37154819D01*
X123457143Y-37154819D02*
X123361905Y-37107200D01*
X123361905Y-37107200D02*
X123314286Y-37059580D01*
X103833333Y-57854819D02*
X103500000Y-57378628D01*
X103261905Y-57854819D02*
X103261905Y-56854819D01*
X103261905Y-56854819D02*
X103642857Y-56854819D01*
X103642857Y-56854819D02*
X103738095Y-56902438D01*
X103738095Y-56902438D02*
X103785714Y-56950057D01*
X103785714Y-56950057D02*
X103833333Y-57045295D01*
X103833333Y-57045295D02*
X103833333Y-57188152D01*
X103833333Y-57188152D02*
X103785714Y-57283390D01*
X103785714Y-57283390D02*
X103738095Y-57331009D01*
X103738095Y-57331009D02*
X103642857Y-57378628D01*
X103642857Y-57378628D02*
X103261905Y-57378628D01*
X104309524Y-57854819D02*
X104500000Y-57854819D01*
X104500000Y-57854819D02*
X104595238Y-57807200D01*
X104595238Y-57807200D02*
X104642857Y-57759580D01*
X104642857Y-57759580D02*
X104738095Y-57616723D01*
X104738095Y-57616723D02*
X104785714Y-57426247D01*
X104785714Y-57426247D02*
X104785714Y-57045295D01*
X104785714Y-57045295D02*
X104738095Y-56950057D01*
X104738095Y-56950057D02*
X104690476Y-56902438D01*
X104690476Y-56902438D02*
X104595238Y-56854819D01*
X104595238Y-56854819D02*
X104404762Y-56854819D01*
X104404762Y-56854819D02*
X104309524Y-56902438D01*
X104309524Y-56902438D02*
X104261905Y-56950057D01*
X104261905Y-56950057D02*
X104214286Y-57045295D01*
X104214286Y-57045295D02*
X104214286Y-57283390D01*
X104214286Y-57283390D02*
X104261905Y-57378628D01*
X104261905Y-57378628D02*
X104309524Y-57426247D01*
X104309524Y-57426247D02*
X104404762Y-57473866D01*
X104404762Y-57473866D02*
X104595238Y-57473866D01*
X104595238Y-57473866D02*
X104690476Y-57426247D01*
X104690476Y-57426247D02*
X104738095Y-57378628D01*
X104738095Y-57378628D02*
X104785714Y-57283390D01*
X91261905Y-81754819D02*
X91261905Y-80754819D01*
X91261905Y-80754819D02*
X91500000Y-80754819D01*
X91500000Y-80754819D02*
X91642857Y-80802438D01*
X91642857Y-80802438D02*
X91738095Y-80897676D01*
X91738095Y-80897676D02*
X91785714Y-80992914D01*
X91785714Y-80992914D02*
X91833333Y-81183390D01*
X91833333Y-81183390D02*
X91833333Y-81326247D01*
X91833333Y-81326247D02*
X91785714Y-81516723D01*
X91785714Y-81516723D02*
X91738095Y-81611961D01*
X91738095Y-81611961D02*
X91642857Y-81707200D01*
X91642857Y-81707200D02*
X91500000Y-81754819D01*
X91500000Y-81754819D02*
X91261905Y-81754819D01*
X92214286Y-80850057D02*
X92261905Y-80802438D01*
X92261905Y-80802438D02*
X92357143Y-80754819D01*
X92357143Y-80754819D02*
X92595238Y-80754819D01*
X92595238Y-80754819D02*
X92690476Y-80802438D01*
X92690476Y-80802438D02*
X92738095Y-80850057D01*
X92738095Y-80850057D02*
X92785714Y-80945295D01*
X92785714Y-80945295D02*
X92785714Y-81040533D01*
X92785714Y-81040533D02*
X92738095Y-81183390D01*
X92738095Y-81183390D02*
X92166667Y-81754819D01*
X92166667Y-81754819D02*
X92785714Y-81754819D01*
X107109580Y-82042857D02*
X107157200Y-82090476D01*
X107157200Y-82090476D02*
X107204819Y-82233333D01*
X107204819Y-82233333D02*
X107204819Y-82328571D01*
X107204819Y-82328571D02*
X107157200Y-82471428D01*
X107157200Y-82471428D02*
X107061961Y-82566666D01*
X107061961Y-82566666D02*
X106966723Y-82614285D01*
X106966723Y-82614285D02*
X106776247Y-82661904D01*
X106776247Y-82661904D02*
X106633390Y-82661904D01*
X106633390Y-82661904D02*
X106442914Y-82614285D01*
X106442914Y-82614285D02*
X106347676Y-82566666D01*
X106347676Y-82566666D02*
X106252438Y-82471428D01*
X106252438Y-82471428D02*
X106204819Y-82328571D01*
X106204819Y-82328571D02*
X106204819Y-82233333D01*
X106204819Y-82233333D02*
X106252438Y-82090476D01*
X106252438Y-82090476D02*
X106300057Y-82042857D01*
X107204819Y-81090476D02*
X107204819Y-81661904D01*
X107204819Y-81376190D02*
X106204819Y-81376190D01*
X106204819Y-81376190D02*
X106347676Y-81471428D01*
X106347676Y-81471428D02*
X106442914Y-81566666D01*
X106442914Y-81566666D02*
X106490533Y-81661904D01*
X107204819Y-80138095D02*
X107204819Y-80709523D01*
X107204819Y-80423809D02*
X106204819Y-80423809D01*
X106204819Y-80423809D02*
X106347676Y-80519047D01*
X106347676Y-80519047D02*
X106442914Y-80614285D01*
X106442914Y-80614285D02*
X106490533Y-80709523D01*
X112533333Y-59154819D02*
X112200000Y-58678628D01*
X111961905Y-59154819D02*
X111961905Y-58154819D01*
X111961905Y-58154819D02*
X112342857Y-58154819D01*
X112342857Y-58154819D02*
X112438095Y-58202438D01*
X112438095Y-58202438D02*
X112485714Y-58250057D01*
X112485714Y-58250057D02*
X112533333Y-58345295D01*
X112533333Y-58345295D02*
X112533333Y-58488152D01*
X112533333Y-58488152D02*
X112485714Y-58583390D01*
X112485714Y-58583390D02*
X112438095Y-58631009D01*
X112438095Y-58631009D02*
X112342857Y-58678628D01*
X112342857Y-58678628D02*
X111961905Y-58678628D01*
X113485714Y-59154819D02*
X112914286Y-59154819D01*
X113200000Y-59154819D02*
X113200000Y-58154819D01*
X113200000Y-58154819D02*
X113104762Y-58297676D01*
X113104762Y-58297676D02*
X113009524Y-58392914D01*
X113009524Y-58392914D02*
X112914286Y-58440533D01*
X88894819Y-33833333D02*
X89609104Y-33833333D01*
X89609104Y-33833333D02*
X89751961Y-33880952D01*
X89751961Y-33880952D02*
X89847200Y-33976190D01*
X89847200Y-33976190D02*
X89894819Y-34119047D01*
X89894819Y-34119047D02*
X89894819Y-34214285D01*
X89228152Y-32928571D02*
X89894819Y-32928571D01*
X88847200Y-33166666D02*
X89561485Y-33404761D01*
X89561485Y-33404761D02*
X89561485Y-32785714D01*
X112970057Y-72365238D02*
X112922438Y-72460476D01*
X112922438Y-72460476D02*
X112827200Y-72555714D01*
X112827200Y-72555714D02*
X112684342Y-72698571D01*
X112684342Y-72698571D02*
X112636723Y-72793809D01*
X112636723Y-72793809D02*
X112636723Y-72889047D01*
X112874819Y-72841428D02*
X112827200Y-72936666D01*
X112827200Y-72936666D02*
X112731961Y-73031904D01*
X112731961Y-73031904D02*
X112541485Y-73079523D01*
X112541485Y-73079523D02*
X112208152Y-73079523D01*
X112208152Y-73079523D02*
X112017676Y-73031904D01*
X112017676Y-73031904D02*
X111922438Y-72936666D01*
X111922438Y-72936666D02*
X111874819Y-72841428D01*
X111874819Y-72841428D02*
X111874819Y-72650952D01*
X111874819Y-72650952D02*
X111922438Y-72555714D01*
X111922438Y-72555714D02*
X112017676Y-72460476D01*
X112017676Y-72460476D02*
X112208152Y-72412857D01*
X112208152Y-72412857D02*
X112541485Y-72412857D01*
X112541485Y-72412857D02*
X112731961Y-72460476D01*
X112731961Y-72460476D02*
X112827200Y-72555714D01*
X112827200Y-72555714D02*
X112874819Y-72650952D01*
X112874819Y-72650952D02*
X112874819Y-72841428D01*
X111970057Y-72031904D02*
X111922438Y-71984285D01*
X111922438Y-71984285D02*
X111874819Y-71889047D01*
X111874819Y-71889047D02*
X111874819Y-71650952D01*
X111874819Y-71650952D02*
X111922438Y-71555714D01*
X111922438Y-71555714D02*
X111970057Y-71508095D01*
X111970057Y-71508095D02*
X112065295Y-71460476D01*
X112065295Y-71460476D02*
X112160533Y-71460476D01*
X112160533Y-71460476D02*
X112303390Y-71508095D01*
X112303390Y-71508095D02*
X112874819Y-72079523D01*
X112874819Y-72079523D02*
X112874819Y-71460476D01*
X138009580Y-50716666D02*
X138057200Y-50764285D01*
X138057200Y-50764285D02*
X138104819Y-50907142D01*
X138104819Y-50907142D02*
X138104819Y-51002380D01*
X138104819Y-51002380D02*
X138057200Y-51145237D01*
X138057200Y-51145237D02*
X137961961Y-51240475D01*
X137961961Y-51240475D02*
X137866723Y-51288094D01*
X137866723Y-51288094D02*
X137676247Y-51335713D01*
X137676247Y-51335713D02*
X137533390Y-51335713D01*
X137533390Y-51335713D02*
X137342914Y-51288094D01*
X137342914Y-51288094D02*
X137247676Y-51240475D01*
X137247676Y-51240475D02*
X137152438Y-51145237D01*
X137152438Y-51145237D02*
X137104819Y-51002380D01*
X137104819Y-51002380D02*
X137104819Y-50907142D01*
X137104819Y-50907142D02*
X137152438Y-50764285D01*
X137152438Y-50764285D02*
X137200057Y-50716666D01*
X137104819Y-50383332D02*
X137104819Y-49764285D01*
X137104819Y-49764285D02*
X137485771Y-50097618D01*
X137485771Y-50097618D02*
X137485771Y-49954761D01*
X137485771Y-49954761D02*
X137533390Y-49859523D01*
X137533390Y-49859523D02*
X137581009Y-49811904D01*
X137581009Y-49811904D02*
X137676247Y-49764285D01*
X137676247Y-49764285D02*
X137914342Y-49764285D01*
X137914342Y-49764285D02*
X138009580Y-49811904D01*
X138009580Y-49811904D02*
X138057200Y-49859523D01*
X138057200Y-49859523D02*
X138104819Y-49954761D01*
X138104819Y-49954761D02*
X138104819Y-50240475D01*
X138104819Y-50240475D02*
X138057200Y-50335713D01*
X138057200Y-50335713D02*
X138009580Y-50383332D01*
X108204761Y-36250057D02*
X108109523Y-36202438D01*
X108109523Y-36202438D02*
X108014285Y-36107200D01*
X108014285Y-36107200D02*
X107871428Y-35964342D01*
X107871428Y-35964342D02*
X107776190Y-35916723D01*
X107776190Y-35916723D02*
X107680952Y-35916723D01*
X107728571Y-36154819D02*
X107633333Y-36107200D01*
X107633333Y-36107200D02*
X107538095Y-36011961D01*
X107538095Y-36011961D02*
X107490476Y-35821485D01*
X107490476Y-35821485D02*
X107490476Y-35488152D01*
X107490476Y-35488152D02*
X107538095Y-35297676D01*
X107538095Y-35297676D02*
X107633333Y-35202438D01*
X107633333Y-35202438D02*
X107728571Y-35154819D01*
X107728571Y-35154819D02*
X107919047Y-35154819D01*
X107919047Y-35154819D02*
X108014285Y-35202438D01*
X108014285Y-35202438D02*
X108109523Y-35297676D01*
X108109523Y-35297676D02*
X108157142Y-35488152D01*
X108157142Y-35488152D02*
X108157142Y-35821485D01*
X108157142Y-35821485D02*
X108109523Y-36011961D01*
X108109523Y-36011961D02*
X108014285Y-36107200D01*
X108014285Y-36107200D02*
X107919047Y-36154819D01*
X107919047Y-36154819D02*
X107728571Y-36154819D01*
X109109523Y-36154819D02*
X108538095Y-36154819D01*
X108823809Y-36154819D02*
X108823809Y-35154819D01*
X108823809Y-35154819D02*
X108728571Y-35297676D01*
X108728571Y-35297676D02*
X108633333Y-35392914D01*
X108633333Y-35392914D02*
X108538095Y-35440533D01*
X79933333Y-72054819D02*
X79600000Y-71578628D01*
X79361905Y-72054819D02*
X79361905Y-71054819D01*
X79361905Y-71054819D02*
X79742857Y-71054819D01*
X79742857Y-71054819D02*
X79838095Y-71102438D01*
X79838095Y-71102438D02*
X79885714Y-71150057D01*
X79885714Y-71150057D02*
X79933333Y-71245295D01*
X79933333Y-71245295D02*
X79933333Y-71388152D01*
X79933333Y-71388152D02*
X79885714Y-71483390D01*
X79885714Y-71483390D02*
X79838095Y-71531009D01*
X79838095Y-71531009D02*
X79742857Y-71578628D01*
X79742857Y-71578628D02*
X79361905Y-71578628D01*
X80266667Y-71054819D02*
X80933333Y-71054819D01*
X80933333Y-71054819D02*
X80504762Y-72054819D01*
X117238095Y-87754819D02*
X117238095Y-88564342D01*
X117238095Y-88564342D02*
X117285714Y-88659580D01*
X117285714Y-88659580D02*
X117333333Y-88707200D01*
X117333333Y-88707200D02*
X117428571Y-88754819D01*
X117428571Y-88754819D02*
X117619047Y-88754819D01*
X117619047Y-88754819D02*
X117714285Y-88707200D01*
X117714285Y-88707200D02*
X117761904Y-88659580D01*
X117761904Y-88659580D02*
X117809523Y-88564342D01*
X117809523Y-88564342D02*
X117809523Y-87754819D01*
X118714285Y-88088152D02*
X118714285Y-88754819D01*
X118476190Y-87707200D02*
X118238095Y-88421485D01*
X118238095Y-88421485D02*
X118857142Y-88421485D01*
X79833333Y-76854819D02*
X79500000Y-76378628D01*
X79261905Y-76854819D02*
X79261905Y-75854819D01*
X79261905Y-75854819D02*
X79642857Y-75854819D01*
X79642857Y-75854819D02*
X79738095Y-75902438D01*
X79738095Y-75902438D02*
X79785714Y-75950057D01*
X79785714Y-75950057D02*
X79833333Y-76045295D01*
X79833333Y-76045295D02*
X79833333Y-76188152D01*
X79833333Y-76188152D02*
X79785714Y-76283390D01*
X79785714Y-76283390D02*
X79738095Y-76331009D01*
X79738095Y-76331009D02*
X79642857Y-76378628D01*
X79642857Y-76378628D02*
X79261905Y-76378628D01*
X80738095Y-75854819D02*
X80261905Y-75854819D01*
X80261905Y-75854819D02*
X80214286Y-76331009D01*
X80214286Y-76331009D02*
X80261905Y-76283390D01*
X80261905Y-76283390D02*
X80357143Y-76235771D01*
X80357143Y-76235771D02*
X80595238Y-76235771D01*
X80595238Y-76235771D02*
X80690476Y-76283390D01*
X80690476Y-76283390D02*
X80738095Y-76331009D01*
X80738095Y-76331009D02*
X80785714Y-76426247D01*
X80785714Y-76426247D02*
X80785714Y-76664342D01*
X80785714Y-76664342D02*
X80738095Y-76759580D01*
X80738095Y-76759580D02*
X80690476Y-76807200D01*
X80690476Y-76807200D02*
X80595238Y-76854819D01*
X80595238Y-76854819D02*
X80357143Y-76854819D01*
X80357143Y-76854819D02*
X80261905Y-76807200D01*
X80261905Y-76807200D02*
X80214286Y-76759580D01*
X149066666Y-63054819D02*
X149066666Y-63769104D01*
X149066666Y-63769104D02*
X149019047Y-63911961D01*
X149019047Y-63911961D02*
X148923809Y-64007200D01*
X148923809Y-64007200D02*
X148780952Y-64054819D01*
X148780952Y-64054819D02*
X148685714Y-64054819D01*
X150066666Y-64054819D02*
X149495238Y-64054819D01*
X149780952Y-64054819D02*
X149780952Y-63054819D01*
X149780952Y-63054819D02*
X149685714Y-63197676D01*
X149685714Y-63197676D02*
X149590476Y-63292914D01*
X149590476Y-63292914D02*
X149495238Y-63340533D01*
X150157142Y-79459580D02*
X150109523Y-79507200D01*
X150109523Y-79507200D02*
X149966666Y-79554819D01*
X149966666Y-79554819D02*
X149871428Y-79554819D01*
X149871428Y-79554819D02*
X149728571Y-79507200D01*
X149728571Y-79507200D02*
X149633333Y-79411961D01*
X149633333Y-79411961D02*
X149585714Y-79316723D01*
X149585714Y-79316723D02*
X149538095Y-79126247D01*
X149538095Y-79126247D02*
X149538095Y-78983390D01*
X149538095Y-78983390D02*
X149585714Y-78792914D01*
X149585714Y-78792914D02*
X149633333Y-78697676D01*
X149633333Y-78697676D02*
X149728571Y-78602438D01*
X149728571Y-78602438D02*
X149871428Y-78554819D01*
X149871428Y-78554819D02*
X149966666Y-78554819D01*
X149966666Y-78554819D02*
X150109523Y-78602438D01*
X150109523Y-78602438D02*
X150157142Y-78650057D01*
X151109523Y-79554819D02*
X150538095Y-79554819D01*
X150823809Y-79554819D02*
X150823809Y-78554819D01*
X150823809Y-78554819D02*
X150728571Y-78697676D01*
X150728571Y-78697676D02*
X150633333Y-78792914D01*
X150633333Y-78792914D02*
X150538095Y-78840533D01*
X151490476Y-78650057D02*
X151538095Y-78602438D01*
X151538095Y-78602438D02*
X151633333Y-78554819D01*
X151633333Y-78554819D02*
X151871428Y-78554819D01*
X151871428Y-78554819D02*
X151966666Y-78602438D01*
X151966666Y-78602438D02*
X152014285Y-78650057D01*
X152014285Y-78650057D02*
X152061904Y-78745295D01*
X152061904Y-78745295D02*
X152061904Y-78840533D01*
X152061904Y-78840533D02*
X152014285Y-78983390D01*
X152014285Y-78983390D02*
X151442857Y-79554819D01*
X151442857Y-79554819D02*
X152061904Y-79554819D01*
X132109580Y-59266666D02*
X132157200Y-59314285D01*
X132157200Y-59314285D02*
X132204819Y-59457142D01*
X132204819Y-59457142D02*
X132204819Y-59552380D01*
X132204819Y-59552380D02*
X132157200Y-59695237D01*
X132157200Y-59695237D02*
X132061961Y-59790475D01*
X132061961Y-59790475D02*
X131966723Y-59838094D01*
X131966723Y-59838094D02*
X131776247Y-59885713D01*
X131776247Y-59885713D02*
X131633390Y-59885713D01*
X131633390Y-59885713D02*
X131442914Y-59838094D01*
X131442914Y-59838094D02*
X131347676Y-59790475D01*
X131347676Y-59790475D02*
X131252438Y-59695237D01*
X131252438Y-59695237D02*
X131204819Y-59552380D01*
X131204819Y-59552380D02*
X131204819Y-59457142D01*
X131204819Y-59457142D02*
X131252438Y-59314285D01*
X131252438Y-59314285D02*
X131300057Y-59266666D01*
X131204819Y-58933332D02*
X131204819Y-58266666D01*
X131204819Y-58266666D02*
X132204819Y-58695237D01*
X108034819Y-33833333D02*
X108749104Y-33833333D01*
X108749104Y-33833333D02*
X108891961Y-33880952D01*
X108891961Y-33880952D02*
X108987200Y-33976190D01*
X108987200Y-33976190D02*
X109034819Y-34119047D01*
X109034819Y-34119047D02*
X109034819Y-34214285D01*
X108034819Y-32880952D02*
X108034819Y-33357142D01*
X108034819Y-33357142D02*
X108511009Y-33404761D01*
X108511009Y-33404761D02*
X108463390Y-33357142D01*
X108463390Y-33357142D02*
X108415771Y-33261904D01*
X108415771Y-33261904D02*
X108415771Y-33023809D01*
X108415771Y-33023809D02*
X108463390Y-32928571D01*
X108463390Y-32928571D02*
X108511009Y-32880952D01*
X108511009Y-32880952D02*
X108606247Y-32833333D01*
X108606247Y-32833333D02*
X108844342Y-32833333D01*
X108844342Y-32833333D02*
X108939580Y-32880952D01*
X108939580Y-32880952D02*
X108987200Y-32928571D01*
X108987200Y-32928571D02*
X109034819Y-33023809D01*
X109034819Y-33023809D02*
X109034819Y-33261904D01*
X109034819Y-33261904D02*
X108987200Y-33357142D01*
X108987200Y-33357142D02*
X108939580Y-33404761D01*
X112109580Y-81566666D02*
X112157200Y-81614285D01*
X112157200Y-81614285D02*
X112204819Y-81757142D01*
X112204819Y-81757142D02*
X112204819Y-81852380D01*
X112204819Y-81852380D02*
X112157200Y-81995237D01*
X112157200Y-81995237D02*
X112061961Y-82090475D01*
X112061961Y-82090475D02*
X111966723Y-82138094D01*
X111966723Y-82138094D02*
X111776247Y-82185713D01*
X111776247Y-82185713D02*
X111633390Y-82185713D01*
X111633390Y-82185713D02*
X111442914Y-82138094D01*
X111442914Y-82138094D02*
X111347676Y-82090475D01*
X111347676Y-82090475D02*
X111252438Y-81995237D01*
X111252438Y-81995237D02*
X111204819Y-81852380D01*
X111204819Y-81852380D02*
X111204819Y-81757142D01*
X111204819Y-81757142D02*
X111252438Y-81614285D01*
X111252438Y-81614285D02*
X111300057Y-81566666D01*
X112204819Y-81090475D02*
X112204819Y-80899999D01*
X112204819Y-80899999D02*
X112157200Y-80804761D01*
X112157200Y-80804761D02*
X112109580Y-80757142D01*
X112109580Y-80757142D02*
X111966723Y-80661904D01*
X111966723Y-80661904D02*
X111776247Y-80614285D01*
X111776247Y-80614285D02*
X111395295Y-80614285D01*
X111395295Y-80614285D02*
X111300057Y-80661904D01*
X111300057Y-80661904D02*
X111252438Y-80709523D01*
X111252438Y-80709523D02*
X111204819Y-80804761D01*
X111204819Y-80804761D02*
X111204819Y-80995237D01*
X111204819Y-80995237D02*
X111252438Y-81090475D01*
X111252438Y-81090475D02*
X111300057Y-81138094D01*
X111300057Y-81138094D02*
X111395295Y-81185713D01*
X111395295Y-81185713D02*
X111633390Y-81185713D01*
X111633390Y-81185713D02*
X111728628Y-81138094D01*
X111728628Y-81138094D02*
X111776247Y-81090475D01*
X111776247Y-81090475D02*
X111823866Y-80995237D01*
X111823866Y-80995237D02*
X111823866Y-80804761D01*
X111823866Y-80804761D02*
X111776247Y-80709523D01*
X111776247Y-80709523D02*
X111728628Y-80661904D01*
X111728628Y-80661904D02*
X111633390Y-80614285D01*
X73096666Y-30694819D02*
X73096666Y-31409104D01*
X73096666Y-31409104D02*
X73049047Y-31551961D01*
X73049047Y-31551961D02*
X72953809Y-31647200D01*
X72953809Y-31647200D02*
X72810952Y-31694819D01*
X72810952Y-31694819D02*
X72715714Y-31694819D01*
X73525238Y-30790057D02*
X73572857Y-30742438D01*
X73572857Y-30742438D02*
X73668095Y-30694819D01*
X73668095Y-30694819D02*
X73906190Y-30694819D01*
X73906190Y-30694819D02*
X74001428Y-30742438D01*
X74001428Y-30742438D02*
X74049047Y-30790057D01*
X74049047Y-30790057D02*
X74096666Y-30885295D01*
X74096666Y-30885295D02*
X74096666Y-30980533D01*
X74096666Y-30980533D02*
X74049047Y-31123390D01*
X74049047Y-31123390D02*
X73477619Y-31694819D01*
X73477619Y-31694819D02*
X74096666Y-31694819D01*
X67354819Y-73133333D02*
X68069104Y-73133333D01*
X68069104Y-73133333D02*
X68211961Y-73180952D01*
X68211961Y-73180952D02*
X68307200Y-73276190D01*
X68307200Y-73276190D02*
X68354819Y-73419047D01*
X68354819Y-73419047D02*
X68354819Y-73514285D01*
X67783390Y-72514285D02*
X67735771Y-72609523D01*
X67735771Y-72609523D02*
X67688152Y-72657142D01*
X67688152Y-72657142D02*
X67592914Y-72704761D01*
X67592914Y-72704761D02*
X67545295Y-72704761D01*
X67545295Y-72704761D02*
X67450057Y-72657142D01*
X67450057Y-72657142D02*
X67402438Y-72609523D01*
X67402438Y-72609523D02*
X67354819Y-72514285D01*
X67354819Y-72514285D02*
X67354819Y-72323809D01*
X67354819Y-72323809D02*
X67402438Y-72228571D01*
X67402438Y-72228571D02*
X67450057Y-72180952D01*
X67450057Y-72180952D02*
X67545295Y-72133333D01*
X67545295Y-72133333D02*
X67592914Y-72133333D01*
X67592914Y-72133333D02*
X67688152Y-72180952D01*
X67688152Y-72180952D02*
X67735771Y-72228571D01*
X67735771Y-72228571D02*
X67783390Y-72323809D01*
X67783390Y-72323809D02*
X67783390Y-72514285D01*
X67783390Y-72514285D02*
X67831009Y-72609523D01*
X67831009Y-72609523D02*
X67878628Y-72657142D01*
X67878628Y-72657142D02*
X67973866Y-72704761D01*
X67973866Y-72704761D02*
X68164342Y-72704761D01*
X68164342Y-72704761D02*
X68259580Y-72657142D01*
X68259580Y-72657142D02*
X68307200Y-72609523D01*
X68307200Y-72609523D02*
X68354819Y-72514285D01*
X68354819Y-72514285D02*
X68354819Y-72323809D01*
X68354819Y-72323809D02*
X68307200Y-72228571D01*
X68307200Y-72228571D02*
X68259580Y-72180952D01*
X68259580Y-72180952D02*
X68164342Y-72133333D01*
X68164342Y-72133333D02*
X67973866Y-72133333D01*
X67973866Y-72133333D02*
X67878628Y-72180952D01*
X67878628Y-72180952D02*
X67831009Y-72228571D01*
X67831009Y-72228571D02*
X67783390Y-72323809D01*
X85457142Y-45059580D02*
X85409523Y-45107200D01*
X85409523Y-45107200D02*
X85266666Y-45154819D01*
X85266666Y-45154819D02*
X85171428Y-45154819D01*
X85171428Y-45154819D02*
X85028571Y-45107200D01*
X85028571Y-45107200D02*
X84933333Y-45011961D01*
X84933333Y-45011961D02*
X84885714Y-44916723D01*
X84885714Y-44916723D02*
X84838095Y-44726247D01*
X84838095Y-44726247D02*
X84838095Y-44583390D01*
X84838095Y-44583390D02*
X84885714Y-44392914D01*
X84885714Y-44392914D02*
X84933333Y-44297676D01*
X84933333Y-44297676D02*
X85028571Y-44202438D01*
X85028571Y-44202438D02*
X85171428Y-44154819D01*
X85171428Y-44154819D02*
X85266666Y-44154819D01*
X85266666Y-44154819D02*
X85409523Y-44202438D01*
X85409523Y-44202438D02*
X85457142Y-44250057D01*
X86409523Y-45154819D02*
X85838095Y-45154819D01*
X86123809Y-45154819D02*
X86123809Y-44154819D01*
X86123809Y-44154819D02*
X86028571Y-44297676D01*
X86028571Y-44297676D02*
X85933333Y-44392914D01*
X85933333Y-44392914D02*
X85838095Y-44440533D01*
X87314285Y-44154819D02*
X86838095Y-44154819D01*
X86838095Y-44154819D02*
X86790476Y-44631009D01*
X86790476Y-44631009D02*
X86838095Y-44583390D01*
X86838095Y-44583390D02*
X86933333Y-44535771D01*
X86933333Y-44535771D02*
X87171428Y-44535771D01*
X87171428Y-44535771D02*
X87266666Y-44583390D01*
X87266666Y-44583390D02*
X87314285Y-44631009D01*
X87314285Y-44631009D02*
X87361904Y-44726247D01*
X87361904Y-44726247D02*
X87361904Y-44964342D01*
X87361904Y-44964342D02*
X87314285Y-45059580D01*
X87314285Y-45059580D02*
X87266666Y-45107200D01*
X87266666Y-45107200D02*
X87171428Y-45154819D01*
X87171428Y-45154819D02*
X86933333Y-45154819D01*
X86933333Y-45154819D02*
X86838095Y-45107200D01*
X86838095Y-45107200D02*
X86790476Y-45059580D01*
X152496666Y-30654819D02*
X152496666Y-31369104D01*
X152496666Y-31369104D02*
X152449047Y-31511961D01*
X152449047Y-31511961D02*
X152353809Y-31607200D01*
X152353809Y-31607200D02*
X152210952Y-31654819D01*
X152210952Y-31654819D02*
X152115714Y-31654819D01*
X152877619Y-30654819D02*
X153496666Y-30654819D01*
X153496666Y-30654819D02*
X153163333Y-31035771D01*
X153163333Y-31035771D02*
X153306190Y-31035771D01*
X153306190Y-31035771D02*
X153401428Y-31083390D01*
X153401428Y-31083390D02*
X153449047Y-31131009D01*
X153449047Y-31131009D02*
X153496666Y-31226247D01*
X153496666Y-31226247D02*
X153496666Y-31464342D01*
X153496666Y-31464342D02*
X153449047Y-31559580D01*
X153449047Y-31559580D02*
X153401428Y-31607200D01*
X153401428Y-31607200D02*
X153306190Y-31654819D01*
X153306190Y-31654819D02*
X153020476Y-31654819D01*
X153020476Y-31654819D02*
X152925238Y-31607200D01*
X152925238Y-31607200D02*
X152877619Y-31559580D01*
X67354819Y-85833333D02*
X68069104Y-85833333D01*
X68069104Y-85833333D02*
X68211961Y-85880952D01*
X68211961Y-85880952D02*
X68307200Y-85976190D01*
X68307200Y-85976190D02*
X68354819Y-86119047D01*
X68354819Y-86119047D02*
X68354819Y-86214285D01*
X67354819Y-84928571D02*
X67354819Y-85119047D01*
X67354819Y-85119047D02*
X67402438Y-85214285D01*
X67402438Y-85214285D02*
X67450057Y-85261904D01*
X67450057Y-85261904D02*
X67592914Y-85357142D01*
X67592914Y-85357142D02*
X67783390Y-85404761D01*
X67783390Y-85404761D02*
X68164342Y-85404761D01*
X68164342Y-85404761D02*
X68259580Y-85357142D01*
X68259580Y-85357142D02*
X68307200Y-85309523D01*
X68307200Y-85309523D02*
X68354819Y-85214285D01*
X68354819Y-85214285D02*
X68354819Y-85023809D01*
X68354819Y-85023809D02*
X68307200Y-84928571D01*
X68307200Y-84928571D02*
X68259580Y-84880952D01*
X68259580Y-84880952D02*
X68164342Y-84833333D01*
X68164342Y-84833333D02*
X67926247Y-84833333D01*
X67926247Y-84833333D02*
X67831009Y-84880952D01*
X67831009Y-84880952D02*
X67783390Y-84928571D01*
X67783390Y-84928571D02*
X67735771Y-85023809D01*
X67735771Y-85023809D02*
X67735771Y-85214285D01*
X67735771Y-85214285D02*
X67783390Y-85309523D01*
X67783390Y-85309523D02*
X67831009Y-85357142D01*
X67831009Y-85357142D02*
X67926247Y-85404761D01*
X79833333Y-67454819D02*
X79500000Y-66978628D01*
X79261905Y-67454819D02*
X79261905Y-66454819D01*
X79261905Y-66454819D02*
X79642857Y-66454819D01*
X79642857Y-66454819D02*
X79738095Y-66502438D01*
X79738095Y-66502438D02*
X79785714Y-66550057D01*
X79785714Y-66550057D02*
X79833333Y-66645295D01*
X79833333Y-66645295D02*
X79833333Y-66788152D01*
X79833333Y-66788152D02*
X79785714Y-66883390D01*
X79785714Y-66883390D02*
X79738095Y-66931009D01*
X79738095Y-66931009D02*
X79642857Y-66978628D01*
X79642857Y-66978628D02*
X79261905Y-66978628D01*
X80690476Y-66788152D02*
X80690476Y-67454819D01*
X80452381Y-66407200D02*
X80214286Y-67121485D01*
X80214286Y-67121485D02*
X80833333Y-67121485D01*
X118548095Y-40884819D02*
X118548095Y-41694342D01*
X118548095Y-41694342D02*
X118595714Y-41789580D01*
X118595714Y-41789580D02*
X118643333Y-41837200D01*
X118643333Y-41837200D02*
X118738571Y-41884819D01*
X118738571Y-41884819D02*
X118929047Y-41884819D01*
X118929047Y-41884819D02*
X119024285Y-41837200D01*
X119024285Y-41837200D02*
X119071904Y-41789580D01*
X119071904Y-41789580D02*
X119119523Y-41694342D01*
X119119523Y-41694342D02*
X119119523Y-40884819D01*
X119548095Y-40980057D02*
X119595714Y-40932438D01*
X119595714Y-40932438D02*
X119690952Y-40884819D01*
X119690952Y-40884819D02*
X119929047Y-40884819D01*
X119929047Y-40884819D02*
X120024285Y-40932438D01*
X120024285Y-40932438D02*
X120071904Y-40980057D01*
X120071904Y-40980057D02*
X120119523Y-41075295D01*
X120119523Y-41075295D02*
X120119523Y-41170533D01*
X120119523Y-41170533D02*
X120071904Y-41313390D01*
X120071904Y-41313390D02*
X119500476Y-41884819D01*
X119500476Y-41884819D02*
X120119523Y-41884819D01*
X126633333Y-71554819D02*
X126300000Y-71078628D01*
X126061905Y-71554819D02*
X126061905Y-70554819D01*
X126061905Y-70554819D02*
X126442857Y-70554819D01*
X126442857Y-70554819D02*
X126538095Y-70602438D01*
X126538095Y-70602438D02*
X126585714Y-70650057D01*
X126585714Y-70650057D02*
X126633333Y-70745295D01*
X126633333Y-70745295D02*
X126633333Y-70888152D01*
X126633333Y-70888152D02*
X126585714Y-70983390D01*
X126585714Y-70983390D02*
X126538095Y-71031009D01*
X126538095Y-71031009D02*
X126442857Y-71078628D01*
X126442857Y-71078628D02*
X126061905Y-71078628D01*
X126966667Y-70554819D02*
X127585714Y-70554819D01*
X127585714Y-70554819D02*
X127252381Y-70935771D01*
X127252381Y-70935771D02*
X127395238Y-70935771D01*
X127395238Y-70935771D02*
X127490476Y-70983390D01*
X127490476Y-70983390D02*
X127538095Y-71031009D01*
X127538095Y-71031009D02*
X127585714Y-71126247D01*
X127585714Y-71126247D02*
X127585714Y-71364342D01*
X127585714Y-71364342D02*
X127538095Y-71459580D01*
X127538095Y-71459580D02*
X127490476Y-71507200D01*
X127490476Y-71507200D02*
X127395238Y-71554819D01*
X127395238Y-71554819D02*
X127109524Y-71554819D01*
X127109524Y-71554819D02*
X127014286Y-71507200D01*
X127014286Y-71507200D02*
X126966667Y-71459580D01*
X125509580Y-59266666D02*
X125557200Y-59314285D01*
X125557200Y-59314285D02*
X125604819Y-59457142D01*
X125604819Y-59457142D02*
X125604819Y-59552380D01*
X125604819Y-59552380D02*
X125557200Y-59695237D01*
X125557200Y-59695237D02*
X125461961Y-59790475D01*
X125461961Y-59790475D02*
X125366723Y-59838094D01*
X125366723Y-59838094D02*
X125176247Y-59885713D01*
X125176247Y-59885713D02*
X125033390Y-59885713D01*
X125033390Y-59885713D02*
X124842914Y-59838094D01*
X124842914Y-59838094D02*
X124747676Y-59790475D01*
X124747676Y-59790475D02*
X124652438Y-59695237D01*
X124652438Y-59695237D02*
X124604819Y-59552380D01*
X124604819Y-59552380D02*
X124604819Y-59457142D01*
X124604819Y-59457142D02*
X124652438Y-59314285D01*
X124652438Y-59314285D02*
X124700057Y-59266666D01*
X124604819Y-58409523D02*
X124604819Y-58599999D01*
X124604819Y-58599999D02*
X124652438Y-58695237D01*
X124652438Y-58695237D02*
X124700057Y-58742856D01*
X124700057Y-58742856D02*
X124842914Y-58838094D01*
X124842914Y-58838094D02*
X125033390Y-58885713D01*
X125033390Y-58885713D02*
X125414342Y-58885713D01*
X125414342Y-58885713D02*
X125509580Y-58838094D01*
X125509580Y-58838094D02*
X125557200Y-58790475D01*
X125557200Y-58790475D02*
X125604819Y-58695237D01*
X125604819Y-58695237D02*
X125604819Y-58504761D01*
X125604819Y-58504761D02*
X125557200Y-58409523D01*
X125557200Y-58409523D02*
X125509580Y-58361904D01*
X125509580Y-58361904D02*
X125414342Y-58314285D01*
X125414342Y-58314285D02*
X125176247Y-58314285D01*
X125176247Y-58314285D02*
X125081009Y-58361904D01*
X125081009Y-58361904D02*
X125033390Y-58409523D01*
X125033390Y-58409523D02*
X124985771Y-58504761D01*
X124985771Y-58504761D02*
X124985771Y-58695237D01*
X124985771Y-58695237D02*
X125033390Y-58790475D01*
X125033390Y-58790475D02*
X125081009Y-58838094D01*
X125081009Y-58838094D02*
X125176247Y-58885713D01*
X79833333Y-63254819D02*
X79500000Y-62778628D01*
X79261905Y-63254819D02*
X79261905Y-62254819D01*
X79261905Y-62254819D02*
X79642857Y-62254819D01*
X79642857Y-62254819D02*
X79738095Y-62302438D01*
X79738095Y-62302438D02*
X79785714Y-62350057D01*
X79785714Y-62350057D02*
X79833333Y-62445295D01*
X79833333Y-62445295D02*
X79833333Y-62588152D01*
X79833333Y-62588152D02*
X79785714Y-62683390D01*
X79785714Y-62683390D02*
X79738095Y-62731009D01*
X79738095Y-62731009D02*
X79642857Y-62778628D01*
X79642857Y-62778628D02*
X79261905Y-62778628D01*
X80690476Y-62254819D02*
X80500000Y-62254819D01*
X80500000Y-62254819D02*
X80404762Y-62302438D01*
X80404762Y-62302438D02*
X80357143Y-62350057D01*
X80357143Y-62350057D02*
X80261905Y-62492914D01*
X80261905Y-62492914D02*
X80214286Y-62683390D01*
X80214286Y-62683390D02*
X80214286Y-63064342D01*
X80214286Y-63064342D02*
X80261905Y-63159580D01*
X80261905Y-63159580D02*
X80309524Y-63207200D01*
X80309524Y-63207200D02*
X80404762Y-63254819D01*
X80404762Y-63254819D02*
X80595238Y-63254819D01*
X80595238Y-63254819D02*
X80690476Y-63207200D01*
X80690476Y-63207200D02*
X80738095Y-63159580D01*
X80738095Y-63159580D02*
X80785714Y-63064342D01*
X80785714Y-63064342D02*
X80785714Y-62826247D01*
X80785714Y-62826247D02*
X80738095Y-62731009D01*
X80738095Y-62731009D02*
X80690476Y-62683390D01*
X80690476Y-62683390D02*
X80595238Y-62635771D01*
X80595238Y-62635771D02*
X80404762Y-62635771D01*
X80404762Y-62635771D02*
X80309524Y-62683390D01*
X80309524Y-62683390D02*
X80261905Y-62731009D01*
X80261905Y-62731009D02*
X80214286Y-62826247D01*
X141361905Y-75854819D02*
X141361905Y-74854819D01*
X141361905Y-74854819D02*
X141600000Y-74854819D01*
X141600000Y-74854819D02*
X141742857Y-74902438D01*
X141742857Y-74902438D02*
X141838095Y-74997676D01*
X141838095Y-74997676D02*
X141885714Y-75092914D01*
X141885714Y-75092914D02*
X141933333Y-75283390D01*
X141933333Y-75283390D02*
X141933333Y-75426247D01*
X141933333Y-75426247D02*
X141885714Y-75616723D01*
X141885714Y-75616723D02*
X141838095Y-75711961D01*
X141838095Y-75711961D02*
X141742857Y-75807200D01*
X141742857Y-75807200D02*
X141600000Y-75854819D01*
X141600000Y-75854819D02*
X141361905Y-75854819D01*
X142885714Y-75854819D02*
X142314286Y-75854819D01*
X142600000Y-75854819D02*
X142600000Y-74854819D01*
X142600000Y-74854819D02*
X142504762Y-74997676D01*
X142504762Y-74997676D02*
X142409524Y-75092914D01*
X142409524Y-75092914D02*
X142314286Y-75140533D01*
X126538095Y-73954819D02*
X126538095Y-72954819D01*
X127109523Y-73954819D02*
X126680952Y-73383390D01*
X127109523Y-72954819D02*
X126538095Y-73526247D01*
X101633333Y-37559580D02*
X101585714Y-37607200D01*
X101585714Y-37607200D02*
X101442857Y-37654819D01*
X101442857Y-37654819D02*
X101347619Y-37654819D01*
X101347619Y-37654819D02*
X101204762Y-37607200D01*
X101204762Y-37607200D02*
X101109524Y-37511961D01*
X101109524Y-37511961D02*
X101061905Y-37416723D01*
X101061905Y-37416723D02*
X101014286Y-37226247D01*
X101014286Y-37226247D02*
X101014286Y-37083390D01*
X101014286Y-37083390D02*
X101061905Y-36892914D01*
X101061905Y-36892914D02*
X101109524Y-36797676D01*
X101109524Y-36797676D02*
X101204762Y-36702438D01*
X101204762Y-36702438D02*
X101347619Y-36654819D01*
X101347619Y-36654819D02*
X101442857Y-36654819D01*
X101442857Y-36654819D02*
X101585714Y-36702438D01*
X101585714Y-36702438D02*
X101633333Y-36750057D01*
X102490476Y-36988152D02*
X102490476Y-37654819D01*
X102252381Y-36607200D02*
X102014286Y-37321485D01*
X102014286Y-37321485D02*
X102633333Y-37321485D01*
X105774819Y-69786666D02*
X105298628Y-70119999D01*
X105774819Y-70358094D02*
X104774819Y-70358094D01*
X104774819Y-70358094D02*
X104774819Y-69977142D01*
X104774819Y-69977142D02*
X104822438Y-69881904D01*
X104822438Y-69881904D02*
X104870057Y-69834285D01*
X104870057Y-69834285D02*
X104965295Y-69786666D01*
X104965295Y-69786666D02*
X105108152Y-69786666D01*
X105108152Y-69786666D02*
X105203390Y-69834285D01*
X105203390Y-69834285D02*
X105251009Y-69881904D01*
X105251009Y-69881904D02*
X105298628Y-69977142D01*
X105298628Y-69977142D02*
X105298628Y-70358094D01*
X105203390Y-69215237D02*
X105155771Y-69310475D01*
X105155771Y-69310475D02*
X105108152Y-69358094D01*
X105108152Y-69358094D02*
X105012914Y-69405713D01*
X105012914Y-69405713D02*
X104965295Y-69405713D01*
X104965295Y-69405713D02*
X104870057Y-69358094D01*
X104870057Y-69358094D02*
X104822438Y-69310475D01*
X104822438Y-69310475D02*
X104774819Y-69215237D01*
X104774819Y-69215237D02*
X104774819Y-69024761D01*
X104774819Y-69024761D02*
X104822438Y-68929523D01*
X104822438Y-68929523D02*
X104870057Y-68881904D01*
X104870057Y-68881904D02*
X104965295Y-68834285D01*
X104965295Y-68834285D02*
X105012914Y-68834285D01*
X105012914Y-68834285D02*
X105108152Y-68881904D01*
X105108152Y-68881904D02*
X105155771Y-68929523D01*
X105155771Y-68929523D02*
X105203390Y-69024761D01*
X105203390Y-69024761D02*
X105203390Y-69215237D01*
X105203390Y-69215237D02*
X105251009Y-69310475D01*
X105251009Y-69310475D02*
X105298628Y-69358094D01*
X105298628Y-69358094D02*
X105393866Y-69405713D01*
X105393866Y-69405713D02*
X105584342Y-69405713D01*
X105584342Y-69405713D02*
X105679580Y-69358094D01*
X105679580Y-69358094D02*
X105727200Y-69310475D01*
X105727200Y-69310475D02*
X105774819Y-69215237D01*
X105774819Y-69215237D02*
X105774819Y-69024761D01*
X105774819Y-69024761D02*
X105727200Y-68929523D01*
X105727200Y-68929523D02*
X105679580Y-68881904D01*
X105679580Y-68881904D02*
X105584342Y-68834285D01*
X105584342Y-68834285D02*
X105393866Y-68834285D01*
X105393866Y-68834285D02*
X105298628Y-68881904D01*
X105298628Y-68881904D02*
X105251009Y-68929523D01*
X105251009Y-68929523D02*
X105203390Y-69024761D01*
X126699819Y-41410238D02*
X126223628Y-41743571D01*
X126699819Y-41981666D02*
X125699819Y-41981666D01*
X125699819Y-41981666D02*
X125699819Y-41600714D01*
X125699819Y-41600714D02*
X125747438Y-41505476D01*
X125747438Y-41505476D02*
X125795057Y-41457857D01*
X125795057Y-41457857D02*
X125890295Y-41410238D01*
X125890295Y-41410238D02*
X126033152Y-41410238D01*
X126033152Y-41410238D02*
X126128390Y-41457857D01*
X126128390Y-41457857D02*
X126176009Y-41505476D01*
X126176009Y-41505476D02*
X126223628Y-41600714D01*
X126223628Y-41600714D02*
X126223628Y-41981666D01*
X125699819Y-41124523D02*
X126699819Y-40791190D01*
X126699819Y-40791190D02*
X125699819Y-40457857D01*
X126699819Y-39600714D02*
X126699819Y-40172142D01*
X126699819Y-39886428D02*
X125699819Y-39886428D01*
X125699819Y-39886428D02*
X125842676Y-39981666D01*
X125842676Y-39981666D02*
X125937914Y-40076904D01*
X125937914Y-40076904D02*
X125985533Y-40172142D01*
D11*
%TO.C,U3*%
X117150000Y-60260000D02*
X117150000Y-70540000D01*
X117150000Y-70540000D02*
X121650000Y-70540000D01*
X118400000Y-60260000D02*
X117150000Y-60260000D01*
X121650000Y-60260000D02*
X120400000Y-60260000D01*
X121650000Y-70540000D02*
X121650000Y-60260000D01*
X114150000Y-60200000D02*
X124650000Y-60200000D01*
X124650000Y-70600000D01*
X114150000Y-70600000D01*
X114150000Y-60200000D01*
X120400000Y-60260000D02*
G75*
G02*
X118400000Y-60260000I-1000000J0D01*
G01*
%TO.C,C8*%
X93420000Y-84860000D02*
X103580000Y-84860000D01*
X93420000Y-84900000D02*
X103580000Y-84900000D01*
X93421000Y-84780000D02*
X103579000Y-84780000D01*
X93421000Y-84820000D02*
X103579000Y-84820000D01*
X93423000Y-84740000D02*
X103577000Y-84740000D01*
X93424000Y-84700000D02*
X103576000Y-84700000D01*
X93426000Y-84660000D02*
X103574000Y-84660000D01*
X93428000Y-84620000D02*
X103572000Y-84620000D01*
X93430000Y-84580000D02*
X103570000Y-84580000D01*
X93433000Y-84540000D02*
X103567000Y-84540000D01*
X93436000Y-84500000D02*
X103564000Y-84500000D01*
X93439000Y-84460000D02*
X103561000Y-84460000D01*
X93443000Y-84420000D02*
X103557000Y-84420000D01*
X93446000Y-84380000D02*
X103554000Y-84380000D01*
X93451000Y-84340000D02*
X103549000Y-84340000D01*
X93455000Y-84300000D02*
X103545000Y-84300000D01*
X93460000Y-84260000D02*
X103540000Y-84260000D01*
X93465000Y-84220000D02*
X103535000Y-84220000D01*
X93471000Y-84180000D02*
X103529000Y-84180000D01*
X93477000Y-84140000D02*
X103523000Y-84140000D01*
X93483000Y-84100000D02*
X103517000Y-84100000D01*
X93489000Y-84060000D02*
X103511000Y-84060000D01*
X93496000Y-84020000D02*
X103504000Y-84020000D01*
X93503000Y-83980000D02*
X103497000Y-83980000D01*
X93511000Y-83940000D02*
X103489000Y-83940000D01*
X93519000Y-83900000D02*
X103481000Y-83900000D01*
X93527000Y-83860000D02*
X103473000Y-83860000D01*
X93535000Y-83820000D02*
X103465000Y-83820000D01*
X93544000Y-83780000D02*
X103456000Y-83780000D01*
X93553000Y-83740000D02*
X103447000Y-83740000D01*
X93563000Y-83700000D02*
X103437000Y-83700000D01*
X93572000Y-83660000D02*
X103428000Y-83660000D01*
X93583000Y-83620000D02*
X97260000Y-83620000D01*
X93593000Y-83580000D02*
X97260000Y-83580000D01*
X93604000Y-83540000D02*
X97260000Y-83540000D01*
X93615000Y-83500000D02*
X97260000Y-83500000D01*
X93627000Y-83460000D02*
X97260000Y-83460000D01*
X93639000Y-83420000D02*
X97260000Y-83420000D01*
X93651000Y-83380000D02*
X97260000Y-83380000D01*
X93663000Y-83340000D02*
X97260000Y-83340000D01*
X93676000Y-83300000D02*
X97260000Y-83300000D01*
X93690000Y-83260000D02*
X97260000Y-83260000D01*
X93703000Y-83220000D02*
X97260000Y-83220000D01*
X93718000Y-83180000D02*
X97260000Y-83180000D01*
X93732000Y-83140000D02*
X97260000Y-83140000D01*
X93747000Y-83100000D02*
X97260000Y-83100000D01*
X93762000Y-83060000D02*
X97260000Y-83060000D01*
X93778000Y-83020000D02*
X97260000Y-83020000D01*
X93794000Y-82980000D02*
X97260000Y-82980000D01*
X93810000Y-82940000D02*
X97260000Y-82940000D01*
X93827000Y-82900000D02*
X97260000Y-82900000D01*
X93844000Y-82860000D02*
X97260000Y-82860000D01*
X93862000Y-82820000D02*
X97260000Y-82820000D01*
X93880000Y-82780000D02*
X97260000Y-82780000D01*
X93898000Y-82740000D02*
X97260000Y-82740000D01*
X93917000Y-82700000D02*
X97260000Y-82700000D01*
X93936000Y-82660000D02*
X97260000Y-82660000D01*
X93956000Y-82620000D02*
X97260000Y-82620000D01*
X93976000Y-82580000D02*
X97260000Y-82580000D01*
X93996000Y-82540000D02*
X97260000Y-82540000D01*
X94017000Y-82500000D02*
X97260000Y-82500000D01*
X94039000Y-82460000D02*
X97260000Y-82460000D01*
X94061000Y-82420000D02*
X97260000Y-82420000D01*
X94083000Y-82380000D02*
X97260000Y-82380000D01*
X94106000Y-82340000D02*
X97260000Y-82340000D01*
X94129000Y-82300000D02*
X97260000Y-82300000D01*
X94153000Y-82260000D02*
X97260000Y-82260000D01*
X94177000Y-82220000D02*
X97260000Y-82220000D01*
X94202000Y-82180000D02*
X97260000Y-82180000D01*
X94228000Y-82140000D02*
X97260000Y-82140000D01*
X94253000Y-82100000D02*
X97260000Y-82100000D01*
X94280000Y-82060000D02*
X97260000Y-82060000D01*
X94307000Y-82020000D02*
X97260000Y-82020000D01*
X94334000Y-81980000D02*
X97260000Y-81980000D01*
X94362000Y-81940000D02*
X97260000Y-81940000D01*
X94391000Y-81900000D02*
X97260000Y-81900000D01*
X94420000Y-81860000D02*
X97260000Y-81860000D01*
X94450000Y-81820000D02*
X97260000Y-81820000D01*
X94480000Y-81780000D02*
X97260000Y-81780000D01*
X94512000Y-81740000D02*
X97260000Y-81740000D01*
X94543000Y-81700000D02*
X97260000Y-81700000D01*
X94576000Y-81660000D02*
X97260000Y-81660000D01*
X94609000Y-81620000D02*
X97260000Y-81620000D01*
X94642000Y-81580000D02*
X97260000Y-81580000D01*
X94677000Y-81540000D02*
X97260000Y-81540000D01*
X94712000Y-81500000D02*
X97260000Y-81500000D01*
X94748000Y-81460000D02*
X97260000Y-81460000D01*
X94784000Y-81420000D02*
X97260000Y-81420000D01*
X94822000Y-81380000D02*
X97260000Y-81380000D01*
X94860000Y-81340000D02*
X97260000Y-81340000D01*
X94899000Y-81300000D02*
X97260000Y-81300000D01*
X94939000Y-81260000D02*
X97260000Y-81260000D01*
X94980000Y-81220000D02*
X97260000Y-81220000D01*
X95022000Y-81180000D02*
X97260000Y-81180000D01*
X95065000Y-81140000D02*
X99260000Y-81140000D01*
X95109000Y-81100000D02*
X99260000Y-81100000D01*
X95125000Y-89879646D02*
X96125000Y-89879646D01*
X95153000Y-81060000D02*
X99260000Y-81060000D01*
X95199000Y-81020000D02*
X99260000Y-81020000D01*
X95246000Y-80980000D02*
X99260000Y-80980000D01*
X95295000Y-80940000D02*
X99260000Y-80940000D01*
X95344000Y-80900000D02*
X99260000Y-80900000D01*
X95395000Y-80860000D02*
X99260000Y-80860000D01*
X95447000Y-80820000D02*
X99260000Y-80820000D01*
X95500000Y-80780000D02*
X99260000Y-80780000D01*
X95555000Y-80740000D02*
X99260000Y-80740000D01*
X95612000Y-80700000D02*
X99260000Y-80700000D01*
X95625000Y-90379646D02*
X95625000Y-89379646D01*
X95670000Y-80660000D02*
X99260000Y-80660000D01*
X95730000Y-80620000D02*
X99260000Y-80620000D01*
X95792000Y-80580000D02*
X99260000Y-80580000D01*
X95856000Y-80540000D02*
X99260000Y-80540000D01*
X95922000Y-80500000D02*
X99260000Y-80500000D01*
X95990000Y-80460000D02*
X101010000Y-80460000D01*
X96061000Y-80420000D02*
X100939000Y-80420000D01*
X96135000Y-80380000D02*
X100865000Y-80380000D01*
X96212000Y-80340000D02*
X100788000Y-80340000D01*
X96292000Y-80300000D02*
X100708000Y-80300000D01*
X96376000Y-80260000D02*
X100624000Y-80260000D01*
X96463000Y-80220000D02*
X100537000Y-80220000D01*
X96556000Y-80180000D02*
X100444000Y-80180000D01*
X96654000Y-80140000D02*
X100346000Y-80140000D01*
X96758000Y-80100000D02*
X100242000Y-80100000D01*
X96870000Y-80060000D02*
X100130000Y-80060000D01*
X96991000Y-80020000D02*
X100009000Y-80020000D01*
X97123000Y-79980000D02*
X99877000Y-79980000D01*
X97270000Y-79940000D02*
X99730000Y-79940000D01*
X97438000Y-79900000D02*
X99562000Y-79900000D01*
X97638000Y-79860000D02*
X99362000Y-79860000D01*
X97901000Y-79820000D02*
X99099000Y-79820000D01*
X99740000Y-82980000D02*
X103206000Y-82980000D01*
X99740000Y-83020000D02*
X103222000Y-83020000D01*
X99740000Y-83060000D02*
X103238000Y-83060000D01*
X99740000Y-83100000D02*
X103253000Y-83100000D01*
X99740000Y-83140000D02*
X103268000Y-83140000D01*
X99740000Y-83180000D02*
X103282000Y-83180000D01*
X99740000Y-83220000D02*
X103297000Y-83220000D01*
X99740000Y-83260000D02*
X103310000Y-83260000D01*
X99740000Y-83300000D02*
X103324000Y-83300000D01*
X99740000Y-83340000D02*
X103337000Y-83340000D01*
X99740000Y-83380000D02*
X103349000Y-83380000D01*
X99740000Y-83420000D02*
X103361000Y-83420000D01*
X99740000Y-83460000D02*
X103373000Y-83460000D01*
X99740000Y-83500000D02*
X103385000Y-83500000D01*
X99740000Y-83540000D02*
X103396000Y-83540000D01*
X99740000Y-83580000D02*
X103407000Y-83580000D01*
X99740000Y-83620000D02*
X103417000Y-83620000D01*
X101740000Y-81020000D02*
X101801000Y-81020000D01*
X101740000Y-81060000D02*
X101847000Y-81060000D01*
X101740000Y-81100000D02*
X101891000Y-81100000D01*
X101740000Y-81140000D02*
X101935000Y-81140000D01*
X101740000Y-81180000D02*
X101978000Y-81180000D01*
X101740000Y-81220000D02*
X102020000Y-81220000D01*
X101740000Y-81260000D02*
X102061000Y-81260000D01*
X101740000Y-81300000D02*
X102101000Y-81300000D01*
X101740000Y-81340000D02*
X102140000Y-81340000D01*
X101740000Y-81380000D02*
X102178000Y-81380000D01*
X101740000Y-81420000D02*
X102216000Y-81420000D01*
X101740000Y-81460000D02*
X102252000Y-81460000D01*
X101740000Y-81500000D02*
X102288000Y-81500000D01*
X101740000Y-81540000D02*
X102323000Y-81540000D01*
X101740000Y-81580000D02*
X102358000Y-81580000D01*
X101740000Y-81620000D02*
X102391000Y-81620000D01*
X101740000Y-81660000D02*
X102424000Y-81660000D01*
X101740000Y-81700000D02*
X102457000Y-81700000D01*
X101740000Y-81740000D02*
X102488000Y-81740000D01*
X101740000Y-81780000D02*
X102520000Y-81780000D01*
X101740000Y-81820000D02*
X102550000Y-81820000D01*
X101740000Y-81860000D02*
X102580000Y-81860000D01*
X101740000Y-81900000D02*
X102609000Y-81900000D01*
X101740000Y-81940000D02*
X102638000Y-81940000D01*
X101740000Y-81980000D02*
X102666000Y-81980000D01*
X101740000Y-82020000D02*
X102693000Y-82020000D01*
X101740000Y-82060000D02*
X102720000Y-82060000D01*
X101740000Y-82100000D02*
X102747000Y-82100000D01*
X101740000Y-82140000D02*
X102772000Y-82140000D01*
X101740000Y-82180000D02*
X102798000Y-82180000D01*
X101740000Y-82220000D02*
X102823000Y-82220000D01*
X101740000Y-82260000D02*
X102847000Y-82260000D01*
X101740000Y-82300000D02*
X102871000Y-82300000D01*
X101740000Y-82340000D02*
X102894000Y-82340000D01*
X101740000Y-82380000D02*
X102917000Y-82380000D01*
X101740000Y-82420000D02*
X102939000Y-82420000D01*
X101740000Y-82460000D02*
X102961000Y-82460000D01*
X101740000Y-82500000D02*
X102983000Y-82500000D01*
X101740000Y-82540000D02*
X103004000Y-82540000D01*
X101740000Y-82580000D02*
X103024000Y-82580000D01*
X101740000Y-82620000D02*
X103044000Y-82620000D01*
X101740000Y-82660000D02*
X103064000Y-82660000D01*
X101740000Y-82700000D02*
X103083000Y-82700000D01*
X101740000Y-82740000D02*
X103102000Y-82740000D01*
X101740000Y-82780000D02*
X103120000Y-82780000D01*
X101740000Y-82820000D02*
X103138000Y-82820000D01*
X101740000Y-82860000D02*
X103156000Y-82860000D01*
X101740000Y-82900000D02*
X103173000Y-82900000D01*
X101740000Y-82940000D02*
X103190000Y-82940000D01*
X95240000Y-88848012D02*
G75*
G02*
X96786902Y-89724904I3260000J3948012D01*
G01*
%TO.C,C2*%
X127380000Y-46880000D02*
X129620000Y-46880000D01*
X127380000Y-54120000D02*
X127380000Y-46880000D01*
X129620000Y-46880000D02*
X129620000Y-54120000D01*
X129620000Y-54120000D02*
X127380000Y-54120000D01*
%TO.C,D3*%
X86845000Y-54370000D02*
X83755000Y-54370000D01*
X85300000Y-59920000D02*
G75*
G02*
X83755170Y-54370000I0J2990000D01*
G01*
X86844830Y-54370000D02*
G75*
G02*
X85300000Y-59920000I-1544830J-2560000D01*
G01*
X87800000Y-56930000D02*
G75*
G02*
X82800000Y-56930000I-2500000J0D01*
G01*
X82800000Y-56930000D02*
G75*
G02*
X87800000Y-56930000I2500000J0D01*
G01*
%TO.C,J7*%
X68890000Y-55367500D02*
X68890000Y-65587500D01*
X68890000Y-65587500D02*
X77610000Y-65587500D01*
X72400000Y-66387500D02*
X72700000Y-65787500D01*
X72700000Y-65787500D02*
X73000000Y-66387500D01*
X73000000Y-66387500D02*
X72400000Y-66387500D01*
X77610000Y-55367500D02*
X68890000Y-55367500D01*
X77610000Y-65587500D02*
X77610000Y-55367500D01*
%TO.C,U1*%
X93240000Y-39835000D02*
X93240000Y-59005000D01*
X93240000Y-59005000D02*
X97740000Y-59005000D01*
X94490000Y-39835000D02*
X93240000Y-39835000D01*
X97740000Y-39835000D02*
X96490000Y-39835000D01*
X97740000Y-59005000D02*
X97740000Y-39835000D01*
X90240000Y-39775000D02*
X100740000Y-39775000D01*
X100740000Y-59065000D01*
X90240000Y-59065000D01*
X90240000Y-39775000D01*
X96490000Y-39835000D02*
G75*
G02*
X94490000Y-39835000I-1000000J0D01*
G01*
%TO.C,U5*%
X132450000Y-87140000D02*
X142670000Y-87140000D01*
X132450000Y-91760000D02*
X132450000Y-87140000D01*
X135710000Y-91760000D02*
X135710000Y-90380000D01*
X139410000Y-91760000D02*
X139410000Y-90380000D01*
X142670000Y-87140000D02*
X142670000Y-91760000D01*
X142670000Y-90380000D02*
X132450000Y-90380000D01*
X142670000Y-91760000D02*
X132450000Y-91760000D01*
%TO.C,D4*%
X107955000Y-65930000D02*
X111045000Y-65930000D01*
X107955170Y-65930000D02*
G75*
G02*
X109500000Y-60380000I1544830J2560000D01*
G01*
X109500000Y-60380000D02*
G75*
G02*
X111044830Y-65930000I0J-2990000D01*
G01*
X112000000Y-63370000D02*
G75*
G02*
X107000000Y-63370000I-2500000J0D01*
G01*
X107000000Y-63370000D02*
G75*
G02*
X112000000Y-63370000I2500000J0D01*
G01*
%TO.C,C1*%
X116980000Y-54980000D02*
X124220000Y-54980000D01*
X116980000Y-57220000D02*
X116980000Y-54980000D01*
X124220000Y-54980000D02*
X124220000Y-57220000D01*
X124220000Y-57220000D02*
X116980000Y-57220000D01*
%TO.C,R2*%
X127840000Y-66700000D02*
X129800000Y-66700000D01*
X141000000Y-66700000D02*
X139040000Y-66700000D01*
X129800000Y-64980000D02*
X139040000Y-64980000D01*
X139040000Y-68420000D01*
X129800000Y-68420000D01*
X129800000Y-64980000D01*
%TO.C,C14*%
X138980000Y-77780000D02*
X141220000Y-77780000D01*
X138980000Y-85020000D02*
X138980000Y-77780000D01*
X141220000Y-77780000D02*
X141220000Y-85020000D01*
X141220000Y-85020000D02*
X138980000Y-85020000D01*
%TO.C,C13*%
X133880000Y-77780000D02*
X136120000Y-77780000D01*
X133880000Y-85020000D02*
X133880000Y-77780000D01*
X136120000Y-77780000D02*
X136120000Y-85020000D01*
X136120000Y-85020000D02*
X133880000Y-85020000D01*
%TO.C,C10*%
X119220000Y-84860000D02*
X129380000Y-84860000D01*
X119220000Y-84900000D02*
X129380000Y-84900000D01*
X119221000Y-84780000D02*
X129379000Y-84780000D01*
X119221000Y-84820000D02*
X129379000Y-84820000D01*
X119223000Y-84740000D02*
X129377000Y-84740000D01*
X119224000Y-84700000D02*
X129376000Y-84700000D01*
X119226000Y-84660000D02*
X129374000Y-84660000D01*
X119228000Y-84620000D02*
X129372000Y-84620000D01*
X119230000Y-84580000D02*
X129370000Y-84580000D01*
X119233000Y-84540000D02*
X129367000Y-84540000D01*
X119236000Y-84500000D02*
X129364000Y-84500000D01*
X119239000Y-84460000D02*
X129361000Y-84460000D01*
X119243000Y-84420000D02*
X129357000Y-84420000D01*
X119246000Y-84380000D02*
X129354000Y-84380000D01*
X119251000Y-84340000D02*
X129349000Y-84340000D01*
X119255000Y-84300000D02*
X129345000Y-84300000D01*
X119260000Y-84260000D02*
X129340000Y-84260000D01*
X119265000Y-84220000D02*
X129335000Y-84220000D01*
X119271000Y-84180000D02*
X129329000Y-84180000D01*
X119277000Y-84140000D02*
X129323000Y-84140000D01*
X119283000Y-84100000D02*
X129317000Y-84100000D01*
X119289000Y-84060000D02*
X129311000Y-84060000D01*
X119296000Y-84020000D02*
X129304000Y-84020000D01*
X119303000Y-83980000D02*
X129297000Y-83980000D01*
X119311000Y-83940000D02*
X129289000Y-83940000D01*
X119319000Y-83900000D02*
X129281000Y-83900000D01*
X119327000Y-83860000D02*
X129273000Y-83860000D01*
X119335000Y-83820000D02*
X129265000Y-83820000D01*
X119344000Y-83780000D02*
X129256000Y-83780000D01*
X119353000Y-83740000D02*
X129247000Y-83740000D01*
X119363000Y-83700000D02*
X129237000Y-83700000D01*
X119372000Y-83660000D02*
X129228000Y-83660000D01*
X119383000Y-83620000D02*
X123060000Y-83620000D01*
X119393000Y-83580000D02*
X123060000Y-83580000D01*
X119404000Y-83540000D02*
X123060000Y-83540000D01*
X119415000Y-83500000D02*
X123060000Y-83500000D01*
X119427000Y-83460000D02*
X123060000Y-83460000D01*
X119439000Y-83420000D02*
X123060000Y-83420000D01*
X119451000Y-83380000D02*
X123060000Y-83380000D01*
X119463000Y-83340000D02*
X123060000Y-83340000D01*
X119476000Y-83300000D02*
X123060000Y-83300000D01*
X119490000Y-83260000D02*
X123060000Y-83260000D01*
X119503000Y-83220000D02*
X123060000Y-83220000D01*
X119518000Y-83180000D02*
X123060000Y-83180000D01*
X119532000Y-83140000D02*
X123060000Y-83140000D01*
X119547000Y-83100000D02*
X123060000Y-83100000D01*
X119562000Y-83060000D02*
X123060000Y-83060000D01*
X119578000Y-83020000D02*
X123060000Y-83020000D01*
X119594000Y-82980000D02*
X123060000Y-82980000D01*
X119610000Y-82940000D02*
X123060000Y-82940000D01*
X119627000Y-82900000D02*
X123060000Y-82900000D01*
X119644000Y-82860000D02*
X123060000Y-82860000D01*
X119662000Y-82820000D02*
X123060000Y-82820000D01*
X119680000Y-82780000D02*
X123060000Y-82780000D01*
X119698000Y-82740000D02*
X123060000Y-82740000D01*
X119717000Y-82700000D02*
X123060000Y-82700000D01*
X119736000Y-82660000D02*
X123060000Y-82660000D01*
X119756000Y-82620000D02*
X123060000Y-82620000D01*
X119776000Y-82580000D02*
X123060000Y-82580000D01*
X119796000Y-82540000D02*
X123060000Y-82540000D01*
X119817000Y-82500000D02*
X123060000Y-82500000D01*
X119839000Y-82460000D02*
X123060000Y-82460000D01*
X119861000Y-82420000D02*
X123060000Y-82420000D01*
X119883000Y-82380000D02*
X123060000Y-82380000D01*
X119906000Y-82340000D02*
X123060000Y-82340000D01*
X119929000Y-82300000D02*
X123060000Y-82300000D01*
X119953000Y-82260000D02*
X123060000Y-82260000D01*
X119977000Y-82220000D02*
X123060000Y-82220000D01*
X120002000Y-82180000D02*
X123060000Y-82180000D01*
X120028000Y-82140000D02*
X123060000Y-82140000D01*
X120053000Y-82100000D02*
X123060000Y-82100000D01*
X120080000Y-82060000D02*
X123060000Y-82060000D01*
X120107000Y-82020000D02*
X123060000Y-82020000D01*
X120134000Y-81980000D02*
X123060000Y-81980000D01*
X120162000Y-81940000D02*
X123060000Y-81940000D01*
X120191000Y-81900000D02*
X123060000Y-81900000D01*
X120220000Y-81860000D02*
X123060000Y-81860000D01*
X120250000Y-81820000D02*
X123060000Y-81820000D01*
X120280000Y-81780000D02*
X123060000Y-81780000D01*
X120312000Y-81740000D02*
X123060000Y-81740000D01*
X120343000Y-81700000D02*
X123060000Y-81700000D01*
X120376000Y-81660000D02*
X123060000Y-81660000D01*
X120409000Y-81620000D02*
X123060000Y-81620000D01*
X120442000Y-81580000D02*
X123060000Y-81580000D01*
X120477000Y-81540000D02*
X123060000Y-81540000D01*
X120512000Y-81500000D02*
X123060000Y-81500000D01*
X120548000Y-81460000D02*
X123060000Y-81460000D01*
X120584000Y-81420000D02*
X123060000Y-81420000D01*
X120622000Y-81380000D02*
X123060000Y-81380000D01*
X120660000Y-81340000D02*
X123060000Y-81340000D01*
X120699000Y-81300000D02*
X123060000Y-81300000D01*
X120739000Y-81260000D02*
X123060000Y-81260000D01*
X120780000Y-81220000D02*
X123060000Y-81220000D01*
X120822000Y-81180000D02*
X123060000Y-81180000D01*
X120865000Y-81140000D02*
X125060000Y-81140000D01*
X120909000Y-81100000D02*
X125060000Y-81100000D01*
X120925000Y-89879646D02*
X121925000Y-89879646D01*
X120953000Y-81060000D02*
X125060000Y-81060000D01*
X120999000Y-81020000D02*
X125060000Y-81020000D01*
X121046000Y-80980000D02*
X125060000Y-80980000D01*
X121095000Y-80940000D02*
X125060000Y-80940000D01*
X121144000Y-80900000D02*
X125060000Y-80900000D01*
X121195000Y-80860000D02*
X125060000Y-80860000D01*
X121247000Y-80820000D02*
X125060000Y-80820000D01*
X121300000Y-80780000D02*
X125060000Y-80780000D01*
X121355000Y-80740000D02*
X125060000Y-80740000D01*
X121412000Y-80700000D02*
X125060000Y-80700000D01*
X121425000Y-90379646D02*
X121425000Y-89379646D01*
X121470000Y-80660000D02*
X125060000Y-80660000D01*
X121530000Y-80620000D02*
X125060000Y-80620000D01*
X121592000Y-80580000D02*
X125060000Y-80580000D01*
X121656000Y-80540000D02*
X125060000Y-80540000D01*
X121722000Y-80500000D02*
X125060000Y-80500000D01*
X121790000Y-80460000D02*
X126810000Y-80460000D01*
X121861000Y-80420000D02*
X126739000Y-80420000D01*
X121935000Y-80380000D02*
X126665000Y-80380000D01*
X122012000Y-80340000D02*
X126588000Y-80340000D01*
X122092000Y-80300000D02*
X126508000Y-80300000D01*
X122176000Y-80260000D02*
X126424000Y-80260000D01*
X122263000Y-80220000D02*
X126337000Y-80220000D01*
X122356000Y-80180000D02*
X126244000Y-80180000D01*
X122454000Y-80140000D02*
X126146000Y-80140000D01*
X122558000Y-80100000D02*
X126042000Y-80100000D01*
X122670000Y-80060000D02*
X125930000Y-80060000D01*
X122791000Y-80020000D02*
X125809000Y-80020000D01*
X122923000Y-79980000D02*
X125677000Y-79980000D01*
X123070000Y-79940000D02*
X125530000Y-79940000D01*
X123238000Y-79900000D02*
X125362000Y-79900000D01*
X123438000Y-79860000D02*
X125162000Y-79860000D01*
X123701000Y-79820000D02*
X124899000Y-79820000D01*
X125540000Y-82980000D02*
X129006000Y-82980000D01*
X125540000Y-83020000D02*
X129022000Y-83020000D01*
X125540000Y-83060000D02*
X129038000Y-83060000D01*
X125540000Y-83100000D02*
X129053000Y-83100000D01*
X125540000Y-83140000D02*
X129068000Y-83140000D01*
X125540000Y-83180000D02*
X129082000Y-83180000D01*
X125540000Y-83220000D02*
X129097000Y-83220000D01*
X125540000Y-83260000D02*
X129110000Y-83260000D01*
X125540000Y-83300000D02*
X129124000Y-83300000D01*
X125540000Y-83340000D02*
X129137000Y-83340000D01*
X125540000Y-83380000D02*
X129149000Y-83380000D01*
X125540000Y-83420000D02*
X129161000Y-83420000D01*
X125540000Y-83460000D02*
X129173000Y-83460000D01*
X125540000Y-83500000D02*
X129185000Y-83500000D01*
X125540000Y-83540000D02*
X129196000Y-83540000D01*
X125540000Y-83580000D02*
X129207000Y-83580000D01*
X125540000Y-83620000D02*
X129217000Y-83620000D01*
X127540000Y-81020000D02*
X127601000Y-81020000D01*
X127540000Y-81060000D02*
X127647000Y-81060000D01*
X127540000Y-81100000D02*
X127691000Y-81100000D01*
X127540000Y-81140000D02*
X127735000Y-81140000D01*
X127540000Y-81180000D02*
X127778000Y-81180000D01*
X127540000Y-81220000D02*
X127820000Y-81220000D01*
X127540000Y-81260000D02*
X127861000Y-81260000D01*
X127540000Y-81300000D02*
X127901000Y-81300000D01*
X127540000Y-81340000D02*
X127940000Y-81340000D01*
X127540000Y-81380000D02*
X127978000Y-81380000D01*
X127540000Y-81420000D02*
X128016000Y-81420000D01*
X127540000Y-81460000D02*
X128052000Y-81460000D01*
X127540000Y-81500000D02*
X128088000Y-81500000D01*
X127540000Y-81540000D02*
X128123000Y-81540000D01*
X127540000Y-81580000D02*
X128158000Y-81580000D01*
X127540000Y-81620000D02*
X128191000Y-81620000D01*
X127540000Y-81660000D02*
X128224000Y-81660000D01*
X127540000Y-81700000D02*
X128257000Y-81700000D01*
X127540000Y-81740000D02*
X128288000Y-81740000D01*
X127540000Y-81780000D02*
X128320000Y-81780000D01*
X127540000Y-81820000D02*
X128350000Y-81820000D01*
X127540000Y-81860000D02*
X128380000Y-81860000D01*
X127540000Y-81900000D02*
X128409000Y-81900000D01*
X127540000Y-81940000D02*
X128438000Y-81940000D01*
X127540000Y-81980000D02*
X128466000Y-81980000D01*
X127540000Y-82020000D02*
X128493000Y-82020000D01*
X127540000Y-82060000D02*
X128520000Y-82060000D01*
X127540000Y-82100000D02*
X128547000Y-82100000D01*
X127540000Y-82140000D02*
X128572000Y-82140000D01*
X127540000Y-82180000D02*
X128598000Y-82180000D01*
X127540000Y-82220000D02*
X128623000Y-82220000D01*
X127540000Y-82260000D02*
X128647000Y-82260000D01*
X127540000Y-82300000D02*
X128671000Y-82300000D01*
X127540000Y-82340000D02*
X128694000Y-82340000D01*
X127540000Y-82380000D02*
X128717000Y-82380000D01*
X127540000Y-82420000D02*
X128739000Y-82420000D01*
X127540000Y-82460000D02*
X128761000Y-82460000D01*
X127540000Y-82500000D02*
X128783000Y-82500000D01*
X127540000Y-82540000D02*
X128804000Y-82540000D01*
X127540000Y-82580000D02*
X128824000Y-82580000D01*
X127540000Y-82620000D02*
X128844000Y-82620000D01*
X127540000Y-82660000D02*
X128864000Y-82660000D01*
X127540000Y-82700000D02*
X128883000Y-82700000D01*
X127540000Y-82740000D02*
X128902000Y-82740000D01*
X127540000Y-82780000D02*
X128920000Y-82780000D01*
X127540000Y-82820000D02*
X128938000Y-82820000D01*
X127540000Y-82860000D02*
X128956000Y-82860000D01*
X127540000Y-82900000D02*
X128973000Y-82900000D01*
X127540000Y-82940000D02*
X128990000Y-82940000D01*
X121040000Y-88848012D02*
G75*
G02*
X122586902Y-89724904I3260000J3948012D01*
G01*
%TO.C,C5*%
X116980000Y-38280000D02*
X124220000Y-38280000D01*
X116980000Y-40520000D02*
X116980000Y-38280000D01*
X124220000Y-38280000D02*
X124220000Y-40520000D01*
X124220000Y-40520000D02*
X116980000Y-40520000D01*
%TO.C,R9*%
X104000000Y-40340000D02*
X104000000Y-42300000D01*
X104000000Y-53500000D02*
X104000000Y-51540000D01*
X102280000Y-51540000D02*
X105720000Y-51540000D01*
X105720000Y-42300000D01*
X102280000Y-42300000D01*
X102280000Y-51540000D01*
%TO.C,D2*%
X90624000Y-88461000D02*
X90624000Y-82619000D01*
X89481000Y-89604000D02*
G75*
G02*
X90624000Y-82619000I-2921000J4064000D01*
G01*
%TO.C,C11*%
X107880000Y-77780000D02*
X110120000Y-77780000D01*
X107880000Y-85020000D02*
X107880000Y-77780000D01*
X110120000Y-77780000D02*
X110120000Y-85020000D01*
X110120000Y-85020000D02*
X107880000Y-85020000D01*
%TO.C,R1*%
X109500000Y-44540000D02*
X109500000Y-46500000D01*
X109500000Y-57700000D02*
X109500000Y-55740000D01*
X107780000Y-55740000D02*
X111220000Y-55740000D01*
X111220000Y-46500000D01*
X107780000Y-46500000D01*
X107780000Y-55740000D01*
%TO.C,J4*%
X90440000Y-34880000D02*
X90440000Y-33500000D01*
X91820000Y-34880000D02*
X90440000Y-34880000D01*
X93090000Y-32120000D02*
X98280000Y-32120000D01*
X93090000Y-34880000D02*
X93090000Y-32120000D01*
X93090000Y-34880000D02*
X98280000Y-34880000D01*
X98280000Y-34880000D02*
X98280000Y-32120000D01*
%TO.C,Q2*%
X106150000Y-71570000D02*
X106150000Y-75170000D01*
X106158259Y-71558125D02*
G75*
G02*
X110450000Y-72550000I1841741J-1811875D01*
G01*
X110450000Y-74150000D02*
G75*
G02*
X106172316Y-75178445I-2450000J780000D01*
G01*
%TO.C,C3*%
X132860000Y-50790000D02*
X131331000Y-50790000D01*
X132860000Y-50830000D02*
X131335000Y-50830000D01*
X132860000Y-50870000D02*
X131340000Y-50870000D01*
X132860000Y-50910000D02*
X131345000Y-50910000D01*
X132860000Y-50950000D02*
X131351000Y-50950000D01*
X132860000Y-50990000D02*
X131357000Y-50990000D01*
X132860000Y-51030000D02*
X131364000Y-51030000D01*
X132860000Y-51070000D02*
X131372000Y-51070000D01*
X132860000Y-51110000D02*
X131381000Y-51110000D01*
X132860000Y-51150000D02*
X131390000Y-51150000D01*
X132860000Y-51190000D02*
X131399000Y-51190000D01*
X132860000Y-51230000D02*
X131410000Y-51230000D01*
X132860000Y-51270000D02*
X131421000Y-51270000D01*
X132860000Y-51310000D02*
X131433000Y-51310000D01*
X132860000Y-51350000D02*
X131445000Y-51350000D01*
X132860000Y-51390000D02*
X131458000Y-51390000D01*
X132860000Y-51430000D02*
X131472000Y-51430000D01*
X132860000Y-51470000D02*
X131487000Y-51470000D01*
X132860000Y-51510000D02*
X131502000Y-51510000D01*
X132860000Y-51550000D02*
X131518000Y-51550000D01*
X132860000Y-51590000D02*
X131535000Y-51590000D01*
X132860000Y-51630000D02*
X131553000Y-51630000D01*
X132860000Y-51670000D02*
X131571000Y-51670000D01*
X132860000Y-51710000D02*
X131591000Y-51710000D01*
X132860000Y-51750000D02*
X131611000Y-51750000D01*
X132860000Y-51790000D02*
X131632000Y-51790000D01*
X132860000Y-51830000D02*
X131654000Y-51830000D01*
X132860000Y-51870000D02*
X131677000Y-51870000D01*
X132860000Y-51910000D02*
X131701000Y-51910000D01*
X132860000Y-51950000D02*
X131725000Y-51950000D01*
X132860000Y-51990000D02*
X131751000Y-51990000D01*
X132860000Y-52030000D02*
X131778000Y-52030000D01*
X132860000Y-52070000D02*
X131806000Y-52070000D01*
X132860000Y-52110000D02*
X131835000Y-52110000D01*
X132860000Y-52150000D02*
X131865000Y-52150000D01*
X132860000Y-52190000D02*
X131897000Y-52190000D01*
X132860000Y-52230000D02*
X131930000Y-52230000D01*
X132860000Y-52270000D02*
X131964000Y-52270000D01*
X132860000Y-52310000D02*
X131999000Y-52310000D01*
X132860000Y-52350000D02*
X132036000Y-52350000D01*
X132860000Y-52390000D02*
X132075000Y-52390000D01*
X132860000Y-52430000D02*
X132115000Y-52430000D01*
X132860000Y-52470000D02*
X132157000Y-52470000D01*
X132860000Y-52510000D02*
X132201000Y-52510000D01*
X132860000Y-52550000D02*
X132248000Y-52550000D01*
X132860000Y-52590000D02*
X132296000Y-52590000D01*
X132860000Y-52630000D02*
X132347000Y-52630000D01*
X132860000Y-52670000D02*
X132401000Y-52670000D01*
X132860000Y-52710000D02*
X132457000Y-52710000D01*
X132860000Y-52750000D02*
X132517000Y-52750000D01*
X132860000Y-52790000D02*
X132581000Y-52790000D01*
X132860000Y-52830000D02*
X132649000Y-52830000D01*
X134183000Y-53150000D02*
X133617000Y-53150000D01*
X134417000Y-53110000D02*
X133383000Y-53110000D01*
X134577000Y-53070000D02*
X133223000Y-53070000D01*
X134705000Y-53030000D02*
X133095000Y-53030000D01*
X134814000Y-52990000D02*
X132986000Y-52990000D01*
X134911000Y-52950000D02*
X132889000Y-52950000D01*
X134998000Y-52910000D02*
X132802000Y-52910000D01*
X135077000Y-52870000D02*
X132723000Y-52870000D01*
X135151000Y-52830000D02*
X134940000Y-52830000D01*
X135219000Y-52790000D02*
X134940000Y-52790000D01*
X135283000Y-52750000D02*
X134940000Y-52750000D01*
X135343000Y-52710000D02*
X134940000Y-52710000D01*
X135375000Y-47745225D02*
X135375000Y-48245225D01*
X135399000Y-52670000D02*
X134940000Y-52670000D01*
X135453000Y-52630000D02*
X134940000Y-52630000D01*
X135504000Y-52590000D02*
X134940000Y-52590000D01*
X135552000Y-52550000D02*
X134940000Y-52550000D01*
X135599000Y-52510000D02*
X134940000Y-52510000D01*
X135625000Y-47995225D02*
X135125000Y-47995225D01*
X135643000Y-52470000D02*
X134940000Y-52470000D01*
X135685000Y-52430000D02*
X134940000Y-52430000D01*
X135725000Y-52390000D02*
X134940000Y-52390000D01*
X135764000Y-52350000D02*
X134940000Y-52350000D01*
X135801000Y-52310000D02*
X134940000Y-52310000D01*
X135836000Y-52270000D02*
X134940000Y-52270000D01*
X135870000Y-52230000D02*
X134940000Y-52230000D01*
X135903000Y-52190000D02*
X134940000Y-52190000D01*
X135935000Y-52150000D02*
X134940000Y-52150000D01*
X135965000Y-52110000D02*
X134940000Y-52110000D01*
X135994000Y-52070000D02*
X134940000Y-52070000D01*
X136022000Y-52030000D02*
X134940000Y-52030000D01*
X136049000Y-51990000D02*
X134940000Y-51990000D01*
X136075000Y-51950000D02*
X134940000Y-51950000D01*
X136099000Y-51910000D02*
X134940000Y-51910000D01*
X136123000Y-51870000D02*
X134940000Y-51870000D01*
X136146000Y-51830000D02*
X134940000Y-51830000D01*
X136168000Y-51790000D02*
X134940000Y-51790000D01*
X136189000Y-51750000D02*
X134940000Y-51750000D01*
X136209000Y-51710000D02*
X134940000Y-51710000D01*
X136229000Y-51670000D02*
X134940000Y-51670000D01*
X136247000Y-51630000D02*
X134940000Y-51630000D01*
X136265000Y-51590000D02*
X134940000Y-51590000D01*
X136282000Y-51550000D02*
X134940000Y-51550000D01*
X136298000Y-51510000D02*
X134940000Y-51510000D01*
X136313000Y-51470000D02*
X134940000Y-51470000D01*
X136328000Y-51430000D02*
X134940000Y-51430000D01*
X136342000Y-51390000D02*
X134940000Y-51390000D01*
X136355000Y-51350000D02*
X134940000Y-51350000D01*
X136367000Y-51310000D02*
X134940000Y-51310000D01*
X136379000Y-51270000D02*
X134940000Y-51270000D01*
X136390000Y-51230000D02*
X134940000Y-51230000D01*
X136401000Y-51190000D02*
X134940000Y-51190000D01*
X136410000Y-51150000D02*
X134940000Y-51150000D01*
X136419000Y-51110000D02*
X134940000Y-51110000D01*
X136428000Y-51070000D02*
X134940000Y-51070000D01*
X136436000Y-51030000D02*
X134940000Y-51030000D01*
X136443000Y-50990000D02*
X134940000Y-50990000D01*
X136449000Y-50950000D02*
X134940000Y-50950000D01*
X136455000Y-50910000D02*
X134940000Y-50910000D01*
X136460000Y-50870000D02*
X134940000Y-50870000D01*
X136465000Y-50830000D02*
X134940000Y-50830000D01*
X136469000Y-50790000D02*
X134940000Y-50790000D01*
X136472000Y-50750000D02*
X131328000Y-50750000D01*
X136475000Y-50710000D02*
X131325000Y-50710000D01*
X136477000Y-50670000D02*
X131323000Y-50670000D01*
X136479000Y-50630000D02*
X131321000Y-50630000D01*
X136480000Y-50550000D02*
X131320000Y-50550000D01*
X136480000Y-50590000D02*
X131320000Y-50590000D01*
X136520000Y-50550000D02*
G75*
G02*
X131280000Y-50550000I-2620000J0D01*
G01*
X131280000Y-50550000D02*
G75*
G02*
X136520000Y-50550000I2620000J0D01*
G01*
%TO.C,Q1*%
X112320000Y-41100000D02*
X112320000Y-37500000D01*
X108020000Y-38520000D02*
G75*
G02*
X112297684Y-37491555I2450000J-780000D01*
G01*
X112311741Y-41111875D02*
G75*
G02*
X108020000Y-40120000I-1841741J1811875D01*
G01*
%TO.C,R7*%
X84180000Y-71600000D02*
X86140000Y-71600000D01*
X97340000Y-71600000D02*
X95380000Y-71600000D01*
X86140000Y-69880000D02*
X95380000Y-69880000D01*
X95380000Y-73320000D01*
X86140000Y-73320000D01*
X86140000Y-69880000D01*
%TO.C,U4*%
X106390000Y-86990000D02*
X116610000Y-86990000D01*
X106390000Y-91610000D02*
X106390000Y-86990000D01*
X109650000Y-91610000D02*
X109650000Y-90230000D01*
X113350000Y-91610000D02*
X113350000Y-90230000D01*
X116610000Y-86990000D02*
X116610000Y-91610000D01*
X116610000Y-90230000D02*
X106390000Y-90230000D01*
X116610000Y-91610000D02*
X106390000Y-91610000D01*
%TO.C,R5*%
X84220000Y-76400000D02*
X86180000Y-76400000D01*
X97380000Y-76400000D02*
X95420000Y-76400000D01*
X86180000Y-74680000D02*
X95420000Y-74680000D01*
X95420000Y-78120000D01*
X86180000Y-78120000D01*
X86180000Y-74680000D01*
%TO.C,J1*%
X148640000Y-65112500D02*
X148640000Y-75332500D01*
X148640000Y-75332500D02*
X157360000Y-75332500D01*
X153250000Y-64312500D02*
X153850000Y-64312500D01*
X153550000Y-64912500D02*
X153250000Y-64312500D01*
X153850000Y-64312500D02*
X153550000Y-64912500D01*
X157360000Y-65112500D02*
X148640000Y-65112500D01*
X157360000Y-75332500D02*
X157360000Y-65112500D01*
%TO.C,C12*%
X147560000Y-87760000D02*
X146110000Y-87760000D01*
X147560000Y-87800000D02*
X146127000Y-87800000D01*
X147560000Y-87840000D02*
X146144000Y-87840000D01*
X147560000Y-87880000D02*
X146162000Y-87880000D01*
X147560000Y-87920000D02*
X146180000Y-87920000D01*
X147560000Y-87960000D02*
X146198000Y-87960000D01*
X147560000Y-88000000D02*
X146217000Y-88000000D01*
X147560000Y-88040000D02*
X146236000Y-88040000D01*
X147560000Y-88080000D02*
X146256000Y-88080000D01*
X147560000Y-88120000D02*
X146276000Y-88120000D01*
X147560000Y-88160000D02*
X146296000Y-88160000D01*
X147560000Y-88200000D02*
X146317000Y-88200000D01*
X147560000Y-88240000D02*
X146339000Y-88240000D01*
X147560000Y-88280000D02*
X146361000Y-88280000D01*
X147560000Y-88320000D02*
X146383000Y-88320000D01*
X147560000Y-88360000D02*
X146406000Y-88360000D01*
X147560000Y-88400000D02*
X146429000Y-88400000D01*
X147560000Y-88440000D02*
X146453000Y-88440000D01*
X147560000Y-88480000D02*
X146477000Y-88480000D01*
X147560000Y-88520000D02*
X146502000Y-88520000D01*
X147560000Y-88560000D02*
X146528000Y-88560000D01*
X147560000Y-88600000D02*
X146553000Y-88600000D01*
X147560000Y-88640000D02*
X146580000Y-88640000D01*
X147560000Y-88680000D02*
X146607000Y-88680000D01*
X147560000Y-88720000D02*
X146634000Y-88720000D01*
X147560000Y-88760000D02*
X146662000Y-88760000D01*
X147560000Y-88800000D02*
X146691000Y-88800000D01*
X147560000Y-88840000D02*
X146720000Y-88840000D01*
X147560000Y-88880000D02*
X146750000Y-88880000D01*
X147560000Y-88920000D02*
X146780000Y-88920000D01*
X147560000Y-88960000D02*
X146812000Y-88960000D01*
X147560000Y-89000000D02*
X146843000Y-89000000D01*
X147560000Y-89040000D02*
X146876000Y-89040000D01*
X147560000Y-89080000D02*
X146909000Y-89080000D01*
X147560000Y-89120000D02*
X146942000Y-89120000D01*
X147560000Y-89160000D02*
X146977000Y-89160000D01*
X147560000Y-89200000D02*
X147012000Y-89200000D01*
X147560000Y-89240000D02*
X147048000Y-89240000D01*
X147560000Y-89280000D02*
X147084000Y-89280000D01*
X147560000Y-89320000D02*
X147122000Y-89320000D01*
X147560000Y-89360000D02*
X147160000Y-89360000D01*
X147560000Y-89400000D02*
X147199000Y-89400000D01*
X147560000Y-89440000D02*
X147239000Y-89440000D01*
X147560000Y-89480000D02*
X147280000Y-89480000D01*
X147560000Y-89520000D02*
X147322000Y-89520000D01*
X147560000Y-89560000D02*
X147365000Y-89560000D01*
X147560000Y-89600000D02*
X147409000Y-89600000D01*
X147560000Y-89640000D02*
X147453000Y-89640000D01*
X147560000Y-89680000D02*
X147499000Y-89680000D01*
X149560000Y-87080000D02*
X145883000Y-87080000D01*
X149560000Y-87120000D02*
X145893000Y-87120000D01*
X149560000Y-87160000D02*
X145904000Y-87160000D01*
X149560000Y-87200000D02*
X145915000Y-87200000D01*
X149560000Y-87240000D02*
X145927000Y-87240000D01*
X149560000Y-87280000D02*
X145939000Y-87280000D01*
X149560000Y-87320000D02*
X145951000Y-87320000D01*
X149560000Y-87360000D02*
X145963000Y-87360000D01*
X149560000Y-87400000D02*
X145976000Y-87400000D01*
X149560000Y-87440000D02*
X145990000Y-87440000D01*
X149560000Y-87480000D02*
X146003000Y-87480000D01*
X149560000Y-87520000D02*
X146018000Y-87520000D01*
X149560000Y-87560000D02*
X146032000Y-87560000D01*
X149560000Y-87600000D02*
X146047000Y-87600000D01*
X149560000Y-87640000D02*
X146062000Y-87640000D01*
X149560000Y-87680000D02*
X146078000Y-87680000D01*
X149560000Y-87720000D02*
X146094000Y-87720000D01*
X151399000Y-90880000D02*
X150201000Y-90880000D01*
X151662000Y-90840000D02*
X149938000Y-90840000D01*
X151862000Y-90800000D02*
X149738000Y-90800000D01*
X152030000Y-90760000D02*
X149570000Y-90760000D01*
X152177000Y-90720000D02*
X149423000Y-90720000D01*
X152309000Y-90680000D02*
X149291000Y-90680000D01*
X152430000Y-90640000D02*
X149170000Y-90640000D01*
X152542000Y-90600000D02*
X149058000Y-90600000D01*
X152646000Y-90560000D02*
X148954000Y-90560000D01*
X152744000Y-90520000D02*
X148856000Y-90520000D01*
X152837000Y-90480000D02*
X148763000Y-90480000D01*
X152924000Y-90440000D02*
X148676000Y-90440000D01*
X153008000Y-90400000D02*
X148592000Y-90400000D01*
X153088000Y-90360000D02*
X148512000Y-90360000D01*
X153165000Y-90320000D02*
X148435000Y-90320000D01*
X153239000Y-90280000D02*
X148361000Y-90280000D01*
X153310000Y-90240000D02*
X148290000Y-90240000D01*
X153378000Y-90200000D02*
X150040000Y-90200000D01*
X153444000Y-90160000D02*
X150040000Y-90160000D01*
X153508000Y-90120000D02*
X150040000Y-90120000D01*
X153570000Y-90080000D02*
X150040000Y-90080000D01*
X153630000Y-90040000D02*
X150040000Y-90040000D01*
X153675000Y-80320354D02*
X153675000Y-81320354D01*
X153688000Y-90000000D02*
X150040000Y-90000000D01*
X153745000Y-89960000D02*
X150040000Y-89960000D01*
X153800000Y-89920000D02*
X150040000Y-89920000D01*
X153853000Y-89880000D02*
X150040000Y-89880000D01*
X153905000Y-89840000D02*
X150040000Y-89840000D01*
X153956000Y-89800000D02*
X150040000Y-89800000D01*
X154005000Y-89760000D02*
X150040000Y-89760000D01*
X154054000Y-89720000D02*
X150040000Y-89720000D01*
X154101000Y-89680000D02*
X150040000Y-89680000D01*
X154147000Y-89640000D02*
X150040000Y-89640000D01*
X154175000Y-80820354D02*
X153175000Y-80820354D01*
X154191000Y-89600000D02*
X150040000Y-89600000D01*
X154235000Y-89560000D02*
X150040000Y-89560000D01*
X154278000Y-89520000D02*
X152040000Y-89520000D01*
X154320000Y-89480000D02*
X152040000Y-89480000D01*
X154361000Y-89440000D02*
X152040000Y-89440000D01*
X154401000Y-89400000D02*
X152040000Y-89400000D01*
X154440000Y-89360000D02*
X152040000Y-89360000D01*
X154478000Y-89320000D02*
X152040000Y-89320000D01*
X154516000Y-89280000D02*
X152040000Y-89280000D01*
X154552000Y-89240000D02*
X152040000Y-89240000D01*
X154588000Y-89200000D02*
X152040000Y-89200000D01*
X154623000Y-89160000D02*
X152040000Y-89160000D01*
X154658000Y-89120000D02*
X152040000Y-89120000D01*
X154691000Y-89080000D02*
X152040000Y-89080000D01*
X154724000Y-89040000D02*
X152040000Y-89040000D01*
X154757000Y-89000000D02*
X152040000Y-89000000D01*
X154788000Y-88960000D02*
X152040000Y-88960000D01*
X154820000Y-88920000D02*
X152040000Y-88920000D01*
X154850000Y-88880000D02*
X152040000Y-88880000D01*
X154880000Y-88840000D02*
X152040000Y-88840000D01*
X154909000Y-88800000D02*
X152040000Y-88800000D01*
X154938000Y-88760000D02*
X152040000Y-88760000D01*
X154966000Y-88720000D02*
X152040000Y-88720000D01*
X154993000Y-88680000D02*
X152040000Y-88680000D01*
X155020000Y-88640000D02*
X152040000Y-88640000D01*
X155047000Y-88600000D02*
X152040000Y-88600000D01*
X155072000Y-88560000D02*
X152040000Y-88560000D01*
X155098000Y-88520000D02*
X152040000Y-88520000D01*
X155123000Y-88480000D02*
X152040000Y-88480000D01*
X155147000Y-88440000D02*
X152040000Y-88440000D01*
X155171000Y-88400000D02*
X152040000Y-88400000D01*
X155194000Y-88360000D02*
X152040000Y-88360000D01*
X155217000Y-88320000D02*
X152040000Y-88320000D01*
X155239000Y-88280000D02*
X152040000Y-88280000D01*
X155261000Y-88240000D02*
X152040000Y-88240000D01*
X155283000Y-88200000D02*
X152040000Y-88200000D01*
X155304000Y-88160000D02*
X152040000Y-88160000D01*
X155324000Y-88120000D02*
X152040000Y-88120000D01*
X155344000Y-88080000D02*
X152040000Y-88080000D01*
X155364000Y-88040000D02*
X152040000Y-88040000D01*
X155383000Y-88000000D02*
X152040000Y-88000000D01*
X155402000Y-87960000D02*
X152040000Y-87960000D01*
X155420000Y-87920000D02*
X152040000Y-87920000D01*
X155438000Y-87880000D02*
X152040000Y-87880000D01*
X155456000Y-87840000D02*
X152040000Y-87840000D01*
X155473000Y-87800000D02*
X152040000Y-87800000D01*
X155490000Y-87760000D02*
X152040000Y-87760000D01*
X155506000Y-87720000D02*
X152040000Y-87720000D01*
X155522000Y-87680000D02*
X152040000Y-87680000D01*
X155538000Y-87640000D02*
X152040000Y-87640000D01*
X155553000Y-87600000D02*
X152040000Y-87600000D01*
X155568000Y-87560000D02*
X152040000Y-87560000D01*
X155582000Y-87520000D02*
X152040000Y-87520000D01*
X155597000Y-87480000D02*
X152040000Y-87480000D01*
X155610000Y-87440000D02*
X152040000Y-87440000D01*
X155624000Y-87400000D02*
X152040000Y-87400000D01*
X155637000Y-87360000D02*
X152040000Y-87360000D01*
X155649000Y-87320000D02*
X152040000Y-87320000D01*
X155661000Y-87280000D02*
X152040000Y-87280000D01*
X155673000Y-87240000D02*
X152040000Y-87240000D01*
X155685000Y-87200000D02*
X152040000Y-87200000D01*
X155696000Y-87160000D02*
X152040000Y-87160000D01*
X155707000Y-87120000D02*
X152040000Y-87120000D01*
X155717000Y-87080000D02*
X152040000Y-87080000D01*
X155728000Y-87040000D02*
X145872000Y-87040000D01*
X155737000Y-87000000D02*
X145863000Y-87000000D01*
X155747000Y-86960000D02*
X145853000Y-86960000D01*
X155756000Y-86920000D02*
X145844000Y-86920000D01*
X155765000Y-86880000D02*
X145835000Y-86880000D01*
X155773000Y-86840000D02*
X145827000Y-86840000D01*
X155781000Y-86800000D02*
X145819000Y-86800000D01*
X155789000Y-86760000D02*
X145811000Y-86760000D01*
X155797000Y-86720000D02*
X145803000Y-86720000D01*
X155804000Y-86680000D02*
X145796000Y-86680000D01*
X155811000Y-86640000D02*
X145789000Y-86640000D01*
X155817000Y-86600000D02*
X145783000Y-86600000D01*
X155823000Y-86560000D02*
X145777000Y-86560000D01*
X155829000Y-86520000D02*
X145771000Y-86520000D01*
X155835000Y-86480000D02*
X145765000Y-86480000D01*
X155840000Y-86440000D02*
X145760000Y-86440000D01*
X155845000Y-86400000D02*
X145755000Y-86400000D01*
X155849000Y-86360000D02*
X145751000Y-86360000D01*
X155854000Y-86320000D02*
X145746000Y-86320000D01*
X155857000Y-86280000D02*
X145743000Y-86280000D01*
X155861000Y-86240000D02*
X145739000Y-86240000D01*
X155864000Y-86200000D02*
X145736000Y-86200000D01*
X155867000Y-86160000D02*
X145733000Y-86160000D01*
X155870000Y-86120000D02*
X145730000Y-86120000D01*
X155872000Y-86080000D02*
X145728000Y-86080000D01*
X155874000Y-86040000D02*
X145726000Y-86040000D01*
X155876000Y-86000000D02*
X145724000Y-86000000D01*
X155877000Y-85960000D02*
X145723000Y-85960000D01*
X155879000Y-85880000D02*
X145721000Y-85880000D01*
X155879000Y-85920000D02*
X145721000Y-85920000D01*
X155880000Y-85800000D02*
X145720000Y-85800000D01*
X155880000Y-85840000D02*
X145720000Y-85840000D01*
X154060000Y-81851988D02*
G75*
G02*
X152513098Y-80975096I-3260000J-3948012D01*
G01*
%TO.C,C7*%
X132880000Y-55480000D02*
X135120000Y-55480000D01*
X132880000Y-62720000D02*
X132880000Y-55480000D01*
X135120000Y-55480000D02*
X135120000Y-62720000D01*
X135120000Y-62720000D02*
X132880000Y-62720000D01*
%TO.C,J5*%
X109580000Y-34880000D02*
X109580000Y-33500000D01*
X110960000Y-34880000D02*
X109580000Y-34880000D01*
X112230000Y-32120000D02*
X117420000Y-32120000D01*
X112230000Y-34880000D02*
X112230000Y-32120000D01*
X112230000Y-34880000D02*
X117420000Y-34880000D01*
X117420000Y-34880000D02*
X117420000Y-32120000D01*
%TO.C,C9*%
X112880000Y-77780000D02*
X115120000Y-77780000D01*
X112880000Y-85020000D02*
X112880000Y-77780000D01*
X115120000Y-77780000D02*
X115120000Y-85020000D01*
X115120000Y-85020000D02*
X112880000Y-85020000D01*
%TO.C,J2*%
X67480000Y-36840000D02*
X67480000Y-37840000D01*
X67480000Y-37840000D02*
X68480000Y-37340000D01*
X68480000Y-37340000D02*
X67480000Y-36840000D01*
X68870000Y-32130000D02*
X77990000Y-32130000D01*
X68870000Y-40370000D02*
X70180000Y-40370000D01*
X68870000Y-52710000D02*
X68870000Y-32130000D01*
X70180000Y-33430000D02*
X76680000Y-33430000D01*
X70180000Y-40370000D02*
X70180000Y-33430000D01*
X70180000Y-44470000D02*
X68870000Y-44470000D01*
X70180000Y-51410000D02*
X70180000Y-44470000D01*
X76680000Y-33430000D02*
X76680000Y-51410000D01*
X76680000Y-51410000D02*
X70180000Y-51410000D01*
X77990000Y-32130000D02*
X77990000Y-52710000D01*
X77990000Y-52710000D02*
X68870000Y-52710000D01*
%TO.C,J8*%
X68990000Y-67690000D02*
X68990000Y-77910000D01*
X68990000Y-77910000D02*
X77710000Y-77910000D01*
X72500000Y-78710000D02*
X72800000Y-78110000D01*
X72800000Y-78110000D02*
X73100000Y-78710000D01*
X73100000Y-78710000D02*
X72500000Y-78710000D01*
X77710000Y-67690000D02*
X68990000Y-67690000D01*
X77710000Y-77910000D02*
X77710000Y-67690000D01*
%TO.C,C15*%
X80860000Y-40287856D02*
X79410000Y-40287856D01*
X80860000Y-40327856D02*
X79427000Y-40327856D01*
X80860000Y-40367856D02*
X79444000Y-40367856D01*
X80860000Y-40407856D02*
X79462000Y-40407856D01*
X80860000Y-40447856D02*
X79480000Y-40447856D01*
X80860000Y-40487856D02*
X79498000Y-40487856D01*
X80860000Y-40527856D02*
X79517000Y-40527856D01*
X80860000Y-40567856D02*
X79536000Y-40567856D01*
X80860000Y-40607856D02*
X79556000Y-40607856D01*
X80860000Y-40647856D02*
X79576000Y-40647856D01*
X80860000Y-40687856D02*
X79596000Y-40687856D01*
X80860000Y-40727856D02*
X79617000Y-40727856D01*
X80860000Y-40767856D02*
X79639000Y-40767856D01*
X80860000Y-40807856D02*
X79661000Y-40807856D01*
X80860000Y-40847856D02*
X79683000Y-40847856D01*
X80860000Y-40887856D02*
X79706000Y-40887856D01*
X80860000Y-40927856D02*
X79729000Y-40927856D01*
X80860000Y-40967856D02*
X79753000Y-40967856D01*
X80860000Y-41007856D02*
X79777000Y-41007856D01*
X80860000Y-41047856D02*
X79802000Y-41047856D01*
X80860000Y-41087856D02*
X79828000Y-41087856D01*
X80860000Y-41127856D02*
X79853000Y-41127856D01*
X80860000Y-41167856D02*
X79880000Y-41167856D01*
X80860000Y-41207856D02*
X79907000Y-41207856D01*
X80860000Y-41247856D02*
X79934000Y-41247856D01*
X80860000Y-41287856D02*
X79962000Y-41287856D01*
X80860000Y-41327856D02*
X79991000Y-41327856D01*
X80860000Y-41367856D02*
X80020000Y-41367856D01*
X80860000Y-41407856D02*
X80050000Y-41407856D01*
X80860000Y-41447856D02*
X80080000Y-41447856D01*
X80860000Y-41487856D02*
X80112000Y-41487856D01*
X80860000Y-41527856D02*
X80143000Y-41527856D01*
X80860000Y-41567856D02*
X80176000Y-41567856D01*
X80860000Y-41607856D02*
X80209000Y-41607856D01*
X80860000Y-41647856D02*
X80242000Y-41647856D01*
X80860000Y-41687856D02*
X80277000Y-41687856D01*
X80860000Y-41727856D02*
X80312000Y-41727856D01*
X80860000Y-41767856D02*
X80348000Y-41767856D01*
X80860000Y-41807856D02*
X80384000Y-41807856D01*
X80860000Y-41847856D02*
X80422000Y-41847856D01*
X80860000Y-41887856D02*
X80460000Y-41887856D01*
X80860000Y-41927856D02*
X80499000Y-41927856D01*
X80860000Y-41967856D02*
X80539000Y-41967856D01*
X80860000Y-42007856D02*
X80580000Y-42007856D01*
X80860000Y-42047856D02*
X80622000Y-42047856D01*
X80860000Y-42087856D02*
X80665000Y-42087856D01*
X80860000Y-42127856D02*
X80709000Y-42127856D01*
X80860000Y-42167856D02*
X80753000Y-42167856D01*
X80860000Y-42207856D02*
X80799000Y-42207856D01*
X82860000Y-39607856D02*
X79183000Y-39607856D01*
X82860000Y-39647856D02*
X79193000Y-39647856D01*
X82860000Y-39687856D02*
X79204000Y-39687856D01*
X82860000Y-39727856D02*
X79215000Y-39727856D01*
X82860000Y-39767856D02*
X79227000Y-39767856D01*
X82860000Y-39807856D02*
X79239000Y-39807856D01*
X82860000Y-39847856D02*
X79251000Y-39847856D01*
X82860000Y-39887856D02*
X79263000Y-39887856D01*
X82860000Y-39927856D02*
X79276000Y-39927856D01*
X82860000Y-39967856D02*
X79290000Y-39967856D01*
X82860000Y-40007856D02*
X79303000Y-40007856D01*
X82860000Y-40047856D02*
X79318000Y-40047856D01*
X82860000Y-40087856D02*
X79332000Y-40087856D01*
X82860000Y-40127856D02*
X79347000Y-40127856D01*
X82860000Y-40167856D02*
X79362000Y-40167856D01*
X82860000Y-40207856D02*
X79378000Y-40207856D01*
X82860000Y-40247856D02*
X79394000Y-40247856D01*
X84699000Y-43407856D02*
X83501000Y-43407856D01*
X84962000Y-43367856D02*
X83238000Y-43367856D01*
X85162000Y-43327856D02*
X83038000Y-43327856D01*
X85330000Y-43287856D02*
X82870000Y-43287856D01*
X85477000Y-43247856D02*
X82723000Y-43247856D01*
X85609000Y-43207856D02*
X82591000Y-43207856D01*
X85730000Y-43167856D02*
X82470000Y-43167856D01*
X85842000Y-43127856D02*
X82358000Y-43127856D01*
X85946000Y-43087856D02*
X82254000Y-43087856D01*
X86044000Y-43047856D02*
X82156000Y-43047856D01*
X86137000Y-43007856D02*
X82063000Y-43007856D01*
X86224000Y-42967856D02*
X81976000Y-42967856D01*
X86308000Y-42927856D02*
X81892000Y-42927856D01*
X86388000Y-42887856D02*
X81812000Y-42887856D01*
X86465000Y-42847856D02*
X81735000Y-42847856D01*
X86539000Y-42807856D02*
X81661000Y-42807856D01*
X86610000Y-42767856D02*
X81590000Y-42767856D01*
X86678000Y-42727856D02*
X83340000Y-42727856D01*
X86744000Y-42687856D02*
X83340000Y-42687856D01*
X86808000Y-42647856D02*
X83340000Y-42647856D01*
X86870000Y-42607856D02*
X83340000Y-42607856D01*
X86930000Y-42567856D02*
X83340000Y-42567856D01*
X86975000Y-32848210D02*
X86975000Y-33848210D01*
X86988000Y-42527856D02*
X83340000Y-42527856D01*
X87045000Y-42487856D02*
X83340000Y-42487856D01*
X87100000Y-42447856D02*
X83340000Y-42447856D01*
X87153000Y-42407856D02*
X83340000Y-42407856D01*
X87205000Y-42367856D02*
X83340000Y-42367856D01*
X87256000Y-42327856D02*
X83340000Y-42327856D01*
X87305000Y-42287856D02*
X83340000Y-42287856D01*
X87354000Y-42247856D02*
X83340000Y-42247856D01*
X87401000Y-42207856D02*
X83340000Y-42207856D01*
X87447000Y-42167856D02*
X83340000Y-42167856D01*
X87475000Y-33348210D02*
X86475000Y-33348210D01*
X87491000Y-42127856D02*
X83340000Y-42127856D01*
X87535000Y-42087856D02*
X83340000Y-42087856D01*
X87578000Y-42047856D02*
X85340000Y-42047856D01*
X87620000Y-42007856D02*
X85340000Y-42007856D01*
X87661000Y-41967856D02*
X85340000Y-41967856D01*
X87701000Y-41927856D02*
X85340000Y-41927856D01*
X87740000Y-41887856D02*
X85340000Y-41887856D01*
X87778000Y-41847856D02*
X85340000Y-41847856D01*
X87816000Y-41807856D02*
X85340000Y-41807856D01*
X87852000Y-41767856D02*
X85340000Y-41767856D01*
X87888000Y-41727856D02*
X85340000Y-41727856D01*
X87923000Y-41687856D02*
X85340000Y-41687856D01*
X87958000Y-41647856D02*
X85340000Y-41647856D01*
X87991000Y-41607856D02*
X85340000Y-41607856D01*
X88024000Y-41567856D02*
X85340000Y-41567856D01*
X88057000Y-41527856D02*
X85340000Y-41527856D01*
X88088000Y-41487856D02*
X85340000Y-41487856D01*
X88120000Y-41447856D02*
X85340000Y-41447856D01*
X88150000Y-41407856D02*
X85340000Y-41407856D01*
X88180000Y-41367856D02*
X85340000Y-41367856D01*
X88209000Y-41327856D02*
X85340000Y-41327856D01*
X88238000Y-41287856D02*
X85340000Y-41287856D01*
X88266000Y-41247856D02*
X85340000Y-41247856D01*
X88293000Y-41207856D02*
X85340000Y-41207856D01*
X88320000Y-41167856D02*
X85340000Y-41167856D01*
X88347000Y-41127856D02*
X85340000Y-41127856D01*
X88372000Y-41087856D02*
X85340000Y-41087856D01*
X88398000Y-41047856D02*
X85340000Y-41047856D01*
X88423000Y-41007856D02*
X85340000Y-41007856D01*
X88447000Y-40967856D02*
X85340000Y-40967856D01*
X88471000Y-40927856D02*
X85340000Y-40927856D01*
X88494000Y-40887856D02*
X85340000Y-40887856D01*
X88517000Y-40847856D02*
X85340000Y-40847856D01*
X88539000Y-40807856D02*
X85340000Y-40807856D01*
X88561000Y-40767856D02*
X85340000Y-40767856D01*
X88583000Y-40727856D02*
X85340000Y-40727856D01*
X88604000Y-40687856D02*
X85340000Y-40687856D01*
X88624000Y-40647856D02*
X85340000Y-40647856D01*
X88644000Y-40607856D02*
X85340000Y-40607856D01*
X88664000Y-40567856D02*
X85340000Y-40567856D01*
X88683000Y-40527856D02*
X85340000Y-40527856D01*
X88702000Y-40487856D02*
X85340000Y-40487856D01*
X88720000Y-40447856D02*
X85340000Y-40447856D01*
X88738000Y-40407856D02*
X85340000Y-40407856D01*
X88756000Y-40367856D02*
X85340000Y-40367856D01*
X88773000Y-40327856D02*
X85340000Y-40327856D01*
X88790000Y-40287856D02*
X85340000Y-40287856D01*
X88806000Y-40247856D02*
X85340000Y-40247856D01*
X88822000Y-40207856D02*
X85340000Y-40207856D01*
X88838000Y-40167856D02*
X85340000Y-40167856D01*
X88853000Y-40127856D02*
X85340000Y-40127856D01*
X88868000Y-40087856D02*
X85340000Y-40087856D01*
X88882000Y-40047856D02*
X85340000Y-40047856D01*
X88897000Y-40007856D02*
X85340000Y-40007856D01*
X88910000Y-39967856D02*
X85340000Y-39967856D01*
X88924000Y-39927856D02*
X85340000Y-39927856D01*
X88937000Y-39887856D02*
X85340000Y-39887856D01*
X88949000Y-39847856D02*
X85340000Y-39847856D01*
X88961000Y-39807856D02*
X85340000Y-39807856D01*
X88973000Y-39767856D02*
X85340000Y-39767856D01*
X88985000Y-39727856D02*
X85340000Y-39727856D01*
X88996000Y-39687856D02*
X85340000Y-39687856D01*
X89007000Y-39647856D02*
X85340000Y-39647856D01*
X89017000Y-39607856D02*
X85340000Y-39607856D01*
X89028000Y-39567856D02*
X79172000Y-39567856D01*
X89037000Y-39527856D02*
X79163000Y-39527856D01*
X89047000Y-39487856D02*
X79153000Y-39487856D01*
X89056000Y-39447856D02*
X79144000Y-39447856D01*
X89065000Y-39407856D02*
X79135000Y-39407856D01*
X89073000Y-39367856D02*
X79127000Y-39367856D01*
X89081000Y-39327856D02*
X79119000Y-39327856D01*
X89089000Y-39287856D02*
X79111000Y-39287856D01*
X89097000Y-39247856D02*
X79103000Y-39247856D01*
X89104000Y-39207856D02*
X79096000Y-39207856D01*
X89111000Y-39167856D02*
X79089000Y-39167856D01*
X89117000Y-39127856D02*
X79083000Y-39127856D01*
X89123000Y-39087856D02*
X79077000Y-39087856D01*
X89129000Y-39047856D02*
X79071000Y-39047856D01*
X89135000Y-39007856D02*
X79065000Y-39007856D01*
X89140000Y-38967856D02*
X79060000Y-38967856D01*
X89145000Y-38927856D02*
X79055000Y-38927856D01*
X89149000Y-38887856D02*
X79051000Y-38887856D01*
X89154000Y-38847856D02*
X79046000Y-38847856D01*
X89157000Y-38807856D02*
X79043000Y-38807856D01*
X89161000Y-38767856D02*
X79039000Y-38767856D01*
X89164000Y-38727856D02*
X79036000Y-38727856D01*
X89167000Y-38687856D02*
X79033000Y-38687856D01*
X89170000Y-38647856D02*
X79030000Y-38647856D01*
X89172000Y-38607856D02*
X79028000Y-38607856D01*
X89174000Y-38567856D02*
X79026000Y-38567856D01*
X89176000Y-38527856D02*
X79024000Y-38527856D01*
X89177000Y-38487856D02*
X79023000Y-38487856D01*
X89179000Y-38407856D02*
X79021000Y-38407856D01*
X89179000Y-38447856D02*
X79021000Y-38447856D01*
X89180000Y-38327856D02*
X79020000Y-38327856D01*
X89180000Y-38367856D02*
X79020000Y-38367856D01*
X87360000Y-34379844D02*
G75*
G02*
X85813098Y-33502952I-3260000J-3948012D01*
G01*
%TO.C,J3*%
X146880000Y-36800000D02*
X146880000Y-37800000D01*
X146880000Y-37800000D02*
X147880000Y-37300000D01*
X147880000Y-37300000D02*
X146880000Y-36800000D01*
X148270000Y-32090000D02*
X157390000Y-32090000D01*
X148270000Y-40330000D02*
X149580000Y-40330000D01*
X148270000Y-52670000D02*
X148270000Y-32090000D01*
X149580000Y-33390000D02*
X156080000Y-33390000D01*
X149580000Y-40330000D02*
X149580000Y-33390000D01*
X149580000Y-44430000D02*
X148270000Y-44430000D01*
X149580000Y-51370000D02*
X149580000Y-44430000D01*
X156080000Y-33390000D02*
X156080000Y-51370000D01*
X156080000Y-51370000D02*
X149580000Y-51370000D01*
X157390000Y-32090000D02*
X157390000Y-52670000D01*
X157390000Y-52670000D02*
X148270000Y-52670000D01*
%TO.C,J6*%
X68990000Y-80390000D02*
X68990000Y-90610000D01*
X68990000Y-90610000D02*
X77710000Y-90610000D01*
X72500000Y-91410000D02*
X72800000Y-90810000D01*
X72800000Y-90810000D02*
X73100000Y-91410000D01*
X73100000Y-91410000D02*
X72500000Y-91410000D01*
X77710000Y-80390000D02*
X68990000Y-80390000D01*
X77710000Y-90610000D02*
X77710000Y-80390000D01*
%TO.C,R4*%
X84140000Y-67000000D02*
X86100000Y-67000000D01*
X97300000Y-67000000D02*
X95340000Y-67000000D01*
X86100000Y-65280000D02*
X95340000Y-65280000D01*
X95340000Y-68720000D01*
X86100000Y-68720000D01*
X86100000Y-65280000D01*
%TO.C,U2*%
X117060000Y-42430000D02*
X117060000Y-52710000D01*
X117060000Y-52710000D02*
X121560000Y-52710000D01*
X118310000Y-42430000D02*
X117060000Y-42430000D01*
X121560000Y-42430000D02*
X120310000Y-42430000D01*
X121560000Y-52710000D02*
X121560000Y-42430000D01*
X114060000Y-42370000D02*
X124560000Y-42370000D01*
X124560000Y-52770000D01*
X114060000Y-52770000D01*
X114060000Y-42370000D01*
X120310000Y-42430000D02*
G75*
G02*
X118310000Y-42430000I-1000000J0D01*
G01*
%TO.C,R3*%
X130720000Y-71100000D02*
X132680000Y-71100000D01*
X143880000Y-71100000D02*
X141920000Y-71100000D01*
X132680000Y-69380000D02*
X141920000Y-69380000D01*
X141920000Y-72820000D01*
X132680000Y-72820000D01*
X132680000Y-69380000D01*
%TO.C,C6*%
X126280000Y-55480000D02*
X128520000Y-55480000D01*
X126280000Y-62720000D02*
X126280000Y-55480000D01*
X128520000Y-55480000D02*
X128520000Y-62720000D01*
X128520000Y-62720000D02*
X126280000Y-62720000D01*
%TO.C,R6*%
X84180000Y-62700000D02*
X86140000Y-62700000D01*
X97340000Y-62700000D02*
X95380000Y-62700000D01*
X95380000Y-64420000D02*
X86140000Y-64420000D01*
X86140000Y-60980000D01*
X95380000Y-60980000D01*
X95380000Y-64420000D01*
%TO.C,D1*%
X127940000Y-75400000D02*
X130430000Y-75400000D01*
X131210000Y-73930000D02*
X131210000Y-76870000D01*
X131330000Y-73930000D02*
X131330000Y-76870000D01*
X131450000Y-73930000D02*
X131450000Y-76870000D01*
X138360000Y-75400000D02*
X135870000Y-75400000D01*
X130430000Y-73930000D02*
X135870000Y-73930000D01*
X135870000Y-76870000D01*
X130430000Y-76870000D01*
X130430000Y-73930000D01*
%TO.C,C4*%
X93180000Y-36080000D02*
X100420000Y-36080000D01*
X93180000Y-38320000D02*
X93180000Y-36080000D01*
X100420000Y-36080000D02*
X100420000Y-38320000D01*
X100420000Y-38320000D02*
X93180000Y-38320000D01*
%TO.C,R8*%
X102600000Y-63040000D02*
X102600000Y-65000000D01*
X102600000Y-76200000D02*
X102600000Y-74240000D01*
X104320000Y-65000000D02*
X100880000Y-65000000D01*
X100880000Y-74240000D01*
X104320000Y-74240000D01*
X104320000Y-65000000D01*
%TO.C,RV1*%
X127385000Y-35940000D02*
X137135000Y-35940000D01*
X127385000Y-45690000D02*
X127385000Y-35940000D01*
X137135000Y-35940000D02*
X137135000Y-45690000D01*
X137135000Y-45690000D02*
X127385000Y-45690000D01*
%TD*%
M02*
