%TF.GenerationSoftware,KiCad,Pcbnew,9.0.6-1.fc42*%
%TF.CreationDate,2025-12-07T23:33:44+01:00*%
%TF.ProjectId,coilgun,636f696c-6775-46e2-9e6b-696361645f70,rev?*%
%TF.SameCoordinates,Original*%
%TF.FileFunction,Copper,L1,Top*%
%TF.FilePolarity,Positive*%
%FSLAX46Y46*%
G04 Gerber Fmt 4.6, Leading zero omitted, Abs format (unit mm)*
G04 Created by KiCad (PCBNEW 9.0.6-1.fc42) date 2025-12-07 23:33:44*
%MOMM*%
%LPD*%
G01*
G04 APERTURE LIST*
G04 Aperture macros list*
%AMRoundRect*
0 Rectangle with rounded corners*
0 $1 Rounding radius*
0 $2 $3 $4 $5 $6 $7 $8 $9 X,Y pos of 4 corners*
0 Add a 4 corners polygon primitive as box body*
4,1,4,$2,$3,$4,$5,$6,$7,$8,$9,$2,$3,0*
0 Add four circle primitives for the rounded corners*
1,1,$1+$1,$2,$3*
1,1,$1+$1,$4,$5*
1,1,$1+$1,$6,$7*
1,1,$1+$1,$8,$9*
0 Add four rect primitives between the rounded corners*
20,1,$1+$1,$2,$3,$4,$5,0*
20,1,$1+$1,$4,$5,$6,$7,0*
20,1,$1+$1,$6,$7,$8,$9,0*
20,1,$1+$1,$8,$9,$2,$3,0*%
G04 Aperture macros list end*
%TA.AperFunction,ComponentPad*%
%ADD10RoundRect,0.250000X-0.950000X-0.550000X0.950000X-0.550000X0.950000X0.550000X-0.950000X0.550000X0*%
%TD*%
%TA.AperFunction,ComponentPad*%
%ADD11O,2.400000X1.600000*%
%TD*%
%TA.AperFunction,ComponentPad*%
%ADD12RoundRect,0.250000X0.750000X-0.750000X0.750000X0.750000X-0.750000X0.750000X-0.750000X-0.750000X0*%
%TD*%
%TA.AperFunction,ComponentPad*%
%ADD13C,2.000000*%
%TD*%
%TA.AperFunction,ComponentPad*%
%ADD14C,1.600000*%
%TD*%
%TA.AperFunction,ComponentPad*%
%ADD15R,1.800000X1.800000*%
%TD*%
%TA.AperFunction,ComponentPad*%
%ADD16C,1.800000*%
%TD*%
%TA.AperFunction,ComponentPad*%
%ADD17RoundRect,0.250001X1.099999X-1.099999X1.099999X1.099999X-1.099999X1.099999X-1.099999X-1.099999X0*%
%TD*%
%TA.AperFunction,ComponentPad*%
%ADD18C,2.700000*%
%TD*%
%TA.AperFunction,ComponentPad*%
%ADD19R,1.905000X2.000000*%
%TD*%
%TA.AperFunction,ComponentPad*%
%ADD20O,1.905000X2.000000*%
%TD*%
%TA.AperFunction,ComponentPad*%
%ADD21R,2.000000X2.000000*%
%TD*%
%TA.AperFunction,ComponentPad*%
%ADD22O,2.000000X2.000000*%
%TD*%
%TA.AperFunction,ComponentPad*%
%ADD23R,1.700000X1.700000*%
%TD*%
%TA.AperFunction,ComponentPad*%
%ADD24C,1.700000*%
%TD*%
%TA.AperFunction,ComponentPad*%
%ADD25R,1.800000X1.100000*%
%TD*%
%TA.AperFunction,ComponentPad*%
%ADD26RoundRect,0.275000X-0.625000X0.275000X-0.625000X-0.275000X0.625000X-0.275000X0.625000X0.275000X0*%
%TD*%
%TA.AperFunction,ComponentPad*%
%ADD27RoundRect,0.250000X-0.550000X0.550000X-0.550000X-0.550000X0.550000X-0.550000X0.550000X0.550000X0*%
%TD*%
%TA.AperFunction,ComponentPad*%
%ADD28RoundRect,0.275000X0.625000X-0.275000X0.625000X0.275000X-0.625000X0.275000X-0.625000X-0.275000X0*%
%TD*%
%TA.AperFunction,ComponentPad*%
%ADD29RoundRect,0.250001X-1.099999X1.099999X-1.099999X-1.099999X1.099999X-1.099999X1.099999X1.099999X0*%
%TD*%
%TA.AperFunction,ComponentPad*%
%ADD30RoundRect,0.250000X-0.750000X0.750000X-0.750000X-0.750000X0.750000X-0.750000X0.750000X0.750000X0*%
%TD*%
%TA.AperFunction,ComponentPad*%
%ADD31RoundRect,0.250000X-0.600000X-0.600000X0.600000X-0.600000X0.600000X0.600000X-0.600000X0.600000X0*%
%TD*%
%TA.AperFunction,ComponentPad*%
%ADD32RoundRect,0.250000X-0.650000X-0.650000X0.650000X-0.650000X0.650000X0.650000X-0.650000X0.650000X0*%
%TD*%
%TA.AperFunction,ComponentPad*%
%ADD33C,1.440000*%
%TD*%
%TA.AperFunction,ViaPad*%
%ADD34C,1.500000*%
%TD*%
%TA.AperFunction,Conductor*%
%ADD35C,1.000000*%
%TD*%
%TA.AperFunction,Conductor*%
%ADD36C,0.500000*%
%TD*%
G04 APERTURE END LIST*
D10*
%TO.P,U3,1,V_{DD}*%
%TO.N,VDD*%
X115590000Y-61590000D03*
D11*
%TO.P,U3,2,IN*%
%TO.N,FIRE_PIN*%
X115590000Y-64130000D03*
%TO.P,U3,3,EN*%
%TO.N,VDD*%
X115590000Y-66670000D03*
%TO.P,U3,4,GND*%
%TO.N,GND*%
X115590000Y-69210000D03*
%TO.P,U3,5,GND*%
X123210000Y-69210000D03*
%TO.P,U3,6,OUT*%
%TO.N,Net-(D1-K)*%
X123210000Y-66670000D03*
%TO.P,U3,7,OUT*%
X123210000Y-64130000D03*
%TO.P,U3,8,V_{DD}*%
%TO.N,VDD*%
X123210000Y-61590000D03*
%TD*%
D12*
%TO.P,C8,1*%
%TO.N,Net-(D2-+)*%
X96500000Y-88072144D03*
X98500000Y-87400000D03*
D13*
%TO.P,C8,2*%
%TO.N,GND*%
X98500000Y-82400000D03*
X100500000Y-81727856D03*
%TD*%
D14*
%TO.P,C2,1*%
%TO.N,Net-(U2-DIS)*%
X128500000Y-48000000D03*
%TO.P,C2,2*%
%TO.N,GND*%
X128500000Y-53000000D03*
%TD*%
D15*
%TO.P,D3,1,K*%
%TO.N,GND*%
X85300000Y-55660000D03*
D16*
%TO.P,D3,2,A*%
%TO.N,Net-(D3-A)*%
X85300000Y-58200000D03*
%TD*%
D17*
%TO.P,J7,1,Pin_1*%
%TO.N,+5V*%
X72700000Y-62977500D03*
D18*
%TO.P,J7,2,Pin_2*%
%TO.N,TRIGGER*%
X72700000Y-57977500D03*
%TD*%
D10*
%TO.P,U1,1*%
%TO.N,Net-(R9-Pad1)*%
X91680000Y-41800000D03*
D11*
%TO.P,U1,2*%
%TO.N,TRIGGER*%
X91680000Y-44340000D03*
%TO.P,U1,3*%
%TO.N,SAFETY*%
X91680000Y-46880000D03*
%TO.P,U1,4*%
%TO.N,LASER1*%
X91680000Y-49420000D03*
%TO.P,U1,5*%
%TO.N,LASER2*%
X91680000Y-51960000D03*
%TO.P,U1,6*%
%TO.N,N/C*%
X91680000Y-54500000D03*
%TO.P,U1,7,Vss*%
%TO.N,GND*%
X91680000Y-57040000D03*
%TO.P,U1,8*%
%TO.N,N/C*%
X99300000Y-57040000D03*
%TO.P,U1,9*%
%TO.N,Net-(R9-Pad1)*%
X99300000Y-54500000D03*
%TO.P,U1,10*%
%TO.N,Net-(U2-Q)*%
X99300000Y-51960000D03*
%TO.P,U1,11*%
%TO.N,+5V*%
X99300000Y-49420000D03*
%TO.P,U1,12*%
X99300000Y-46880000D03*
%TO.P,U1,13*%
%TO.N,FIRE_PIN*%
X99300000Y-44340000D03*
%TO.P,U1,14,Vdd*%
%TO.N,+5V*%
X99300000Y-41800000D03*
%TD*%
D19*
%TO.P,U5,1,IN*%
%TO.N,VDD*%
X140100000Y-88500000D03*
D20*
%TO.P,U5,2,GND*%
%TO.N,GND*%
X137560000Y-88500000D03*
%TO.P,U5,3,OUT*%
%TO.N,+5V*%
X135020000Y-88500000D03*
%TD*%
D15*
%TO.P,D4,1,K*%
%TO.N,Net-(D4-K)*%
X109500000Y-64640000D03*
D16*
%TO.P,D4,2,A*%
%TO.N,+5V*%
X109500000Y-62100000D03*
%TD*%
D14*
%TO.P,C1,1*%
%TO.N,Net-(U2-CV)*%
X123100000Y-56100000D03*
%TO.P,C1,2*%
%TO.N,GND*%
X118100000Y-56100000D03*
%TD*%
%TO.P,R2,1*%
%TO.N,Net-(D1-K)*%
X126800000Y-66700000D03*
%TO.P,R2,2*%
%TO.N,Net-(J1-Pin_1)*%
X142040000Y-66700000D03*
%TD*%
%TO.P,C14,1*%
%TO.N,VDD*%
X140100000Y-83900000D03*
%TO.P,C14,2*%
%TO.N,GND*%
X140100000Y-78900000D03*
%TD*%
%TO.P,C13,1*%
%TO.N,+5V*%
X135000000Y-83900000D03*
%TO.P,C13,2*%
%TO.N,GND*%
X135000000Y-78900000D03*
%TD*%
D12*
%TO.P,C10,1*%
%TO.N,VDD*%
X122300000Y-88072144D03*
X124300000Y-87400000D03*
D13*
%TO.P,C10,2*%
%TO.N,GND*%
X124300000Y-82400000D03*
X126300000Y-81727856D03*
%TD*%
D14*
%TO.P,C5,1*%
%TO.N,+5V*%
X123100000Y-39400000D03*
%TO.P,C5,2*%
%TO.N,GND*%
X118100000Y-39400000D03*
%TD*%
%TO.P,R9,1*%
%TO.N,Net-(R9-Pad1)*%
X104000000Y-54540000D03*
%TO.P,R9,2*%
%TO.N,Net-(Q1-B)*%
X104000000Y-39300000D03*
%TD*%
D21*
%TO.P,D2,1,+*%
%TO.N,Net-(D2-+)*%
X89100000Y-88080000D03*
D22*
%TO.P,D2,2*%
%TO.N,Net-(J6-Pin_2)*%
X89100000Y-83000000D03*
%TO.P,D2,3,-*%
%TO.N,GND*%
X84020000Y-83000000D03*
%TO.P,D2,4*%
%TO.N,Net-(J6-Pin_1)*%
X84020000Y-88080000D03*
%TD*%
D14*
%TO.P,C11,1*%
%TO.N,VDD*%
X109000000Y-83900000D03*
%TO.P,C11,2*%
%TO.N,GND*%
X109000000Y-78900000D03*
%TD*%
%TO.P,R1,1*%
%TO.N,+5V*%
X109500000Y-58740000D03*
%TO.P,R1,2*%
%TO.N,Net-(Q1-C)*%
X109500000Y-43500000D03*
%TD*%
D23*
%TO.P,J4,1,Pin_1*%
%TO.N,LASER1*%
X91820000Y-33500000D03*
D24*
%TO.P,J4,2,Pin_2*%
%TO.N,+5V*%
X94360000Y-33500000D03*
%TO.P,J4,3,Pin_3*%
%TO.N,GND*%
X96900000Y-33500000D03*
%TD*%
D25*
%TO.P,Q2,1,C*%
%TO.N,GND*%
X107600000Y-72100000D03*
D26*
%TO.P,Q2,2,B*%
%TO.N,Net-(Q2-B)*%
X109670000Y-73370000D03*
%TO.P,Q2,3,E*%
%TO.N,Net-(Q2-E)*%
X107600000Y-74640000D03*
%TD*%
D27*
%TO.P,C3,1*%
%TO.N,Net-(U2-DIS)*%
X133900000Y-49300000D03*
D14*
%TO.P,C3,2*%
%TO.N,GND*%
X133900000Y-51800000D03*
%TD*%
D25*
%TO.P,Q1,1,C*%
%TO.N,Net-(Q1-C)*%
X110870000Y-40570000D03*
D28*
%TO.P,Q1,2,B*%
%TO.N,Net-(Q1-B)*%
X108800000Y-39300000D03*
%TO.P,Q1,3,E*%
%TO.N,GND*%
X110870000Y-38030000D03*
%TD*%
D14*
%TO.P,R7,1*%
%TO.N,SAFETY*%
X83140000Y-71600000D03*
%TO.P,R7,2*%
%TO.N,Net-(Q2-B)*%
X98380000Y-71600000D03*
%TD*%
D19*
%TO.P,U4,1,IN*%
%TO.N,Net-(D2-+)*%
X114040000Y-88350000D03*
D20*
%TO.P,U4,2,GND*%
%TO.N,GND*%
X111500000Y-88350000D03*
%TO.P,U4,3,OUT*%
%TO.N,VDD*%
X108960000Y-88350000D03*
%TD*%
D14*
%TO.P,R5,1*%
%TO.N,SAFETY*%
X83180000Y-76400000D03*
%TO.P,R5,2*%
%TO.N,GND*%
X98420000Y-76400000D03*
%TD*%
D29*
%TO.P,J1,1,Pin_1*%
%TO.N,Net-(J1-Pin_1)*%
X153550000Y-67722500D03*
D18*
%TO.P,J1,2,Pin_2*%
%TO.N,GND*%
X153550000Y-72722500D03*
%TD*%
D30*
%TO.P,C12,1*%
%TO.N,+5V*%
X152800000Y-82627856D03*
X150800000Y-83300000D03*
D13*
%TO.P,C12,2*%
%TO.N,GND*%
X150800000Y-88300000D03*
X148800000Y-88972144D03*
%TD*%
D14*
%TO.P,C7,1*%
%TO.N,VDD*%
X134000000Y-61600000D03*
%TO.P,C7,2*%
%TO.N,GND*%
X134000000Y-56600000D03*
%TD*%
D23*
%TO.P,J5,1,Pin_1*%
%TO.N,LASER2*%
X110960000Y-33500000D03*
D24*
%TO.P,J5,2,Pin_2*%
%TO.N,+5V*%
X113500000Y-33500000D03*
%TO.P,J5,3,Pin_3*%
%TO.N,GND*%
X116040000Y-33500000D03*
%TD*%
D14*
%TO.P,C9,1*%
%TO.N,Net-(D2-+)*%
X114000000Y-83900000D03*
%TO.P,C9,2*%
%TO.N,GND*%
X114000000Y-78900000D03*
%TD*%
D31*
%TO.P,J2,1,Pin_1*%
%TO.N,TRIGGER*%
X72160000Y-37340000D03*
D24*
%TO.P,J2,2,Pin_2*%
%TO.N,SAFETY*%
X74700000Y-37340000D03*
%TO.P,J2,3,Pin_3*%
%TO.N,+5V*%
X72160000Y-39880000D03*
%TO.P,J2,4,Pin_4*%
%TO.N,VDD*%
X74700000Y-39880000D03*
%TO.P,J2,5,Pin_5*%
X72160000Y-42420000D03*
%TO.P,J2,6,Pin_6*%
X74700000Y-42420000D03*
%TO.P,J2,7,Pin_7*%
%TO.N,GND*%
X72160000Y-44960000D03*
%TO.P,J2,8,Pin_8*%
X74700000Y-44960000D03*
%TO.P,J2,9,Pin_9*%
X72160000Y-47500000D03*
%TO.P,J2,10,Pin_10*%
X74700000Y-47500000D03*
%TD*%
D17*
%TO.P,J8,1,Pin_1*%
%TO.N,+5V*%
X72800000Y-75300000D03*
D18*
%TO.P,J8,2,Pin_2*%
%TO.N,SAFETY*%
X72800000Y-70300000D03*
%TD*%
D30*
%TO.P,C15,1*%
%TO.N,+5V*%
X86100000Y-35155712D03*
X84100000Y-35827856D03*
D13*
%TO.P,C15,2*%
%TO.N,GND*%
X84100000Y-40827856D03*
X82100000Y-41500000D03*
%TD*%
D31*
%TO.P,J3,1,Pin_1*%
%TO.N,TRIGGER*%
X151560000Y-37300000D03*
D24*
%TO.P,J3,2,Pin_2*%
%TO.N,SAFETY*%
X154100000Y-37300000D03*
%TO.P,J3,3,Pin_3*%
%TO.N,+5V*%
X151560000Y-39840000D03*
%TO.P,J3,4,Pin_4*%
%TO.N,VDD*%
X154100000Y-39840000D03*
%TO.P,J3,5,Pin_5*%
X151560000Y-42380000D03*
%TO.P,J3,6,Pin_6*%
X154100000Y-42380000D03*
%TO.P,J3,7,Pin_7*%
%TO.N,GND*%
X151560000Y-44920000D03*
%TO.P,J3,8,Pin_8*%
X154100000Y-44920000D03*
%TO.P,J3,9,Pin_9*%
X151560000Y-47460000D03*
%TO.P,J3,10,Pin_10*%
X154100000Y-47460000D03*
%TD*%
D17*
%TO.P,J6,1,Pin_1*%
%TO.N,Net-(J6-Pin_1)*%
X72800000Y-88000000D03*
D18*
%TO.P,J6,2,Pin_2*%
%TO.N,Net-(J6-Pin_2)*%
X72800000Y-83000000D03*
%TD*%
D14*
%TO.P,R4,1*%
%TO.N,TRIGGER*%
X83100000Y-67000000D03*
%TO.P,R4,2*%
%TO.N,GND*%
X98340000Y-67000000D03*
%TD*%
D10*
%TO.P,U2,1,GND*%
%TO.N,GND*%
X115500000Y-43760000D03*
D11*
%TO.P,U2,2,TR*%
%TO.N,Net-(Q1-C)*%
X115500000Y-46300000D03*
%TO.P,U2,3,Q*%
%TO.N,Net-(U2-Q)*%
X115500000Y-48840000D03*
%TO.P,U2,4,R*%
%TO.N,+5V*%
X115500000Y-51380000D03*
%TO.P,U2,5,CV*%
%TO.N,Net-(U2-CV)*%
X123120000Y-51380000D03*
%TO.P,U2,6,THR*%
%TO.N,Net-(U2-DIS)*%
X123120000Y-48840000D03*
%TO.P,U2,7,DIS*%
X123120000Y-46300000D03*
%TO.P,U2,8,VCC*%
%TO.N,+5V*%
X123120000Y-43760000D03*
%TD*%
D14*
%TO.P,R3,1*%
%TO.N,Net-(D1-A)*%
X129680000Y-71100000D03*
%TO.P,R3,2*%
%TO.N,Net-(J1-Pin_1)*%
X144920000Y-71100000D03*
%TD*%
%TO.P,C6,1*%
%TO.N,VDD*%
X127400000Y-61600000D03*
%TO.P,C6,2*%
%TO.N,GND*%
X127400000Y-56600000D03*
%TD*%
%TO.P,R6,1*%
%TO.N,FIRE_PIN*%
X98380000Y-62700000D03*
%TO.P,R6,2*%
%TO.N,Net-(D3-A)*%
X83140000Y-62700000D03*
%TD*%
D32*
%TO.P,D1,1,K*%
%TO.N,Net-(D1-K)*%
X126800000Y-75400000D03*
D16*
%TO.P,D1,2,A*%
%TO.N,Net-(D1-A)*%
X139500000Y-75400000D03*
%TD*%
D14*
%TO.P,C4,1*%
%TO.N,+5V*%
X99300000Y-37200000D03*
%TO.P,C4,2*%
%TO.N,GND*%
X94300000Y-37200000D03*
%TD*%
%TO.P,R8,1*%
%TO.N,Net-(D4-K)*%
X102600000Y-62000000D03*
%TO.P,R8,2*%
%TO.N,Net-(Q2-E)*%
X102600000Y-77240000D03*
%TD*%
D33*
%TO.P,RV1,1,1*%
%TO.N,unconnected-(RV1-Pad1)*%
X134800000Y-40800000D03*
%TO.P,RV1,2,2*%
%TO.N,+5V*%
X132260000Y-38260000D03*
%TO.P,RV1,3,3*%
%TO.N,Net-(U2-DIS)*%
X129720000Y-40800000D03*
%TD*%
D34*
%TO.N,+5V*%
X147600000Y-45200000D03*
X81500000Y-31500000D03*
%TO.N,SAFETY*%
X74700000Y-32800000D03*
%TD*%
D35*
%TO.N,VDD*%
X142500000Y-57600000D02*
X138500000Y-61600000D01*
X138500000Y-61600000D02*
X134000000Y-61600000D01*
D36*
%TO.N,+5V*%
X81501471Y-31498529D02*
X83498529Y-31498529D01*
X83498529Y-31498529D02*
X84100000Y-32100000D01*
X81500000Y-31500000D02*
X94400000Y-31500000D01*
X81500000Y-31500000D02*
X81501471Y-31498529D01*
X84100000Y-32100000D02*
X84100000Y-35827856D01*
%TO.N,TRIGGER*%
X151560000Y-37300000D02*
X147200000Y-37300000D01*
X147200000Y-37300000D02*
X140100000Y-30200000D01*
X140100000Y-30200000D02*
X80500000Y-30200000D01*
X80500000Y-30200000D02*
X77700000Y-33000000D01*
X77700000Y-33000000D02*
X77700000Y-34600000D01*
%TO.N,Net-(U2-CV)*%
X123100000Y-51400000D02*
X123120000Y-51380000D01*
X123100000Y-56100000D02*
X123100000Y-51400000D01*
%TO.N,Net-(U2-DIS)*%
X129720000Y-40800000D02*
X129720000Y-43180000D01*
X125560000Y-48840000D02*
X126400000Y-48000000D01*
X123120000Y-48840000D02*
X125560000Y-48840000D01*
X126400000Y-48000000D02*
X128500000Y-48000000D01*
X129720000Y-43180000D02*
X128500000Y-44400000D01*
X128500000Y-44400000D02*
X128500000Y-48000000D01*
X128500000Y-48000000D02*
X130900000Y-48000000D01*
X123120000Y-48840000D02*
X123120000Y-46300000D01*
X132200000Y-49300000D02*
X133900000Y-49300000D01*
X130900000Y-48000000D02*
X132200000Y-49300000D01*
D35*
%TO.N,VDD*%
X118300000Y-81300000D02*
X118300000Y-65700000D01*
D36*
X131400000Y-90700000D02*
X139300000Y-90700000D01*
D35*
X122300000Y-85300000D02*
X122300000Y-88072144D01*
X127400000Y-61600000D02*
X133900000Y-61600000D01*
D36*
X140100000Y-83900000D02*
X140100000Y-88500000D01*
X128100000Y-87400000D02*
X131400000Y-90700000D01*
D35*
X151560000Y-42380000D02*
X154100000Y-42380000D01*
X108960000Y-83940000D02*
X109000000Y-83900000D01*
X118800000Y-81800000D02*
X122300000Y-85300000D01*
X133900000Y-61600000D02*
X134000000Y-61700000D01*
X118700000Y-61590000D02*
X115590000Y-61590000D01*
X142500000Y-57600000D02*
X142500000Y-46600000D01*
D36*
X117330000Y-66670000D02*
X118700000Y-65300000D01*
D35*
X142500000Y-46600000D02*
X146720000Y-42380000D01*
X108960000Y-88350000D02*
X108960000Y-83940000D01*
X118700000Y-61590000D02*
X123210000Y-61590000D01*
X109000000Y-83900000D02*
X111600000Y-81300000D01*
D36*
X139300000Y-90700000D02*
X140100000Y-89900000D01*
D35*
X72160000Y-42420000D02*
X74700000Y-42420000D01*
D36*
X140100000Y-89900000D02*
X140100000Y-88500000D01*
D35*
X118300000Y-65700000D02*
X118700000Y-65300000D01*
X111600000Y-81300000D02*
X118300000Y-81300000D01*
X146720000Y-42380000D02*
X151560000Y-42380000D01*
X74700000Y-42420000D02*
X74700000Y-39880000D01*
X123210000Y-61590000D02*
X127390000Y-61590000D01*
D36*
X118500000Y-65500000D02*
X118500000Y-81500000D01*
D35*
X118800000Y-81800000D02*
X118300000Y-81300000D01*
X127390000Y-61590000D02*
X127400000Y-61600000D01*
D36*
X122300000Y-88072144D02*
X123627856Y-88072144D01*
D35*
X118700000Y-65300000D02*
X118700000Y-61590000D01*
D36*
X118700000Y-65300000D02*
X118500000Y-65500000D01*
X115590000Y-66670000D02*
X117330000Y-66670000D01*
D35*
X154100000Y-42380000D02*
X154100000Y-39840000D01*
D36*
X118300000Y-81300000D02*
X118500000Y-81500000D01*
X118500000Y-81500000D02*
X118800000Y-81800000D01*
X124300000Y-87400000D02*
X128100000Y-87400000D01*
X123627856Y-88072144D02*
X124300000Y-87400000D01*
D35*
%TO.N,Net-(D2-+)*%
X89100000Y-88080000D02*
X96492144Y-88080000D01*
X114040000Y-89760000D02*
X114040000Y-88350000D01*
D36*
X114000000Y-88310000D02*
X114040000Y-88350000D01*
D35*
X103200000Y-87400000D02*
X106300000Y-90500000D01*
X96500000Y-88072144D02*
X97827856Y-88072144D01*
X96492144Y-88080000D02*
X96500000Y-88072144D01*
D36*
X114000000Y-83900000D02*
X114000000Y-88310000D01*
D35*
X98500000Y-87400000D02*
X103200000Y-87400000D01*
X97827856Y-88072144D02*
X98500000Y-87400000D01*
X106300000Y-90500000D02*
X113300000Y-90500000D01*
D36*
X114040000Y-83960000D02*
X114100000Y-83900000D01*
D35*
X113300000Y-90500000D02*
X114040000Y-89760000D01*
D36*
%TO.N,+5V*%
X109500000Y-54000000D02*
X112120000Y-51380000D01*
X117020000Y-51380000D02*
X119300000Y-49100000D01*
X135000000Y-83900000D02*
X135000000Y-82700000D01*
X135000000Y-82700000D02*
X136300000Y-81400000D01*
X113500000Y-33500000D02*
X113500000Y-31500000D01*
X139500000Y-31500000D02*
X147840000Y-39840000D01*
X100700000Y-41800000D02*
X99300000Y-41800000D01*
X94360000Y-31540000D02*
X94400000Y-31500000D01*
X154872144Y-82627856D02*
X156100000Y-81400000D01*
X156900000Y-80600000D02*
X156900000Y-75800000D01*
X123000000Y-31500000D02*
X139500000Y-31500000D01*
X121840000Y-43760000D02*
X123120000Y-43760000D01*
X99300000Y-49420000D02*
X99300000Y-46880000D01*
X109500000Y-58740000D02*
X109500000Y-54000000D01*
X102100000Y-43200000D02*
X100700000Y-41800000D01*
X101220000Y-46880000D02*
X102100000Y-46000000D01*
X143100000Y-83300000D02*
X150800000Y-83300000D01*
X84100000Y-35827856D02*
X85427856Y-35827856D01*
X115500000Y-51380000D02*
X117020000Y-51380000D01*
X152800000Y-82627856D02*
X154872144Y-82627856D01*
X119300000Y-49100000D02*
X119300000Y-46300000D01*
X132260000Y-38260000D02*
X127440000Y-38260000D01*
X94360000Y-33500000D02*
X94360000Y-31540000D01*
X156900000Y-75800000D02*
X156900000Y-58300000D01*
X150800000Y-83300000D02*
X152127856Y-83300000D01*
X135000000Y-83900000D02*
X135000000Y-88480000D01*
X156100000Y-81400000D02*
X156900000Y-80600000D01*
X113500000Y-31500000D02*
X123000000Y-31500000D01*
X123100000Y-31600000D02*
X123000000Y-31500000D01*
X126300000Y-39400000D02*
X127440000Y-38260000D01*
X99300000Y-37200000D02*
X99300000Y-41800000D01*
X112120000Y-51380000D02*
X115500000Y-51380000D01*
X102100000Y-46000000D02*
X102100000Y-43200000D01*
X156900000Y-58300000D02*
X149100000Y-50500000D01*
X94400000Y-31500000D02*
X113500000Y-31500000D01*
X147600000Y-49000000D02*
X147600000Y-45200000D01*
X123100000Y-43740000D02*
X123120000Y-43760000D01*
X147840000Y-39840000D02*
X151560000Y-39840000D01*
X123100000Y-39400000D02*
X123100000Y-43740000D01*
X149100000Y-50500000D02*
X147600000Y-49000000D01*
X136300000Y-81400000D02*
X141200000Y-81400000D01*
X119300000Y-46300000D02*
X121840000Y-43760000D01*
X99300000Y-46880000D02*
X101220000Y-46880000D01*
X152127856Y-83300000D02*
X152800000Y-82627856D01*
X141200000Y-81400000D02*
X143100000Y-83300000D01*
X72700000Y-62977500D02*
X72577500Y-62977500D01*
X109500000Y-62100000D02*
X109500000Y-58740000D01*
X135000000Y-88480000D02*
X135020000Y-88500000D01*
X123100000Y-39400000D02*
X123100000Y-31600000D01*
X123100000Y-39400000D02*
X126300000Y-39400000D01*
X85427856Y-35827856D02*
X86100000Y-35155712D01*
D35*
%TO.N,Net-(D1-A)*%
X129680000Y-71100000D02*
X135200000Y-71100000D01*
X135200000Y-71100000D02*
X139500000Y-75400000D01*
%TO.N,Net-(D1-K)*%
X126770000Y-66670000D02*
X126800000Y-66700000D01*
X123210000Y-66670000D02*
X126770000Y-66670000D01*
X123210000Y-64130000D02*
X123210000Y-66670000D01*
X126800000Y-66700000D02*
X126800000Y-75400000D01*
%TO.N,Net-(J6-Pin_1)*%
X83940000Y-88000000D02*
X84020000Y-88080000D01*
X72800000Y-88000000D02*
X83940000Y-88000000D01*
%TO.N,Net-(J6-Pin_2)*%
X86600000Y-85500000D02*
X89100000Y-83000000D01*
X78200000Y-83000000D02*
X80700000Y-85500000D01*
X72800000Y-83000000D02*
X78200000Y-83000000D01*
X80700000Y-85500000D02*
X86600000Y-85500000D01*
%TO.N,Net-(J1-Pin_1)*%
X142040000Y-66700000D02*
X142040000Y-68220000D01*
X148297500Y-67722500D02*
X153550000Y-67722500D01*
X142040000Y-68220000D02*
X144920000Y-71100000D01*
X144920000Y-71100000D02*
X148297500Y-67722500D01*
D36*
%TO.N,SAFETY*%
X74700000Y-32800000D02*
X78400000Y-29100000D01*
X74700000Y-37340000D02*
X74740000Y-37340000D01*
X88180000Y-46880000D02*
X91680000Y-46880000D01*
X83140000Y-71600000D02*
X85700000Y-71600000D01*
X74740000Y-37340000D02*
X84280000Y-46880000D01*
X72800000Y-70300000D02*
X77800000Y-70300000D01*
X84280000Y-46880000D02*
X88180000Y-46880000D01*
X88200000Y-69100000D02*
X88200000Y-46900000D01*
X147800000Y-29100000D02*
X154100000Y-35400000D01*
X79100000Y-71600000D02*
X83140000Y-71600000D01*
X154100000Y-35400000D02*
X154100000Y-37300000D01*
X78400000Y-29100000D02*
X147800000Y-29100000D01*
X88200000Y-46900000D02*
X88180000Y-46880000D01*
X77800000Y-70300000D02*
X79100000Y-71600000D01*
X83180000Y-71640000D02*
X83140000Y-71600000D01*
X85700000Y-71600000D02*
X88200000Y-69100000D01*
X83180000Y-76400000D02*
X83180000Y-71640000D01*
%TO.N,TRIGGER*%
X70760000Y-37340000D02*
X72160000Y-37340000D01*
X72160000Y-37340000D02*
X72160000Y-35540000D01*
X81400000Y-38300000D02*
X77700000Y-34600000D01*
X72700000Y-54500000D02*
X69800000Y-51600000D01*
X69800000Y-38300000D02*
X70760000Y-37340000D01*
X73100000Y-34600000D02*
X77700000Y-34600000D01*
X86800000Y-39500000D02*
X85600000Y-38300000D01*
X69800000Y-51600000D02*
X69800000Y-38300000D01*
X85600000Y-38300000D02*
X81400000Y-38300000D01*
X72160000Y-35540000D02*
X73100000Y-34600000D01*
X90140000Y-44340000D02*
X86800000Y-41000000D01*
X72700000Y-57977500D02*
X74077500Y-57977500D01*
X86800000Y-41000000D02*
X86800000Y-39500000D01*
X72700000Y-57977500D02*
X72700000Y-54500000D01*
X91680000Y-44340000D02*
X90140000Y-44340000D01*
X74077500Y-57977500D02*
X83100000Y-67000000D01*
%TO.N,LASER1*%
X91820000Y-33500000D02*
X91820000Y-37820000D01*
X93280000Y-49420000D02*
X91680000Y-49420000D01*
X94200000Y-40200000D02*
X94200000Y-48500000D01*
X91820000Y-37820000D02*
X94200000Y-40200000D01*
X94200000Y-48500000D02*
X93280000Y-49420000D01*
%TO.N,LASER2*%
X95700000Y-49900000D02*
X93640000Y-51960000D01*
X93640000Y-51960000D02*
X91680000Y-51960000D01*
X110960000Y-33500000D02*
X100400000Y-33500000D01*
X100400000Y-33500000D02*
X95700000Y-38200000D01*
X95700000Y-38200000D02*
X95700000Y-49900000D01*
%TO.N,Net-(Q1-C)*%
X109500000Y-43500000D02*
X112300000Y-46300000D01*
X109500000Y-43500000D02*
X110470000Y-42530000D01*
X112300000Y-46300000D02*
X115500000Y-46300000D01*
X110470000Y-42530000D02*
X110470000Y-40570000D01*
%TO.N,Net-(Q1-B)*%
X109200000Y-39300000D02*
X104000000Y-39300000D01*
%TO.N,Net-(U2-Q)*%
X99300000Y-51960000D02*
X105740000Y-51960000D01*
X105740000Y-51960000D02*
X108860000Y-48840000D01*
X108860000Y-48840000D02*
X115500000Y-48840000D01*
%TO.N,FIRE_PIN*%
X98060000Y-44340000D02*
X96900000Y-45500000D01*
X96900000Y-61220000D02*
X98380000Y-62700000D01*
X96900000Y-45500000D02*
X96900000Y-61220000D01*
X99300000Y-44340000D02*
X98060000Y-44340000D01*
X115590000Y-64130000D02*
X114070000Y-64130000D01*
X111600000Y-66600000D02*
X102280000Y-66600000D01*
X102280000Y-66600000D02*
X98380000Y-62700000D01*
X114070000Y-64130000D02*
X111600000Y-66600000D01*
%TO.N,Net-(D3-A)*%
X83140000Y-62700000D02*
X83140000Y-60360000D01*
X83140000Y-60360000D02*
X85300000Y-58200000D01*
%TO.N,Net-(D4-K)*%
X105240000Y-64640000D02*
X102600000Y-62000000D01*
X109500000Y-64640000D02*
X105240000Y-64640000D01*
%TO.N,Net-(Q2-E)*%
X105200000Y-74640000D02*
X108000000Y-74640000D01*
X102600000Y-77240000D02*
X105200000Y-74640000D01*
%TO.N,Net-(Q2-B)*%
X98380000Y-71600000D02*
X104100000Y-71600000D01*
X105870000Y-73370000D02*
X109270000Y-73370000D01*
X104100000Y-71600000D02*
X105870000Y-73370000D01*
%TO.N,Net-(R9-Pad1)*%
X99300000Y-54500000D02*
X103960000Y-54500000D01*
X103960000Y-54500000D02*
X104000000Y-54540000D01*
%TD*%
M02*
