%TF.GenerationSoftware,KiCad,Pcbnew,9.0.6-1.fc42*%
%TF.CreationDate,2025-12-07T23:33:51+01:00*%
%TF.ProjectId,coilgun,636f696c-6775-46e2-9e6b-696361645f70,rev?*%
%TF.SameCoordinates,Original*%
%TF.FileFunction,Drillmap*%
%TF.FilePolarity,Positive*%
%FSLAX45Y45*%
G04 Gerber Fmt 4.5, Leading zero omitted, Abs format (unit mm)*
G04 Created by KiCad (PCBNEW 9.0.6-1.fc42) date 2025-12-07 23:33:51*
%MOMM*%
%LPD*%
G01*
G04 APERTURE LIST*
%ADD10C,0.050000*%
%ADD11C,0.200000*%
G04 APERTURE END LIST*
D10*
X6850000Y-2820000D02*
X15780000Y-2820000D01*
X15780000Y-9170000D01*
X6850000Y-9170000D01*
X6850000Y-2820000D01*
D11*
X7108277Y-9483984D02*
X7108277Y-9283984D01*
X7108277Y-9283984D02*
X7155896Y-9283984D01*
X7155896Y-9283984D02*
X7184467Y-9293508D01*
X7184467Y-9293508D02*
X7203515Y-9312555D01*
X7203515Y-9312555D02*
X7213039Y-9331603D01*
X7213039Y-9331603D02*
X7222562Y-9369698D01*
X7222562Y-9369698D02*
X7222562Y-9398270D01*
X7222562Y-9398270D02*
X7213039Y-9436365D01*
X7213039Y-9436365D02*
X7203515Y-9455412D01*
X7203515Y-9455412D02*
X7184467Y-9474460D01*
X7184467Y-9474460D02*
X7155896Y-9483984D01*
X7155896Y-9483984D02*
X7108277Y-9483984D01*
X7308277Y-9483984D02*
X7308277Y-9350650D01*
X7308277Y-9388746D02*
X7317801Y-9369698D01*
X7317801Y-9369698D02*
X7327324Y-9360174D01*
X7327324Y-9360174D02*
X7346372Y-9350650D01*
X7346372Y-9350650D02*
X7365420Y-9350650D01*
X7432086Y-9483984D02*
X7432086Y-9350650D01*
X7432086Y-9283984D02*
X7422562Y-9293508D01*
X7422562Y-9293508D02*
X7432086Y-9303031D01*
X7432086Y-9303031D02*
X7441610Y-9293508D01*
X7441610Y-9293508D02*
X7432086Y-9283984D01*
X7432086Y-9283984D02*
X7432086Y-9303031D01*
X7555896Y-9483984D02*
X7536848Y-9474460D01*
X7536848Y-9474460D02*
X7527324Y-9455412D01*
X7527324Y-9455412D02*
X7527324Y-9283984D01*
X7660658Y-9483984D02*
X7641610Y-9474460D01*
X7641610Y-9474460D02*
X7632086Y-9455412D01*
X7632086Y-9455412D02*
X7632086Y-9283984D01*
X7889229Y-9483984D02*
X7889229Y-9283984D01*
X7889229Y-9283984D02*
X7955896Y-9426841D01*
X7955896Y-9426841D02*
X8022562Y-9283984D01*
X8022562Y-9283984D02*
X8022562Y-9483984D01*
X8203515Y-9483984D02*
X8203515Y-9379222D01*
X8203515Y-9379222D02*
X8193991Y-9360174D01*
X8193991Y-9360174D02*
X8174943Y-9350650D01*
X8174943Y-9350650D02*
X8136848Y-9350650D01*
X8136848Y-9350650D02*
X8117801Y-9360174D01*
X8203515Y-9474460D02*
X8184467Y-9483984D01*
X8184467Y-9483984D02*
X8136848Y-9483984D01*
X8136848Y-9483984D02*
X8117801Y-9474460D01*
X8117801Y-9474460D02*
X8108277Y-9455412D01*
X8108277Y-9455412D02*
X8108277Y-9436365D01*
X8108277Y-9436365D02*
X8117801Y-9417317D01*
X8117801Y-9417317D02*
X8136848Y-9407793D01*
X8136848Y-9407793D02*
X8184467Y-9407793D01*
X8184467Y-9407793D02*
X8203515Y-9398270D01*
X8298753Y-9350650D02*
X8298753Y-9550650D01*
X8298753Y-9360174D02*
X8317801Y-9350650D01*
X8317801Y-9350650D02*
X8355896Y-9350650D01*
X8355896Y-9350650D02*
X8374943Y-9360174D01*
X8374943Y-9360174D02*
X8384467Y-9369698D01*
X8384467Y-9369698D02*
X8393991Y-9388746D01*
X8393991Y-9388746D02*
X8393991Y-9445889D01*
X8393991Y-9445889D02*
X8384467Y-9464936D01*
X8384467Y-9464936D02*
X8374943Y-9474460D01*
X8374943Y-9474460D02*
X8355896Y-9483984D01*
X8355896Y-9483984D02*
X8317801Y-9483984D01*
X8317801Y-9483984D02*
X8298753Y-9474460D01*
X8479705Y-9464936D02*
X8489229Y-9474460D01*
X8489229Y-9474460D02*
X8479705Y-9483984D01*
X8479705Y-9483984D02*
X8470182Y-9474460D01*
X8470182Y-9474460D02*
X8479705Y-9464936D01*
X8479705Y-9464936D02*
X8479705Y-9483984D01*
X8479705Y-9360174D02*
X8489229Y-9369698D01*
X8489229Y-9369698D02*
X8479705Y-9379222D01*
X8479705Y-9379222D02*
X8470182Y-9369698D01*
X8470182Y-9369698D02*
X8479705Y-9360174D01*
X8479705Y-9360174D02*
X8479705Y-9379222D01*
M02*
