M48
; DRILL file KiCad 10.0.1-1.fc44 date 2026-05-23T21:35:02
; FORMAT={-:-/ absolute / metric / decimal}
; #@! TF.CreationDate,2026-05-23T21:35:02+02:00
; #@! TF.GenerationSoftware,Kicad,Pcbnew,10.0.1-1.fc44
; #@! TF.FileFunction,Plated,1,2,PTH
FMAT,2
METRIC
; #@! TA.AperFunction,Plated,PTH,ComponentDrill
T1C0.400
; #@! TA.AperFunction,Plated,PTH,ComponentDrill
T2C0.750
; #@! TA.AperFunction,Plated,PTH,ViaDrill
T3C0.800
; #@! TA.AperFunction,Plated,PTH,ComponentDrill
T4C0.800
; #@! TA.AperFunction,Plated,PTH,ComponentDrill
T5C0.900
; #@! TA.AperFunction,Plated,PTH,ComponentDrill
T6C1.000
; #@! TA.AperFunction,Plated,PTH,ComponentDrill
T7C1.100
; #@! TA.AperFunction,Plated,PTH,ComponentDrill
T8C1.700
; #@! TA.AperFunction,Plated,PTH,ComponentDrill
T9C2.200
%
G90
G05
T1
X71.35Y-26.0
X71.35Y-95.0
X71.833Y-24.833
X71.833Y-27.167
X71.833Y-93.833
X71.833Y-96.167
X73.0Y-24.35
X73.0Y-27.65
X73.0Y-93.35
X73.0Y-96.65
X74.167Y-24.833
X74.167Y-27.167
X74.167Y-93.833
X74.167Y-96.167
X74.65Y-26.0
X74.65Y-95.0
X152.35Y-26.0
X152.35Y-95.0
X152.833Y-24.833
X152.833Y-27.167
X152.833Y-93.833
X152.833Y-96.167
X154.0Y-24.35
X154.0Y-27.65
X154.0Y-93.35
X154.0Y-96.65
X155.167Y-24.833
X155.167Y-27.167
X155.167Y-93.833
X155.167Y-96.167
X155.65Y-26.0
X155.65Y-95.0
T2
X107.8Y-39.3
X108.13Y-72.27
X109.07Y-38.03
X109.07Y-40.57
X109.4Y-71.0
X109.4Y-73.54
T3
X74.7Y-32.8
X81.5Y-31.5
X147.6Y-45.2
T4
X83.0Y-47.0
X83.0Y-52.0
X83.1Y-67.0
X83.14Y-62.7
X83.14Y-71.6
X83.18Y-76.4
X83.18Y-81.0
X86.0Y-47.0
X86.0Y-52.0
X91.68Y-41.8
X91.68Y-44.34
X91.68Y-46.88
X91.68Y-49.42
X91.68Y-51.96
X91.68Y-54.5
X91.68Y-57.04
X94.3Y-37.2
X98.34Y-67.0
X98.38Y-62.7
X98.38Y-71.6
X98.42Y-76.4
X98.42Y-81.0
X99.3Y-37.2
X99.3Y-41.8
X99.3Y-44.34
X99.3Y-46.88
X99.3Y-49.42
X99.3Y-51.96
X99.3Y-54.5
X99.3Y-57.04
X102.6Y-62.0
X102.6Y-77.24
X104.5Y-43.58
X104.5Y-58.82
X109.0Y-43.56
X109.0Y-58.8
X109.5Y-85.383
X109.5Y-90.383
X113.4Y-43.53
X113.4Y-58.77
X114.5Y-85.383
X114.5Y-90.383
X115.28Y-67.88
X115.28Y-70.42
X115.28Y-72.96
X115.28Y-75.5
X115.5Y-35.5
X115.5Y-40.5
X119.15Y-40.91
X119.15Y-43.45
X119.15Y-45.99
X119.15Y-48.53
X121.75Y-36.55
X121.75Y-52.3
X122.9Y-67.88
X122.9Y-70.42
X122.9Y-72.96
X122.9Y-75.5
X126.75Y-36.55
X126.75Y-52.3
X126.77Y-40.91
X126.77Y-43.45
X126.77Y-45.99
X126.77Y-48.53
X126.8Y-66.7
X128.88Y-71.0
X129.4Y-56.5
X129.4Y-61.5
X130.5Y-52.4
X131.42Y-34.0
X133.5Y-46.0
X133.5Y-48.5
X133.96Y-31.46
X134.0Y-56.6
X134.0Y-61.6
X135.5Y-52.4
X135.5Y-85.383
X135.5Y-90.383
X136.5Y-34.0
X140.6Y-85.383
X140.6Y-90.383
X141.5Y-36.88
X141.5Y-52.12
X142.04Y-66.7
X144.12Y-71.0
T5
X85.3Y-55.66
X85.3Y-58.2
X109.5Y-62.1
X109.5Y-64.64
X109.5Y-79.56
X109.5Y-82.1
X126.8Y-75.4
X139.5Y-75.4
T6
X72.16Y-37.34
X72.16Y-39.88
X72.16Y-42.42
X72.16Y-44.96
X72.16Y-47.5
X74.7Y-37.34
X74.7Y-39.88
X74.7Y-42.42
X74.7Y-44.96
X74.7Y-47.5
X82.1Y-41.5
X84.1Y-35.828
X84.1Y-40.828
X84.52Y-89.483
X84.52Y-94.563
X86.1Y-35.156
X89.6Y-89.483
X89.6Y-94.563
X92.0Y-33.0
X94.54Y-33.0
X97.0Y-94.555
X97.08Y-33.0
X99.0Y-88.883
X99.0Y-93.883
X101.0Y-88.211
X106.0Y-33.5
X108.54Y-33.5
X111.08Y-33.5
X123.25Y-94.172
X125.25Y-88.5
X125.25Y-93.5
X127.25Y-87.828
X148.8Y-88.972
X150.8Y-83.3
X150.8Y-88.3
X151.56Y-37.3
X151.56Y-39.84
X151.56Y-42.38
X151.56Y-44.92
X151.56Y-47.46
X152.8Y-82.628
X154.1Y-37.3
X154.1Y-39.84
X154.1Y-42.38
X154.1Y-44.92
X154.1Y-47.46
T7
X109.46Y-94.833
X112.0Y-94.833
X114.54Y-94.833
X135.52Y-94.983
X138.06Y-94.983
X140.6Y-94.983
T8
X72.7Y-57.977
X72.7Y-62.977
X72.8Y-70.3
X72.8Y-75.3
X72.8Y-83.0
X72.8Y-88.0
X154.05Y-67.722
X154.05Y-72.722
T9
X73.0Y-26.0
X73.0Y-95.0
X154.0Y-26.0
X154.0Y-95.0
M30
