%TF.GenerationSoftware,KiCad,Pcbnew,10.0.1-1.fc44*%
%TF.CreationDate,2026-05-23T21:34:53+02:00*%
%TF.ProjectId,coilgun,636f696c-6775-46e2-9e6b-696361645f70,rev?*%
%TF.SameCoordinates,Original*%
%TF.FileFunction,Legend,Bot*%
%TF.FilePolarity,Positive*%
%FSLAX46Y46*%
G04 Gerber Fmt 4.6, Leading zero omitted, Abs format (unit mm)*
G04 Created by KiCad (PCBNEW 10.0.1-1.fc44) date 2026-05-23 21:34:53*
%MOMM*%
%LPD*%
G01*
G04 APERTURE LIST*
%ADD10C,0.500000*%
%ADD11C,0.100000*%
%ADD12C,0.000000*%
G04 APERTURE END LIST*
D10*
X91565944Y-80184798D02*
X91470705Y-80375274D01*
X91470705Y-80375274D02*
X91470705Y-80756227D01*
X91470705Y-80756227D02*
X91565944Y-80946703D01*
X91565944Y-80946703D02*
X91661182Y-81041941D01*
X91661182Y-81041941D02*
X91851658Y-81137179D01*
X91851658Y-81137179D02*
X92423086Y-81137179D01*
X92423086Y-81137179D02*
X92613563Y-81041941D01*
X92613563Y-81041941D02*
X92708801Y-80946703D01*
X92708801Y-80946703D02*
X92804039Y-80756227D01*
X92804039Y-80756227D02*
X92804039Y-80375274D01*
X92804039Y-80375274D02*
X92708801Y-80184798D01*
X91470705Y-79041941D02*
X91565944Y-79232417D01*
X91565944Y-79232417D02*
X91661182Y-79327655D01*
X91661182Y-79327655D02*
X91851658Y-79422893D01*
X91851658Y-79422893D02*
X92423086Y-79422893D01*
X92423086Y-79422893D02*
X92613563Y-79327655D01*
X92613563Y-79327655D02*
X92708801Y-79232417D01*
X92708801Y-79232417D02*
X92804039Y-79041941D01*
X92804039Y-79041941D02*
X92804039Y-78756226D01*
X92804039Y-78756226D02*
X92708801Y-78565750D01*
X92708801Y-78565750D02*
X92613563Y-78470512D01*
X92613563Y-78470512D02*
X92423086Y-78375274D01*
X92423086Y-78375274D02*
X91851658Y-78375274D01*
X91851658Y-78375274D02*
X91661182Y-78470512D01*
X91661182Y-78470512D02*
X91565944Y-78565750D01*
X91565944Y-78565750D02*
X91470705Y-78756226D01*
X91470705Y-78756226D02*
X91470705Y-79041941D01*
X91470705Y-77518131D02*
X92804039Y-77518131D01*
X93470705Y-77518131D02*
X93375467Y-77613369D01*
X93375467Y-77613369D02*
X93280229Y-77518131D01*
X93280229Y-77518131D02*
X93375467Y-77422893D01*
X93375467Y-77422893D02*
X93470705Y-77518131D01*
X93470705Y-77518131D02*
X93280229Y-77518131D01*
X91470705Y-76280036D02*
X91565944Y-76470512D01*
X91565944Y-76470512D02*
X91756420Y-76565750D01*
X91756420Y-76565750D02*
X93470705Y-76565750D01*
X92804039Y-74660988D02*
X91184991Y-74660988D01*
X91184991Y-74660988D02*
X90994515Y-74756226D01*
X90994515Y-74756226D02*
X90899277Y-74851464D01*
X90899277Y-74851464D02*
X90804039Y-75041941D01*
X90804039Y-75041941D02*
X90804039Y-75327655D01*
X90804039Y-75327655D02*
X90899277Y-75518131D01*
X91565944Y-74660988D02*
X91470705Y-74851464D01*
X91470705Y-74851464D02*
X91470705Y-75232417D01*
X91470705Y-75232417D02*
X91565944Y-75422893D01*
X91565944Y-75422893D02*
X91661182Y-75518131D01*
X91661182Y-75518131D02*
X91851658Y-75613369D01*
X91851658Y-75613369D02*
X92423086Y-75613369D01*
X92423086Y-75613369D02*
X92613563Y-75518131D01*
X92613563Y-75518131D02*
X92708801Y-75422893D01*
X92708801Y-75422893D02*
X92804039Y-75232417D01*
X92804039Y-75232417D02*
X92804039Y-74851464D01*
X92804039Y-74851464D02*
X92708801Y-74660988D01*
X92804039Y-72851464D02*
X91470705Y-72851464D01*
X92804039Y-73708607D02*
X91756420Y-73708607D01*
X91756420Y-73708607D02*
X91565944Y-73613369D01*
X91565944Y-73613369D02*
X91470705Y-73422893D01*
X91470705Y-73422893D02*
X91470705Y-73137178D01*
X91470705Y-73137178D02*
X91565944Y-72946702D01*
X91565944Y-72946702D02*
X91661182Y-72851464D01*
X92804039Y-71899083D02*
X91470705Y-71899083D01*
X92613563Y-71899083D02*
X92708801Y-71803845D01*
X92708801Y-71803845D02*
X92804039Y-71613369D01*
X92804039Y-71613369D02*
X92804039Y-71327654D01*
X92804039Y-71327654D02*
X92708801Y-71137178D01*
X92708801Y-71137178D02*
X92518324Y-71041940D01*
X92518324Y-71041940D02*
X91470705Y-71041940D01*
X90060341Y-81137179D02*
X90155579Y-81041941D01*
X90155579Y-81041941D02*
X90250817Y-80851465D01*
X90250817Y-80851465D02*
X90250817Y-80375274D01*
X90250817Y-80375274D02*
X90155579Y-80184798D01*
X90155579Y-80184798D02*
X90060341Y-80089560D01*
X90060341Y-80089560D02*
X89869865Y-79994322D01*
X89869865Y-79994322D02*
X89679389Y-79994322D01*
X89679389Y-79994322D02*
X89393675Y-80089560D01*
X89393675Y-80089560D02*
X88250817Y-81232417D01*
X88250817Y-81232417D02*
X88250817Y-79994322D01*
X90250817Y-78756227D02*
X90250817Y-78565750D01*
X90250817Y-78565750D02*
X90155579Y-78375274D01*
X90155579Y-78375274D02*
X90060341Y-78280036D01*
X90060341Y-78280036D02*
X89869865Y-78184798D01*
X89869865Y-78184798D02*
X89488913Y-78089560D01*
X89488913Y-78089560D02*
X89012722Y-78089560D01*
X89012722Y-78089560D02*
X88631770Y-78184798D01*
X88631770Y-78184798D02*
X88441294Y-78280036D01*
X88441294Y-78280036D02*
X88346056Y-78375274D01*
X88346056Y-78375274D02*
X88250817Y-78565750D01*
X88250817Y-78565750D02*
X88250817Y-78756227D01*
X88250817Y-78756227D02*
X88346056Y-78946703D01*
X88346056Y-78946703D02*
X88441294Y-79041941D01*
X88441294Y-79041941D02*
X88631770Y-79137179D01*
X88631770Y-79137179D02*
X89012722Y-79232417D01*
X89012722Y-79232417D02*
X89488913Y-79232417D01*
X89488913Y-79232417D02*
X89869865Y-79137179D01*
X89869865Y-79137179D02*
X90060341Y-79041941D01*
X90060341Y-79041941D02*
X90155579Y-78946703D01*
X90155579Y-78946703D02*
X90250817Y-78756227D01*
X90060341Y-77327655D02*
X90155579Y-77232417D01*
X90155579Y-77232417D02*
X90250817Y-77041941D01*
X90250817Y-77041941D02*
X90250817Y-76565750D01*
X90250817Y-76565750D02*
X90155579Y-76375274D01*
X90155579Y-76375274D02*
X90060341Y-76280036D01*
X90060341Y-76280036D02*
X89869865Y-76184798D01*
X89869865Y-76184798D02*
X89679389Y-76184798D01*
X89679389Y-76184798D02*
X89393675Y-76280036D01*
X89393675Y-76280036D02*
X88250817Y-77422893D01*
X88250817Y-77422893D02*
X88250817Y-76184798D01*
X90250817Y-74470512D02*
X90250817Y-74851465D01*
X90250817Y-74851465D02*
X90155579Y-75041941D01*
X90155579Y-75041941D02*
X90060341Y-75137179D01*
X90060341Y-75137179D02*
X89774627Y-75327655D01*
X89774627Y-75327655D02*
X89393675Y-75422893D01*
X89393675Y-75422893D02*
X88631770Y-75422893D01*
X88631770Y-75422893D02*
X88441294Y-75327655D01*
X88441294Y-75327655D02*
X88346056Y-75232417D01*
X88346056Y-75232417D02*
X88250817Y-75041941D01*
X88250817Y-75041941D02*
X88250817Y-74660988D01*
X88250817Y-74660988D02*
X88346056Y-74470512D01*
X88346056Y-74470512D02*
X88441294Y-74375274D01*
X88441294Y-74375274D02*
X88631770Y-74280036D01*
X88631770Y-74280036D02*
X89107960Y-74280036D01*
X89107960Y-74280036D02*
X89298436Y-74375274D01*
X89298436Y-74375274D02*
X89393675Y-74470512D01*
X89393675Y-74470512D02*
X89488913Y-74660988D01*
X89488913Y-74660988D02*
X89488913Y-75041941D01*
X89488913Y-75041941D02*
X89393675Y-75232417D01*
X89393675Y-75232417D02*
X89298436Y-75327655D01*
X89298436Y-75327655D02*
X89107960Y-75422893D01*
X89012722Y-73422893D02*
X89012722Y-71899084D01*
X90250817Y-70565751D02*
X90250817Y-70375274D01*
X90250817Y-70375274D02*
X90155579Y-70184798D01*
X90155579Y-70184798D02*
X90060341Y-70089560D01*
X90060341Y-70089560D02*
X89869865Y-69994322D01*
X89869865Y-69994322D02*
X89488913Y-69899084D01*
X89488913Y-69899084D02*
X89012722Y-69899084D01*
X89012722Y-69899084D02*
X88631770Y-69994322D01*
X88631770Y-69994322D02*
X88441294Y-70089560D01*
X88441294Y-70089560D02*
X88346056Y-70184798D01*
X88346056Y-70184798D02*
X88250817Y-70375274D01*
X88250817Y-70375274D02*
X88250817Y-70565751D01*
X88250817Y-70565751D02*
X88346056Y-70756227D01*
X88346056Y-70756227D02*
X88441294Y-70851465D01*
X88441294Y-70851465D02*
X88631770Y-70946703D01*
X88631770Y-70946703D02*
X89012722Y-71041941D01*
X89012722Y-71041941D02*
X89488913Y-71041941D01*
X89488913Y-71041941D02*
X89869865Y-70946703D01*
X89869865Y-70946703D02*
X90060341Y-70851465D01*
X90060341Y-70851465D02*
X90155579Y-70756227D01*
X90155579Y-70756227D02*
X90250817Y-70565751D01*
X90250817Y-68089560D02*
X90250817Y-69041941D01*
X90250817Y-69041941D02*
X89298436Y-69137179D01*
X89298436Y-69137179D02*
X89393675Y-69041941D01*
X89393675Y-69041941D02*
X89488913Y-68851465D01*
X89488913Y-68851465D02*
X89488913Y-68375274D01*
X89488913Y-68375274D02*
X89393675Y-68184798D01*
X89393675Y-68184798D02*
X89298436Y-68089560D01*
X89298436Y-68089560D02*
X89107960Y-67994322D01*
X89107960Y-67994322D02*
X88631770Y-67994322D01*
X88631770Y-67994322D02*
X88441294Y-68089560D01*
X88441294Y-68089560D02*
X88346056Y-68184798D01*
X88346056Y-68184798D02*
X88250817Y-68375274D01*
X88250817Y-68375274D02*
X88250817Y-68851465D01*
X88250817Y-68851465D02*
X88346056Y-69041941D01*
X88346056Y-69041941D02*
X88441294Y-69137179D01*
X89012722Y-67137179D02*
X89012722Y-65613370D01*
X90060341Y-64756227D02*
X90155579Y-64660989D01*
X90155579Y-64660989D02*
X90250817Y-64470513D01*
X90250817Y-64470513D02*
X90250817Y-63994322D01*
X90250817Y-63994322D02*
X90155579Y-63803846D01*
X90155579Y-63803846D02*
X90060341Y-63708608D01*
X90060341Y-63708608D02*
X89869865Y-63613370D01*
X89869865Y-63613370D02*
X89679389Y-63613370D01*
X89679389Y-63613370D02*
X89393675Y-63708608D01*
X89393675Y-63708608D02*
X88250817Y-64851465D01*
X88250817Y-64851465D02*
X88250817Y-63613370D01*
X90250817Y-62946703D02*
X90250817Y-61708608D01*
X90250817Y-61708608D02*
X89488913Y-62375275D01*
X89488913Y-62375275D02*
X89488913Y-62089560D01*
X89488913Y-62089560D02*
X89393675Y-61899084D01*
X89393675Y-61899084D02*
X89298436Y-61803846D01*
X89298436Y-61803846D02*
X89107960Y-61708608D01*
X89107960Y-61708608D02*
X88631770Y-61708608D01*
X88631770Y-61708608D02*
X88441294Y-61803846D01*
X88441294Y-61803846D02*
X88346056Y-61899084D01*
X88346056Y-61899084D02*
X88250817Y-62089560D01*
X88250817Y-62089560D02*
X88250817Y-62660989D01*
X88250817Y-62660989D02*
X88346056Y-62851465D01*
X88346056Y-62851465D02*
X88441294Y-62946703D01*
D11*
X86100056Y-60400416D02*
X95419944Y-60400416D01*
X95419944Y-82799579D01*
X86100056Y-82799579D01*
X86100056Y-60400416D01*
D10*
X155450844Y-58354000D02*
X155641320Y-58449238D01*
X155641320Y-58449238D02*
X156022273Y-58449238D01*
X156022273Y-58449238D02*
X156212749Y-58354000D01*
X156212749Y-58354000D02*
X156307987Y-58258761D01*
X156307987Y-58258761D02*
X156403225Y-58068285D01*
X156403225Y-58068285D02*
X156403225Y-57496857D01*
X156403225Y-57496857D02*
X156307987Y-57306380D01*
X156307987Y-57306380D02*
X156212749Y-57211142D01*
X156212749Y-57211142D02*
X156022273Y-57115904D01*
X156022273Y-57115904D02*
X155641320Y-57115904D01*
X155641320Y-57115904D02*
X155450844Y-57211142D01*
X154307987Y-58449238D02*
X154498463Y-58354000D01*
X154498463Y-58354000D02*
X154593701Y-58258761D01*
X154593701Y-58258761D02*
X154688939Y-58068285D01*
X154688939Y-58068285D02*
X154688939Y-57496857D01*
X154688939Y-57496857D02*
X154593701Y-57306380D01*
X154593701Y-57306380D02*
X154498463Y-57211142D01*
X154498463Y-57211142D02*
X154307987Y-57115904D01*
X154307987Y-57115904D02*
X154022272Y-57115904D01*
X154022272Y-57115904D02*
X153831796Y-57211142D01*
X153831796Y-57211142D02*
X153736558Y-57306380D01*
X153736558Y-57306380D02*
X153641320Y-57496857D01*
X153641320Y-57496857D02*
X153641320Y-58068285D01*
X153641320Y-58068285D02*
X153736558Y-58258761D01*
X153736558Y-58258761D02*
X153831796Y-58354000D01*
X153831796Y-58354000D02*
X154022272Y-58449238D01*
X154022272Y-58449238D02*
X154307987Y-58449238D01*
X152784177Y-58449238D02*
X152784177Y-57115904D01*
X152784177Y-56449238D02*
X152879415Y-56544476D01*
X152879415Y-56544476D02*
X152784177Y-56639714D01*
X152784177Y-56639714D02*
X152688939Y-56544476D01*
X152688939Y-56544476D02*
X152784177Y-56449238D01*
X152784177Y-56449238D02*
X152784177Y-56639714D01*
X151546082Y-58449238D02*
X151736558Y-58354000D01*
X151736558Y-58354000D02*
X151831796Y-58163523D01*
X151831796Y-58163523D02*
X151831796Y-56449238D01*
X149927034Y-57115904D02*
X149927034Y-58734952D01*
X149927034Y-58734952D02*
X150022272Y-58925428D01*
X150022272Y-58925428D02*
X150117510Y-59020666D01*
X150117510Y-59020666D02*
X150307987Y-59115904D01*
X150307987Y-59115904D02*
X150593701Y-59115904D01*
X150593701Y-59115904D02*
X150784177Y-59020666D01*
X149927034Y-58354000D02*
X150117510Y-58449238D01*
X150117510Y-58449238D02*
X150498463Y-58449238D01*
X150498463Y-58449238D02*
X150688939Y-58354000D01*
X150688939Y-58354000D02*
X150784177Y-58258761D01*
X150784177Y-58258761D02*
X150879415Y-58068285D01*
X150879415Y-58068285D02*
X150879415Y-57496857D01*
X150879415Y-57496857D02*
X150784177Y-57306380D01*
X150784177Y-57306380D02*
X150688939Y-57211142D01*
X150688939Y-57211142D02*
X150498463Y-57115904D01*
X150498463Y-57115904D02*
X150117510Y-57115904D01*
X150117510Y-57115904D02*
X149927034Y-57211142D01*
X148117510Y-57115904D02*
X148117510Y-58449238D01*
X148974653Y-57115904D02*
X148974653Y-58163523D01*
X148974653Y-58163523D02*
X148879415Y-58354000D01*
X148879415Y-58354000D02*
X148688939Y-58449238D01*
X148688939Y-58449238D02*
X148403224Y-58449238D01*
X148403224Y-58449238D02*
X148212748Y-58354000D01*
X148212748Y-58354000D02*
X148117510Y-58258761D01*
X147165129Y-57115904D02*
X147165129Y-58449238D01*
X147165129Y-57306380D02*
X147069891Y-57211142D01*
X147069891Y-57211142D02*
X146879415Y-57115904D01*
X146879415Y-57115904D02*
X146593700Y-57115904D01*
X146593700Y-57115904D02*
X146403224Y-57211142D01*
X146403224Y-57211142D02*
X146307986Y-57401619D01*
X146307986Y-57401619D02*
X146307986Y-58449238D01*
X156403225Y-59859602D02*
X156307987Y-59764364D01*
X156307987Y-59764364D02*
X156117511Y-59669126D01*
X156117511Y-59669126D02*
X155641320Y-59669126D01*
X155641320Y-59669126D02*
X155450844Y-59764364D01*
X155450844Y-59764364D02*
X155355606Y-59859602D01*
X155355606Y-59859602D02*
X155260368Y-60050078D01*
X155260368Y-60050078D02*
X155260368Y-60240554D01*
X155260368Y-60240554D02*
X155355606Y-60526268D01*
X155355606Y-60526268D02*
X156498463Y-61669126D01*
X156498463Y-61669126D02*
X155260368Y-61669126D01*
X154022273Y-59669126D02*
X153831796Y-59669126D01*
X153831796Y-59669126D02*
X153641320Y-59764364D01*
X153641320Y-59764364D02*
X153546082Y-59859602D01*
X153546082Y-59859602D02*
X153450844Y-60050078D01*
X153450844Y-60050078D02*
X153355606Y-60431030D01*
X153355606Y-60431030D02*
X153355606Y-60907221D01*
X153355606Y-60907221D02*
X153450844Y-61288173D01*
X153450844Y-61288173D02*
X153546082Y-61478649D01*
X153546082Y-61478649D02*
X153641320Y-61573888D01*
X153641320Y-61573888D02*
X153831796Y-61669126D01*
X153831796Y-61669126D02*
X154022273Y-61669126D01*
X154022273Y-61669126D02*
X154212749Y-61573888D01*
X154212749Y-61573888D02*
X154307987Y-61478649D01*
X154307987Y-61478649D02*
X154403225Y-61288173D01*
X154403225Y-61288173D02*
X154498463Y-60907221D01*
X154498463Y-60907221D02*
X154498463Y-60431030D01*
X154498463Y-60431030D02*
X154403225Y-60050078D01*
X154403225Y-60050078D02*
X154307987Y-59859602D01*
X154307987Y-59859602D02*
X154212749Y-59764364D01*
X154212749Y-59764364D02*
X154022273Y-59669126D01*
X152593701Y-59859602D02*
X152498463Y-59764364D01*
X152498463Y-59764364D02*
X152307987Y-59669126D01*
X152307987Y-59669126D02*
X151831796Y-59669126D01*
X151831796Y-59669126D02*
X151641320Y-59764364D01*
X151641320Y-59764364D02*
X151546082Y-59859602D01*
X151546082Y-59859602D02*
X151450844Y-60050078D01*
X151450844Y-60050078D02*
X151450844Y-60240554D01*
X151450844Y-60240554D02*
X151546082Y-60526268D01*
X151546082Y-60526268D02*
X152688939Y-61669126D01*
X152688939Y-61669126D02*
X151450844Y-61669126D01*
X149736558Y-59669126D02*
X150117511Y-59669126D01*
X150117511Y-59669126D02*
X150307987Y-59764364D01*
X150307987Y-59764364D02*
X150403225Y-59859602D01*
X150403225Y-59859602D02*
X150593701Y-60145316D01*
X150593701Y-60145316D02*
X150688939Y-60526268D01*
X150688939Y-60526268D02*
X150688939Y-61288173D01*
X150688939Y-61288173D02*
X150593701Y-61478649D01*
X150593701Y-61478649D02*
X150498463Y-61573888D01*
X150498463Y-61573888D02*
X150307987Y-61669126D01*
X150307987Y-61669126D02*
X149927034Y-61669126D01*
X149927034Y-61669126D02*
X149736558Y-61573888D01*
X149736558Y-61573888D02*
X149641320Y-61478649D01*
X149641320Y-61478649D02*
X149546082Y-61288173D01*
X149546082Y-61288173D02*
X149546082Y-60811983D01*
X149546082Y-60811983D02*
X149641320Y-60621507D01*
X149641320Y-60621507D02*
X149736558Y-60526268D01*
X149736558Y-60526268D02*
X149927034Y-60431030D01*
X149927034Y-60431030D02*
X150307987Y-60431030D01*
X150307987Y-60431030D02*
X150498463Y-60526268D01*
X150498463Y-60526268D02*
X150593701Y-60621507D01*
X150593701Y-60621507D02*
X150688939Y-60811983D01*
X148688939Y-60907221D02*
X147165130Y-60907221D01*
X145831797Y-59669126D02*
X145641320Y-59669126D01*
X145641320Y-59669126D02*
X145450844Y-59764364D01*
X145450844Y-59764364D02*
X145355606Y-59859602D01*
X145355606Y-59859602D02*
X145260368Y-60050078D01*
X145260368Y-60050078D02*
X145165130Y-60431030D01*
X145165130Y-60431030D02*
X145165130Y-60907221D01*
X145165130Y-60907221D02*
X145260368Y-61288173D01*
X145260368Y-61288173D02*
X145355606Y-61478649D01*
X145355606Y-61478649D02*
X145450844Y-61573888D01*
X145450844Y-61573888D02*
X145641320Y-61669126D01*
X145641320Y-61669126D02*
X145831797Y-61669126D01*
X145831797Y-61669126D02*
X146022273Y-61573888D01*
X146022273Y-61573888D02*
X146117511Y-61478649D01*
X146117511Y-61478649D02*
X146212749Y-61288173D01*
X146212749Y-61288173D02*
X146307987Y-60907221D01*
X146307987Y-60907221D02*
X146307987Y-60431030D01*
X146307987Y-60431030D02*
X146212749Y-60050078D01*
X146212749Y-60050078D02*
X146117511Y-59859602D01*
X146117511Y-59859602D02*
X146022273Y-59764364D01*
X146022273Y-59764364D02*
X145831797Y-59669126D01*
X143355606Y-59669126D02*
X144307987Y-59669126D01*
X144307987Y-59669126D02*
X144403225Y-60621507D01*
X144403225Y-60621507D02*
X144307987Y-60526268D01*
X144307987Y-60526268D02*
X144117511Y-60431030D01*
X144117511Y-60431030D02*
X143641320Y-60431030D01*
X143641320Y-60431030D02*
X143450844Y-60526268D01*
X143450844Y-60526268D02*
X143355606Y-60621507D01*
X143355606Y-60621507D02*
X143260368Y-60811983D01*
X143260368Y-60811983D02*
X143260368Y-61288173D01*
X143260368Y-61288173D02*
X143355606Y-61478649D01*
X143355606Y-61478649D02*
X143450844Y-61573888D01*
X143450844Y-61573888D02*
X143641320Y-61669126D01*
X143641320Y-61669126D02*
X144117511Y-61669126D01*
X144117511Y-61669126D02*
X144307987Y-61573888D01*
X144307987Y-61573888D02*
X144403225Y-61478649D01*
X142403225Y-60907221D02*
X140879416Y-60907221D01*
X140022273Y-59859602D02*
X139927035Y-59764364D01*
X139927035Y-59764364D02*
X139736559Y-59669126D01*
X139736559Y-59669126D02*
X139260368Y-59669126D01*
X139260368Y-59669126D02*
X139069892Y-59764364D01*
X139069892Y-59764364D02*
X138974654Y-59859602D01*
X138974654Y-59859602D02*
X138879416Y-60050078D01*
X138879416Y-60050078D02*
X138879416Y-60240554D01*
X138879416Y-60240554D02*
X138974654Y-60526268D01*
X138974654Y-60526268D02*
X140117511Y-61669126D01*
X140117511Y-61669126D02*
X138879416Y-61669126D01*
X138212749Y-59669126D02*
X136974654Y-59669126D01*
X136974654Y-59669126D02*
X137641321Y-60431030D01*
X137641321Y-60431030D02*
X137355606Y-60431030D01*
X137355606Y-60431030D02*
X137165130Y-60526268D01*
X137165130Y-60526268D02*
X137069892Y-60621507D01*
X137069892Y-60621507D02*
X136974654Y-60811983D01*
X136974654Y-60811983D02*
X136974654Y-61288173D01*
X136974654Y-61288173D02*
X137069892Y-61478649D01*
X137069892Y-61478649D02*
X137165130Y-61573888D01*
X137165130Y-61573888D02*
X137355606Y-61669126D01*
X137355606Y-61669126D02*
X137927035Y-61669126D01*
X137927035Y-61669126D02*
X138117511Y-61573888D01*
X138117511Y-61573888D02*
X138212749Y-61478649D01*
D11*
X135666462Y-54500000D02*
X158065625Y-54500000D01*
X158065625Y-63819888D01*
X135666462Y-63819888D01*
X135666462Y-54500000D01*
D12*
%TO.C,G\u002A\u002A\u002A*%
G36*
X107750628Y-54760645D02*
G01*
X107750628Y-55877697D01*
X107228110Y-55873490D01*
X106705591Y-55869284D01*
X106705591Y-55685804D01*
X106705591Y-55502324D01*
X106813285Y-55497606D01*
X106920980Y-55492889D01*
X106920980Y-54752449D01*
X106920980Y-54012010D01*
X106813285Y-54007293D01*
X106705591Y-54002575D01*
X106701080Y-53823084D01*
X106696568Y-53643593D01*
X107223598Y-53643593D01*
X107750628Y-53643593D01*
X107750628Y-54760645D01*
G37*
G36*
X106789554Y-54736432D02*
G01*
X106789593Y-54741962D01*
X106790320Y-54876360D01*
X106790591Y-55000906D01*
X106790428Y-55111923D01*
X106789853Y-55205737D01*
X106788888Y-55278671D01*
X106787555Y-55327049D01*
X106785877Y-55347195D01*
X106783915Y-55350340D01*
X106766854Y-55358227D01*
X106730296Y-55362786D01*
X106670131Y-55364341D01*
X106582253Y-55363213D01*
X106386495Y-55358731D01*
X106386495Y-54752449D01*
X106386495Y-54146168D01*
X106585930Y-54146168D01*
X106785365Y-54146168D01*
X106789554Y-54736432D01*
G37*
G36*
X114569598Y-53148563D02*
G01*
X114627125Y-53148669D01*
X114783707Y-53149152D01*
X114929565Y-53149884D01*
X115061673Y-53150831D01*
X115177004Y-53151961D01*
X115272532Y-53153242D01*
X115345230Y-53154640D01*
X115392071Y-53156123D01*
X115410030Y-53157658D01*
X115411954Y-53159245D01*
X115429846Y-53179668D01*
X115460246Y-53217796D01*
X115498563Y-53267506D01*
X115540206Y-53322674D01*
X115580586Y-53377177D01*
X115615112Y-53424890D01*
X115639194Y-53459689D01*
X115648241Y-53475451D01*
X115646934Y-53475888D01*
X115622747Y-53477359D01*
X115570091Y-53478742D01*
X115491639Y-53480014D01*
X115390061Y-53481152D01*
X115268031Y-53482133D01*
X115128222Y-53482936D01*
X114973304Y-53483537D01*
X114805951Y-53483914D01*
X114628835Y-53484045D01*
X113609428Y-53484045D01*
X113675647Y-53315681D01*
X113741866Y-53147317D01*
X114569598Y-53148563D01*
G37*
G36*
X103971776Y-54691583D02*
G01*
X103972532Y-54802113D01*
X103973156Y-54901797D01*
X103973518Y-54976802D01*
X103973615Y-55030984D01*
X103973440Y-55068199D01*
X103972991Y-55092301D01*
X103972260Y-55107147D01*
X103971245Y-55116593D01*
X103970629Y-55117139D01*
X103949329Y-55119814D01*
X103900229Y-55121957D01*
X103826795Y-55123531D01*
X103732496Y-55124497D01*
X103620798Y-55124817D01*
X103495169Y-55124451D01*
X103359077Y-55123363D01*
X103257431Y-55122291D01*
X103119906Y-55120701D01*
X103008212Y-55119033D01*
X102918621Y-55117046D01*
X102847405Y-55114497D01*
X102790836Y-55111144D01*
X102745188Y-55106745D01*
X102706731Y-55101057D01*
X102671738Y-55093837D01*
X102636483Y-55084844D01*
X102597236Y-55073836D01*
X102492313Y-55039298D01*
X102366562Y-54988473D01*
X102241444Y-54929360D01*
X102127175Y-54866822D01*
X102033971Y-54805722D01*
X101941371Y-54737077D01*
X101994084Y-54693731D01*
X102078411Y-54632839D01*
X102198321Y-54563213D01*
X102335434Y-54497450D01*
X102481965Y-54439240D01*
X102630131Y-54392270D01*
X102665883Y-54382851D01*
X102700575Y-54375029D01*
X102737380Y-54368740D01*
X102780024Y-54363767D01*
X102832230Y-54359894D01*
X102897723Y-54356905D01*
X102980228Y-54354582D01*
X103083469Y-54352710D01*
X103211169Y-54351072D01*
X103367054Y-54349452D01*
X103969347Y-54343531D01*
X103971776Y-54691583D01*
G37*
G36*
X103688921Y-53867328D02*
G01*
X103713925Y-53873001D01*
X103764529Y-53886660D01*
X103836482Y-53907052D01*
X103925532Y-53932923D01*
X104027429Y-53963018D01*
X104137921Y-53996083D01*
X104252758Y-54030865D01*
X104367690Y-54066108D01*
X104478464Y-54100559D01*
X104497743Y-54106595D01*
X104596338Y-54136879D01*
X104669184Y-54157457D01*
X104720154Y-54168659D01*
X104753125Y-54170809D01*
X104771972Y-54164236D01*
X104780571Y-54149265D01*
X104782796Y-54126225D01*
X104784353Y-54118784D01*
X104802984Y-54106857D01*
X104808358Y-54107962D01*
X104840389Y-54117273D01*
X104897065Y-54135031D01*
X104974556Y-54159993D01*
X105069029Y-54190919D01*
X105176652Y-54226569D01*
X105293593Y-54265701D01*
X105764259Y-54423970D01*
X105505960Y-54424673D01*
X105505242Y-54424675D01*
X105402875Y-54424410D01*
X105323292Y-54422360D01*
X105257437Y-54417586D01*
X105196250Y-54409147D01*
X105130673Y-54396102D01*
X105051649Y-54377512D01*
X104976193Y-54359287D01*
X104901385Y-54342484D01*
X104849220Y-54333629D01*
X104815018Y-54332727D01*
X104794098Y-54339782D01*
X104781780Y-54354799D01*
X104773382Y-54377783D01*
X104759108Y-54425918D01*
X104463945Y-54275596D01*
X104404896Y-54245496D01*
X104246936Y-54164673D01*
X104104890Y-54091539D01*
X103980560Y-54027041D01*
X103875745Y-53972127D01*
X103792246Y-53927743D01*
X103731862Y-53894837D01*
X103696395Y-53874354D01*
X103687645Y-53867243D01*
X103688921Y-53867328D01*
G37*
G36*
X108054543Y-55880508D02*
G01*
X108171269Y-55885238D01*
X108199567Y-56084673D01*
X108222539Y-56231993D01*
X108254596Y-56401909D01*
X108290063Y-56557083D01*
X108328105Y-56695076D01*
X108367884Y-56813450D01*
X108408566Y-56909764D01*
X108449314Y-56981580D01*
X108489292Y-57026458D01*
X108527664Y-57041960D01*
X108553462Y-57034285D01*
X108592813Y-56998293D01*
X108634047Y-56935286D01*
X108675740Y-56847964D01*
X108716467Y-56739029D01*
X108754805Y-56611181D01*
X108767711Y-56557774D01*
X108785396Y-56474360D01*
X108805042Y-56373769D01*
X108825253Y-56263635D01*
X108844632Y-56151596D01*
X108861782Y-56045286D01*
X108875308Y-55952342D01*
X108885584Y-55875852D01*
X108991352Y-55880545D01*
X109097119Y-55885238D01*
X109093008Y-55980967D01*
X109090092Y-56028612D01*
X109076970Y-56152372D01*
X109055906Y-56293013D01*
X109028378Y-56441294D01*
X108995865Y-56587975D01*
X108992722Y-56600895D01*
X108945612Y-56774231D01*
X108896078Y-56917859D01*
X108843039Y-57033819D01*
X108785412Y-57124147D01*
X108722117Y-57190883D01*
X108652073Y-57236064D01*
X108605735Y-57252803D01*
X108516928Y-57261018D01*
X108427305Y-57242741D01*
X108344120Y-57199924D01*
X108274624Y-57134516D01*
X108266296Y-57123438D01*
X108226360Y-57058150D01*
X108183519Y-56971746D01*
X108141280Y-56872344D01*
X108103152Y-56768063D01*
X108072641Y-56667022D01*
X108064981Y-56636915D01*
X108042566Y-56539000D01*
X108019073Y-56424613D01*
X107996240Y-56303247D01*
X107975804Y-56184393D01*
X107959504Y-56077544D01*
X107949077Y-55992191D01*
X107937816Y-55875777D01*
X108054543Y-55880508D01*
G37*
G36*
X105142192Y-54584937D02*
G01*
X105161802Y-54587234D01*
X105208583Y-54593112D01*
X105278398Y-54602039D01*
X105367108Y-54613484D01*
X105470577Y-54626916D01*
X105584667Y-54641802D01*
X105699064Y-54656704D01*
X105812322Y-54671339D01*
X105914517Y-54684427D01*
X106000508Y-54695311D01*
X106065149Y-54703339D01*
X106103298Y-54707853D01*
X106136951Y-54712556D01*
X106175298Y-54722802D01*
X106184155Y-54733200D01*
X106162992Y-54741296D01*
X106111275Y-54744637D01*
X106099869Y-54744877D01*
X106050942Y-54747362D01*
X105978342Y-54752200D01*
X105887895Y-54758962D01*
X105785429Y-54767220D01*
X105676770Y-54776547D01*
X105622689Y-54781328D01*
X105524638Y-54789974D01*
X105440174Y-54797391D01*
X105373847Y-54803181D01*
X105330205Y-54806947D01*
X105313799Y-54808291D01*
X105313247Y-54808763D01*
X105310618Y-54827196D01*
X105309548Y-54864133D01*
X105309448Y-54871364D01*
X105305499Y-54906051D01*
X105297582Y-54920370D01*
X105296330Y-54920388D01*
X105267450Y-54918372D01*
X105213397Y-54912707D01*
X105138544Y-54903979D01*
X105047261Y-54892771D01*
X104943921Y-54879667D01*
X104832897Y-54865251D01*
X104718560Y-54850108D01*
X104605283Y-54834821D01*
X104497437Y-54819975D01*
X104399396Y-54806152D01*
X104315531Y-54793938D01*
X104250214Y-54783917D01*
X104207818Y-54776672D01*
X104192714Y-54772787D01*
X104204740Y-54764416D01*
X104236589Y-54760822D01*
X104261880Y-54759729D01*
X104315052Y-54756226D01*
X104390865Y-54750660D01*
X104484628Y-54743386D01*
X104591655Y-54734760D01*
X104707255Y-54725137D01*
X105134046Y-54689056D01*
X105134046Y-54636990D01*
X105134069Y-54632955D01*
X105136566Y-54598901D01*
X105141922Y-54584924D01*
X105142192Y-54584937D01*
G37*
G36*
X108657375Y-52263095D02*
G01*
X108719346Y-52285863D01*
X108730384Y-52293311D01*
X108793389Y-52355120D01*
X108853516Y-52447182D01*
X108910334Y-52568157D01*
X108963410Y-52716704D01*
X109012315Y-52891485D01*
X109056616Y-53091159D01*
X109095881Y-53314388D01*
X109129680Y-53559830D01*
X109139793Y-53643593D01*
X109022515Y-53643593D01*
X108905237Y-53643593D01*
X108886973Y-53487926D01*
X108870696Y-53367708D01*
X108844497Y-53214585D01*
X108812986Y-53062049D01*
X108777697Y-52916347D01*
X108740165Y-52783726D01*
X108701926Y-52670433D01*
X108664514Y-52582714D01*
X108635548Y-52528381D01*
X108602778Y-52480178D01*
X108572423Y-52454537D01*
X108540390Y-52446985D01*
X108515940Y-52451169D01*
X108485501Y-52471983D01*
X108453679Y-52514304D01*
X108416387Y-52582600D01*
X108385585Y-52651130D01*
X108337336Y-52789171D01*
X108292540Y-52957382D01*
X108251449Y-53154768D01*
X108214314Y-53380339D01*
X108210261Y-53408133D01*
X108198974Y-53487180D01*
X108189851Y-53553484D01*
X108183741Y-53600774D01*
X108181494Y-53622775D01*
X108178794Y-53628474D01*
X108152920Y-53640387D01*
X108105622Y-53647820D01*
X108085778Y-53649363D01*
X108028742Y-53653604D01*
X107984103Y-53656672D01*
X107938368Y-53659547D01*
X107949523Y-53551853D01*
X107951714Y-53531579D01*
X107966699Y-53416527D01*
X107987041Y-53286368D01*
X108011017Y-53150472D01*
X108036902Y-53018210D01*
X108062973Y-52898950D01*
X108087505Y-52802063D01*
X108100749Y-52755887D01*
X108138861Y-52636891D01*
X108177236Y-52542630D01*
X108219148Y-52467923D01*
X108267870Y-52407591D01*
X108326673Y-52356454D01*
X108398831Y-52309333D01*
X108416993Y-52299495D01*
X108496123Y-52270649D01*
X108579609Y-52258270D01*
X108657375Y-52263095D01*
G37*
G36*
X105436243Y-55108498D02*
G01*
X105447745Y-55108638D01*
X105542543Y-55110019D01*
X105625160Y-55111609D01*
X105690664Y-55113284D01*
X105734124Y-55114921D01*
X105750608Y-55116395D01*
X105750631Y-55116427D01*
X105736992Y-55122678D01*
X105697730Y-55137167D01*
X105637459Y-55158276D01*
X105560791Y-55184390D01*
X105472342Y-55213892D01*
X105405682Y-55236156D01*
X105294853Y-55274037D01*
X105185044Y-55312482D01*
X105086042Y-55348051D01*
X105007633Y-55377300D01*
X104944925Y-55400922D01*
X104881136Y-55422410D01*
X104839042Y-55431446D01*
X104814274Y-55428203D01*
X104802463Y-55412856D01*
X104799240Y-55385577D01*
X104792289Y-55373031D01*
X104763097Y-55375640D01*
X104751940Y-55379136D01*
X104711029Y-55392117D01*
X104649248Y-55411818D01*
X104572798Y-55436261D01*
X104487877Y-55463466D01*
X104465707Y-55470565D01*
X104354313Y-55505997D01*
X104229290Y-55545469D01*
X104104368Y-55584656D01*
X103993279Y-55619232D01*
X103898184Y-55648355D01*
X103807351Y-55675178D01*
X103744661Y-55692218D01*
X103708977Y-55699753D01*
X103699160Y-55698062D01*
X103714071Y-55687421D01*
X103736022Y-55675183D01*
X103823860Y-55626551D01*
X103923107Y-55572038D01*
X104030181Y-55513570D01*
X104141499Y-55453076D01*
X104253480Y-55392480D01*
X104362543Y-55333712D01*
X104465104Y-55278698D01*
X104557582Y-55229365D01*
X104636394Y-55187640D01*
X104697960Y-55155451D01*
X104738696Y-55134724D01*
X104755021Y-55127387D01*
X104756494Y-55128099D01*
X104765214Y-55147364D01*
X104774288Y-55184707D01*
X104774633Y-55186539D01*
X104784089Y-55222917D01*
X104798967Y-55235412D01*
X104827916Y-55231587D01*
X104836297Y-55229206D01*
X104877649Y-55214269D01*
X104934941Y-55190883D01*
X104998430Y-55162969D01*
X105126068Y-55104791D01*
X105436243Y-55108498D01*
G37*
G36*
X112604575Y-52208103D02*
G01*
X112698246Y-52225568D01*
X112781228Y-52265583D01*
X112844660Y-52324138D01*
X112860246Y-52345655D01*
X112920691Y-52449994D01*
X112978430Y-52582801D01*
X113032611Y-52741363D01*
X113082381Y-52922966D01*
X113126887Y-53124896D01*
X113165276Y-53344441D01*
X113186787Y-53484045D01*
X113069640Y-53484045D01*
X113046579Y-53483988D01*
X112994932Y-53482497D01*
X112965604Y-53477412D01*
X112951385Y-53466654D01*
X112945064Y-53448147D01*
X112942632Y-53435649D01*
X112934693Y-53392013D01*
X112923904Y-53330655D01*
X112911877Y-53260678D01*
X112899203Y-53189757D01*
X112867381Y-53036244D01*
X112831881Y-52893540D01*
X112793811Y-52764623D01*
X112754277Y-52652468D01*
X112714384Y-52560055D01*
X112675239Y-52490359D01*
X112637948Y-52446358D01*
X112603618Y-52431030D01*
X112589020Y-52432428D01*
X112540661Y-52457186D01*
X112493802Y-52511465D01*
X112448778Y-52593437D01*
X112405924Y-52701274D01*
X112365573Y-52833148D01*
X112328061Y-52987231D01*
X112293721Y-53161694D01*
X112262887Y-53354710D01*
X112235895Y-53564450D01*
X112213079Y-53789088D01*
X112194773Y-54026793D01*
X112181311Y-54275740D01*
X112173028Y-54534098D01*
X112170259Y-54800041D01*
X112171754Y-54980975D01*
X112178688Y-55234535D01*
X112190949Y-55480125D01*
X112208185Y-55715572D01*
X112230045Y-55938703D01*
X112256177Y-56147345D01*
X112286230Y-56339324D01*
X112319853Y-56512467D01*
X112356693Y-56664601D01*
X112396401Y-56793552D01*
X112438623Y-56897147D01*
X112483009Y-56973213D01*
X112529207Y-57019575D01*
X112552931Y-57033580D01*
X112577531Y-57036405D01*
X112608734Y-57019575D01*
X112613391Y-57016319D01*
X112654444Y-56971291D01*
X112696635Y-56897867D01*
X112738904Y-56799119D01*
X112780191Y-56678118D01*
X112819434Y-56537936D01*
X112855573Y-56381643D01*
X112887546Y-56212311D01*
X112891587Y-56188364D01*
X112904119Y-56115570D01*
X112913854Y-56067641D01*
X112922997Y-56039392D01*
X112933750Y-56025635D01*
X112948319Y-56021185D01*
X112968907Y-56020854D01*
X112976383Y-56021014D01*
X112999625Y-56026017D01*
X113019672Y-56042431D01*
X113041937Y-56076160D01*
X113071832Y-56133107D01*
X113128362Y-56245359D01*
X113073923Y-56488100D01*
X113060818Y-56544886D01*
X113014976Y-56718502D01*
X112966200Y-56864619D01*
X112913254Y-56986625D01*
X112854902Y-57087907D01*
X112844159Y-57103679D01*
X112787123Y-57174782D01*
X112729982Y-57221675D01*
X112666078Y-57250078D01*
X112596724Y-57262681D01*
X112504316Y-57253322D01*
X112416451Y-57214830D01*
X112335517Y-57148807D01*
X112263904Y-57056853D01*
X112204001Y-56940567D01*
X112180607Y-56881354D01*
X112133213Y-56739267D01*
X112090557Y-56577682D01*
X112051958Y-56393512D01*
X112016735Y-56183670D01*
X111984206Y-55945069D01*
X111956093Y-55717713D01*
X111443030Y-55717713D01*
X110929966Y-55717713D01*
X110919820Y-55643690D01*
X110919618Y-55642192D01*
X110914600Y-55587626D01*
X110911032Y-55516662D01*
X110909674Y-55444255D01*
X110909674Y-55318844D01*
X111420226Y-55318844D01*
X111930779Y-55318844D01*
X111930779Y-55167274D01*
X111930779Y-55015703D01*
X111412249Y-55015703D01*
X110893719Y-55015703D01*
X110893719Y-54752449D01*
X110893719Y-54489196D01*
X111412249Y-54489196D01*
X111930779Y-54489196D01*
X111930779Y-54337625D01*
X111930779Y-54186055D01*
X111416238Y-54186071D01*
X110901696Y-54186088D01*
X110911972Y-54022535D01*
X110914875Y-53975970D01*
X110919048Y-53907735D01*
X110922244Y-53853858D01*
X110923938Y-53823084D01*
X110925628Y-53787186D01*
X111443181Y-53787186D01*
X111960734Y-53787186D01*
X111969106Y-53719378D01*
X111992672Y-53537343D01*
X112029726Y-53285892D01*
X112068657Y-53064277D01*
X112109973Y-52871259D01*
X112154181Y-52705595D01*
X112201788Y-52566046D01*
X112253302Y-52451370D01*
X112309230Y-52360327D01*
X112370079Y-52291675D01*
X112436357Y-52244174D01*
X112508572Y-52216584D01*
X112587229Y-52207663D01*
X112604575Y-52208103D01*
G37*
G36*
X111322634Y-52229589D02*
G01*
X111395744Y-52271072D01*
X111462291Y-52336952D01*
X111523262Y-52428724D01*
X111579647Y-52547882D01*
X111632434Y-52695921D01*
X111682611Y-52874333D01*
X111689414Y-52902036D01*
X111714286Y-53015823D01*
X111739289Y-53147057D01*
X111762504Y-53284565D01*
X111782011Y-53417179D01*
X111795892Y-53533727D01*
X111798630Y-53561726D01*
X111801621Y-53606593D01*
X111798285Y-53630713D01*
X111786476Y-53641744D01*
X111764049Y-53647346D01*
X111753583Y-53648865D01*
X111705074Y-53650654D01*
X111650516Y-53647416D01*
X111638200Y-53646134D01*
X111612941Y-53643066D01*
X111594744Y-53636540D01*
X111581609Y-53621877D01*
X111571532Y-53594401D01*
X111562513Y-53549434D01*
X111552550Y-53482298D01*
X111539642Y-53388316D01*
X111515115Y-53227787D01*
X111481848Y-53050314D01*
X111444991Y-52890710D01*
X111405302Y-52751312D01*
X111363537Y-52634459D01*
X111320454Y-52542486D01*
X111276810Y-52477734D01*
X111233361Y-52442539D01*
X111218219Y-52436335D01*
X111195624Y-52434519D01*
X111172668Y-52449255D01*
X111139764Y-52484881D01*
X111126250Y-52501892D01*
X111080200Y-52581112D01*
X111035736Y-52690802D01*
X110993164Y-52829861D01*
X110952794Y-52997189D01*
X110914934Y-53191685D01*
X110879891Y-53412248D01*
X110874770Y-53448588D01*
X110843281Y-53711888D01*
X110819494Y-53986991D01*
X110803257Y-54270300D01*
X110794417Y-54558217D01*
X110792820Y-54847145D01*
X110798313Y-55133487D01*
X110810743Y-55413644D01*
X110829958Y-55684020D01*
X110855804Y-55941017D01*
X110888128Y-56181039D01*
X110926778Y-56400486D01*
X110971599Y-56595763D01*
X111022440Y-56763272D01*
X111041938Y-56816718D01*
X111079745Y-56907185D01*
X111114918Y-56970073D01*
X111149510Y-57007972D01*
X111185572Y-57023475D01*
X111225158Y-57019173D01*
X111260222Y-56993693D01*
X111298008Y-56939438D01*
X111336843Y-56859864D01*
X111375705Y-56758222D01*
X111413573Y-56637765D01*
X111449428Y-56501744D01*
X111482248Y-56353412D01*
X111511013Y-56196020D01*
X111534702Y-56032820D01*
X111554321Y-55877261D01*
X111661773Y-55877261D01*
X111769225Y-55877261D01*
X111762475Y-55929114D01*
X111762228Y-55931022D01*
X111757500Y-55968816D01*
X111750056Y-56029630D01*
X111740867Y-56105479D01*
X111730905Y-56188379D01*
X111720372Y-56269997D01*
X111686712Y-56473751D01*
X111645288Y-56657846D01*
X111596851Y-56820265D01*
X111542156Y-56958997D01*
X111481953Y-57072026D01*
X111416997Y-57157339D01*
X111348039Y-57212923D01*
X111312850Y-57228851D01*
X111230469Y-57246990D01*
X111142870Y-57246897D01*
X111064471Y-57227816D01*
X111060923Y-57226294D01*
X110990491Y-57178626D01*
X110924255Y-57099710D01*
X110862353Y-56989929D01*
X110804922Y-56849668D01*
X110752101Y-56679311D01*
X110704024Y-56479242D01*
X110660831Y-56249844D01*
X110622659Y-55991501D01*
X110616395Y-55944543D01*
X110605051Y-55864359D01*
X110594876Y-55798362D01*
X110586791Y-55752379D01*
X110581716Y-55732236D01*
X110578784Y-55730851D01*
X110550349Y-55727261D01*
X110494855Y-55724095D01*
X110415860Y-55721455D01*
X110316925Y-55719444D01*
X110201609Y-55718163D01*
X110073471Y-55717713D01*
X109574202Y-55717713D01*
X109563956Y-55586086D01*
X109563175Y-55575869D01*
X109558361Y-55503417D01*
X109554942Y-55435863D01*
X109553614Y-55386652D01*
X109553518Y-55318844D01*
X110056692Y-55318844D01*
X110559866Y-55318844D01*
X110555279Y-55171262D01*
X110550691Y-55023681D01*
X110048116Y-55015703D01*
X109545540Y-55007726D01*
X109545540Y-54752449D01*
X109545540Y-54497173D01*
X110052105Y-54492960D01*
X110558669Y-54488747D01*
X110558669Y-54337401D01*
X110558669Y-54186055D01*
X110054519Y-54186055D01*
X109550370Y-54186055D01*
X109561815Y-53998586D01*
X109566645Y-53927095D01*
X109571853Y-53863847D01*
X109576608Y-53818947D01*
X109580285Y-53799152D01*
X109585088Y-53797656D01*
X109616682Y-53794838D01*
X109674360Y-53792327D01*
X109754236Y-53790215D01*
X109852427Y-53788593D01*
X109965051Y-53787553D01*
X110088221Y-53787186D01*
X110589132Y-53787186D01*
X110596896Y-53735333D01*
X110597464Y-53731444D01*
X110602800Y-53691803D01*
X110610767Y-53629530D01*
X110620385Y-53552376D01*
X110630674Y-53468090D01*
X110645154Y-53357161D01*
X110677911Y-53151762D01*
X110716281Y-52960248D01*
X110759211Y-52787116D01*
X110805643Y-52636865D01*
X110854522Y-52513994D01*
X110866956Y-52487788D01*
X110930166Y-52376167D01*
X110997290Y-52294393D01*
X111070508Y-52240769D01*
X111152002Y-52213602D01*
X111243951Y-52211194D01*
X111322634Y-52229589D01*
G37*
G36*
X109453420Y-54432498D02*
G01*
X109450095Y-54776382D01*
X109451763Y-55049939D01*
X109455569Y-55225243D01*
X109457380Y-55308637D01*
X109467281Y-55543462D01*
X109481798Y-55758413D01*
X109501261Y-55957492D01*
X109526001Y-56144699D01*
X109556350Y-56324034D01*
X109592638Y-56499497D01*
X109611517Y-56578205D01*
X109648235Y-56707675D01*
X109687587Y-56820188D01*
X109728212Y-56912810D01*
X109768750Y-56982602D01*
X109807840Y-57026631D01*
X109844120Y-57041960D01*
X109859760Y-57039359D01*
X109899473Y-57011442D01*
X109940296Y-56954568D01*
X109981509Y-56870788D01*
X110022389Y-56762152D01*
X110062217Y-56630711D01*
X110100272Y-56478514D01*
X110135833Y-56307611D01*
X110168180Y-56120054D01*
X110175768Y-56070844D01*
X110187944Y-55992241D01*
X110198032Y-55938189D01*
X110208684Y-55904146D01*
X110222552Y-55885573D01*
X110242286Y-55877928D01*
X110270539Y-55876671D01*
X110309961Y-55877261D01*
X110409724Y-55877261D01*
X110403575Y-55969001D01*
X110398095Y-56031495D01*
X110386739Y-56128904D01*
X110371662Y-56239382D01*
X110354239Y-56353964D01*
X110335847Y-56463686D01*
X110317863Y-56559584D01*
X110301663Y-56632693D01*
X110276662Y-56725367D01*
X110223721Y-56885379D01*
X110165519Y-57015610D01*
X110101349Y-57117289D01*
X110030503Y-57191646D01*
X109952273Y-57239911D01*
X109924015Y-57250497D01*
X109835154Y-57263131D01*
X109747836Y-57245929D01*
X109665110Y-57200389D01*
X109590024Y-57128009D01*
X109525628Y-57030286D01*
X109488072Y-56949061D01*
X109442574Y-56824444D01*
X109398835Y-56677222D01*
X109358000Y-56512524D01*
X109321217Y-56335478D01*
X109289629Y-56151212D01*
X109264384Y-55964854D01*
X109246627Y-55781532D01*
X109242400Y-55725691D01*
X108568311Y-55721529D01*
X107894221Y-55717367D01*
X107894221Y-55015703D01*
X108164255Y-55015703D01*
X108168843Y-55163285D01*
X108173430Y-55310867D01*
X108685095Y-55315072D01*
X108757161Y-55315597D01*
X108876146Y-55316147D01*
X108982421Y-55316245D01*
X109072146Y-55315908D01*
X109141481Y-55315156D01*
X109186587Y-55314009D01*
X109203625Y-55312485D01*
X109205029Y-55307297D01*
X109206776Y-55276618D01*
X109206918Y-55225243D01*
X109205369Y-55160697D01*
X109200248Y-55015703D01*
X108682252Y-55015703D01*
X108164255Y-55015703D01*
X107894221Y-55015703D01*
X107894221Y-54752276D01*
X107894221Y-54489196D01*
X108164255Y-54489196D01*
X108682212Y-54489196D01*
X109200168Y-54489196D01*
X109205592Y-54349591D01*
X109206460Y-54322588D01*
X109206972Y-54262574D01*
X109205334Y-54218287D01*
X109201750Y-54197793D01*
X109195688Y-54196163D01*
X109162063Y-54193587D01*
X109102543Y-54191538D01*
X109021002Y-54190078D01*
X108921309Y-54189264D01*
X108807337Y-54189157D01*
X108682957Y-54189816D01*
X108173430Y-54194032D01*
X108168843Y-54341614D01*
X108164255Y-54489196D01*
X107894221Y-54489196D01*
X107894221Y-53787186D01*
X108572299Y-53787186D01*
X109250377Y-53787186D01*
X109250627Y-53719378D01*
X109250765Y-53712730D01*
X109254043Y-53665905D01*
X109261013Y-53597460D01*
X109270786Y-53515518D01*
X109282473Y-53428203D01*
X109309084Y-53254220D01*
X109353179Y-53017569D01*
X109402022Y-52812218D01*
X109455674Y-52638007D01*
X109514194Y-52494773D01*
X109577642Y-52382355D01*
X109646078Y-52300592D01*
X109719563Y-52249322D01*
X109764494Y-52234445D01*
X109841439Y-52224844D01*
X109921384Y-52228341D01*
X109989047Y-52245173D01*
X110009544Y-52255145D01*
X110077631Y-52309371D01*
X110142343Y-52393948D01*
X110203146Y-52507756D01*
X110259503Y-52649676D01*
X110310878Y-52818590D01*
X110356738Y-53013379D01*
X110358245Y-53020708D01*
X110374951Y-53107473D01*
X110391529Y-53202550D01*
X110407179Y-53300267D01*
X110421103Y-53394951D01*
X110432502Y-53480931D01*
X110440578Y-53552534D01*
X110444532Y-53604089D01*
X110443564Y-53629923D01*
X110435681Y-53637714D01*
X110399843Y-53645016D01*
X110334374Y-53645205D01*
X110284155Y-53642705D01*
X110244520Y-53639800D01*
X110227954Y-53637292D01*
X110227397Y-53635747D01*
X110222772Y-53611907D01*
X110214812Y-53563955D01*
X110204466Y-53497763D01*
X110192684Y-53419204D01*
X110179555Y-53333282D01*
X110142006Y-53120739D01*
X110101036Y-52935709D01*
X110055893Y-52775046D01*
X110005829Y-52635603D01*
X109989778Y-52597277D01*
X109955069Y-52525555D01*
X109923191Y-52479252D01*
X109890967Y-52454388D01*
X109855221Y-52446985D01*
X109833198Y-52450876D01*
X109791814Y-52480097D01*
X109750651Y-52538638D01*
X109709174Y-52627351D01*
X109666845Y-52747091D01*
X109622254Y-52901488D01*
X109575208Y-53104354D01*
X109536041Y-53325190D01*
X109504514Y-53566209D01*
X109480393Y-53829625D01*
X109463440Y-54117650D01*
X109458828Y-54262574D01*
X109453420Y-54432498D01*
G37*
G36*
X116797442Y-54524040D02*
G01*
X116796581Y-54623871D01*
X116793634Y-54965788D01*
X116793225Y-55013182D01*
X116789008Y-55502324D01*
X116710669Y-55510301D01*
X116669182Y-55516292D01*
X116638968Y-55528094D01*
X116628135Y-55547445D01*
X116626106Y-55559833D01*
X116618299Y-55585599D01*
X116602500Y-55608636D01*
X116573782Y-55633585D01*
X116527216Y-55665086D01*
X116457873Y-55707780D01*
X116389818Y-55749988D01*
X116342912Y-55782789D01*
X116311330Y-55811671D01*
X116288754Y-55842417D01*
X116268868Y-55880808D01*
X116258729Y-55903707D01*
X116241598Y-55956082D01*
X116233143Y-56014380D01*
X116231057Y-56091466D01*
X116231524Y-56220289D01*
X116299863Y-56373839D01*
X116412594Y-56627135D01*
X116443035Y-56695751D01*
X116499347Y-56823438D01*
X116564249Y-56971319D01*
X116635594Y-57134455D01*
X116711237Y-57307906D01*
X116789033Y-57486733D01*
X116866836Y-57665997D01*
X116942502Y-57840757D01*
X117013883Y-58006074D01*
X117078836Y-58157009D01*
X117135214Y-58288621D01*
X117180873Y-58395973D01*
X117193997Y-58426604D01*
X117226760Y-58497436D01*
X117255574Y-58548002D01*
X117285076Y-58585707D01*
X117319904Y-58617955D01*
X117350570Y-58643360D01*
X117384600Y-58675544D01*
X117402747Y-58704830D01*
X117404893Y-58737264D01*
X117390919Y-58778890D01*
X117360708Y-58835754D01*
X117314142Y-58913902D01*
X117309182Y-58922113D01*
X117266987Y-58991003D01*
X117229220Y-59051101D01*
X117199840Y-59096194D01*
X117182803Y-59120069D01*
X117177389Y-59125124D01*
X117167152Y-59130427D01*
X117150533Y-59134844D01*
X117124979Y-59138457D01*
X117087937Y-59141345D01*
X117036854Y-59143588D01*
X116969179Y-59145267D01*
X116882357Y-59146461D01*
X116773837Y-59147250D01*
X116641066Y-59147714D01*
X116481491Y-59147934D01*
X116292559Y-59147990D01*
X115426118Y-59147990D01*
X115393587Y-59113072D01*
X115372444Y-59078940D01*
X115361056Y-59026294D01*
X115363457Y-59002416D01*
X115373981Y-58977889D01*
X115396869Y-58949287D01*
X115436355Y-58911384D01*
X115496671Y-58858957D01*
X115534927Y-58825386D01*
X115586439Y-58775894D01*
X115620180Y-58737304D01*
X115632287Y-58713756D01*
X115629777Y-58699733D01*
X115618083Y-58657910D01*
X115598490Y-58595770D01*
X115572816Y-58519023D01*
X115542882Y-58433378D01*
X115522880Y-58377254D01*
X115463883Y-58211192D01*
X115405902Y-58047256D01*
X115349908Y-57888241D01*
X115296870Y-57736939D01*
X115247757Y-57596144D01*
X115203540Y-57468647D01*
X115165188Y-57357244D01*
X115133671Y-57264725D01*
X115109958Y-57193885D01*
X115095019Y-57147516D01*
X115089824Y-57128411D01*
X115078020Y-57107887D01*
X115045390Y-57076822D01*
X114999074Y-57041718D01*
X114946231Y-57008548D01*
X114929551Y-57002507D01*
X114900290Y-56997274D01*
X114855884Y-56992848D01*
X114793538Y-56989094D01*
X114710460Y-56985880D01*
X114603854Y-56983071D01*
X114470927Y-56980536D01*
X114308884Y-56978140D01*
X113711423Y-56970163D01*
X113629703Y-56826570D01*
X113613542Y-56798100D01*
X113570877Y-56722538D01*
X113520152Y-56632317D01*
X113466388Y-56536376D01*
X113414607Y-56443655D01*
X113391983Y-56403110D01*
X113337126Y-56305134D01*
X113281614Y-56206382D01*
X113230826Y-56116413D01*
X113227538Y-56110625D01*
X113532243Y-56110625D01*
X113538813Y-56152538D01*
X113555417Y-56203285D01*
X113583641Y-56267504D01*
X113625070Y-56349835D01*
X113681289Y-56454914D01*
X113716688Y-56519397D01*
X113756505Y-56588828D01*
X113788063Y-56638207D01*
X113814912Y-56672469D01*
X113840602Y-56696548D01*
X113868684Y-56715378D01*
X113888708Y-56726720D01*
X113910864Y-56736907D01*
X113936301Y-56744271D01*
X113969793Y-56749272D01*
X114016109Y-56752365D01*
X114080021Y-56754008D01*
X114166301Y-56754658D01*
X114279718Y-56754774D01*
X114623530Y-56754774D01*
X114700450Y-56702921D01*
X114751341Y-56660689D01*
X114813168Y-56578596D01*
X114854576Y-56480933D01*
X114874642Y-56373839D01*
X114872443Y-56263455D01*
X114847054Y-56155921D01*
X114797552Y-56057376D01*
X114772663Y-56025140D01*
X114707914Y-55964103D01*
X114633306Y-55915208D01*
X114560506Y-55886847D01*
X114517808Y-55877244D01*
X114570582Y-55978493D01*
X114594023Y-56029941D01*
X114623805Y-56114054D01*
X114643646Y-56193273D01*
X114649553Y-56234650D01*
X114647982Y-56365592D01*
X114615104Y-56491220D01*
X114551238Y-56610096D01*
X114491520Y-56696764D01*
X114371994Y-56692664D01*
X114361930Y-56692298D01*
X114305416Y-56689414D01*
X114264129Y-56685924D01*
X114246406Y-56682502D01*
X114246897Y-56675830D01*
X114258665Y-56648152D01*
X114280623Y-56607710D01*
X114314407Y-56542927D01*
X114356429Y-56417517D01*
X114367484Y-56294340D01*
X114347773Y-56175441D01*
X114297498Y-56062865D01*
X114216860Y-55958657D01*
X114138404Y-55877261D01*
X113929098Y-55877261D01*
X113894823Y-55877433D01*
X113783784Y-55881663D01*
X113699061Y-55892890D01*
X113636513Y-55912881D01*
X113592000Y-55943405D01*
X113561380Y-55986227D01*
X113540513Y-56043117D01*
X113534121Y-56072909D01*
X113532243Y-56110625D01*
X113227538Y-56110625D01*
X113190142Y-56044786D01*
X113099051Y-55885238D01*
X112897830Y-55880773D01*
X112696608Y-55876308D01*
X112696608Y-55797010D01*
X112696608Y-55717713D01*
X112498322Y-55717713D01*
X112300035Y-55717713D01*
X112291577Y-55633951D01*
X112286665Y-55581991D01*
X112280211Y-55507598D01*
X112274363Y-55434516D01*
X112265607Y-55318844D01*
X112481107Y-55318844D01*
X112696608Y-55318844D01*
X112696608Y-55167274D01*
X112696608Y-55015703D01*
X112481219Y-55015703D01*
X112265829Y-55015703D01*
X112265829Y-54752449D01*
X112265829Y-54489196D01*
X112481219Y-54489196D01*
X112696608Y-54489196D01*
X112696608Y-54337625D01*
X112696608Y-54186055D01*
X112485208Y-54186059D01*
X112273807Y-54186062D01*
X112284274Y-54038477D01*
X112286274Y-54009730D01*
X112290898Y-53938807D01*
X112294434Y-53878350D01*
X112296240Y-53839039D01*
X112297739Y-53787186D01*
X112497174Y-53787186D01*
X112696608Y-53787186D01*
X112696608Y-53707412D01*
X112696608Y-53627638D01*
X112951885Y-53627638D01*
X113207161Y-53627638D01*
X113207161Y-54632789D01*
X113207161Y-55637939D01*
X114044787Y-55637939D01*
X114882412Y-55637939D01*
X114882412Y-55574120D01*
X114882412Y-55510301D01*
X114108606Y-55510301D01*
X113334799Y-55510301D01*
X113334799Y-54969405D01*
X115204445Y-54969405D01*
X115226345Y-55012153D01*
X115234122Y-55022328D01*
X115244242Y-55030607D01*
X115260136Y-55036848D01*
X115285538Y-55041337D01*
X115324181Y-55044365D01*
X115379800Y-55046218D01*
X115456127Y-55047185D01*
X115556897Y-55047554D01*
X115685842Y-55047613D01*
X115729317Y-55047607D01*
X115855536Y-55047333D01*
X115954238Y-55046220D01*
X116028804Y-55043684D01*
X116082618Y-55039138D01*
X116119062Y-55031998D01*
X116141519Y-55021678D01*
X116153371Y-55007593D01*
X116158002Y-54989158D01*
X116158794Y-54965788D01*
X116158773Y-54959599D01*
X116157257Y-54934067D01*
X116150915Y-54914057D01*
X116136360Y-54898896D01*
X116110206Y-54887911D01*
X116069070Y-54880430D01*
X116009565Y-54875782D01*
X115928307Y-54873294D01*
X115821910Y-54872294D01*
X115686989Y-54872110D01*
X115629206Y-54872126D01*
X115514346Y-54872380D01*
X115425891Y-54873156D01*
X115359980Y-54874728D01*
X115312750Y-54877366D01*
X115280341Y-54881343D01*
X115258891Y-54886930D01*
X115244537Y-54894398D01*
X115233417Y-54904020D01*
X115209398Y-54934207D01*
X115204445Y-54969405D01*
X113334799Y-54969405D01*
X113334799Y-54634354D01*
X115204445Y-54634354D01*
X115226345Y-54677103D01*
X115234122Y-54687278D01*
X115244242Y-54695557D01*
X115260136Y-54701797D01*
X115285538Y-54706287D01*
X115324181Y-54709315D01*
X115379800Y-54711168D01*
X115456127Y-54712135D01*
X115556897Y-54712504D01*
X115685842Y-54712563D01*
X115691607Y-54712562D01*
X115832348Y-54712085D01*
X115943584Y-54710652D01*
X116027624Y-54708167D01*
X116086776Y-54704530D01*
X116123348Y-54699646D01*
X116139649Y-54693417D01*
X116154124Y-54667701D01*
X116159080Y-54623871D01*
X116149950Y-54581049D01*
X116127934Y-54553576D01*
X116122127Y-54551596D01*
X116085237Y-54546624D01*
X116020046Y-54542587D01*
X115929208Y-54539582D01*
X115815375Y-54537707D01*
X115681200Y-54537060D01*
X115632250Y-54537071D01*
X115516491Y-54537306D01*
X115427347Y-54538058D01*
X115360926Y-54539605D01*
X115313335Y-54542224D01*
X115280681Y-54546193D01*
X115259072Y-54551788D01*
X115244615Y-54559288D01*
X115233417Y-54568970D01*
X115209398Y-54599156D01*
X115204445Y-54634354D01*
X113334799Y-54634354D01*
X113334799Y-54568970D01*
X113334799Y-54308677D01*
X115206306Y-54308677D01*
X115233417Y-54345603D01*
X115238681Y-54350583D01*
X115250821Y-54359067D01*
X115268052Y-54365557D01*
X115294207Y-54370318D01*
X115333116Y-54373618D01*
X115388610Y-54375721D01*
X115464521Y-54376893D01*
X115564679Y-54377402D01*
X115692915Y-54377512D01*
X115830505Y-54377081D01*
X115942366Y-54375678D01*
X116026898Y-54373204D01*
X116086414Y-54369561D01*
X116123226Y-54364648D01*
X116139649Y-54358367D01*
X116152957Y-54331073D01*
X116158794Y-54289761D01*
X116153381Y-54249968D01*
X116139649Y-54221155D01*
X116139382Y-54220902D01*
X116122377Y-54214723D01*
X116085016Y-54209887D01*
X116024990Y-54206294D01*
X115939991Y-54203849D01*
X115827712Y-54202453D01*
X115685842Y-54202010D01*
X115561083Y-54202063D01*
X115459351Y-54202415D01*
X115382198Y-54203355D01*
X115325890Y-54205171D01*
X115286692Y-54208151D01*
X115260873Y-54212582D01*
X115244698Y-54218754D01*
X115234433Y-54226953D01*
X115226345Y-54237469D01*
X115206614Y-54272854D01*
X115206306Y-54308677D01*
X113334799Y-54308677D01*
X113334799Y-53627638D01*
X114817812Y-53627638D01*
X116300826Y-53627638D01*
X116356021Y-53727355D01*
X116368891Y-53750600D01*
X116400440Y-53807562D01*
X116442698Y-53883846D01*
X116492726Y-53974143D01*
X116547583Y-54073149D01*
X116604329Y-54175556D01*
X116667616Y-54289761D01*
X116797442Y-54524040D01*
G37*
G36*
X111614350Y-44421815D02*
G01*
X111775123Y-44457864D01*
X111822229Y-44474064D01*
X111906365Y-44509077D01*
X111981923Y-44550952D01*
X112052017Y-44602858D01*
X112119761Y-44667962D01*
X112188269Y-44749434D01*
X112260655Y-44850443D01*
X112340032Y-44974156D01*
X112429516Y-45123743D01*
X112442208Y-45145459D01*
X112513627Y-45267442D01*
X112591736Y-45400554D01*
X112670846Y-45535120D01*
X112745272Y-45661465D01*
X112809325Y-45769912D01*
X112829861Y-45804633D01*
X112896980Y-45918301D01*
X112974446Y-46049720D01*
X113060697Y-46196229D01*
X113154175Y-46355167D01*
X113253317Y-46523870D01*
X113356565Y-46699677D01*
X113462357Y-46879926D01*
X113569133Y-47061955D01*
X113675332Y-47243102D01*
X113779395Y-47420704D01*
X113879761Y-47592099D01*
X113974870Y-47754626D01*
X114063161Y-47905622D01*
X114143073Y-48042426D01*
X114213047Y-48162375D01*
X114271521Y-48262807D01*
X114316936Y-48341060D01*
X114347732Y-48394472D01*
X114410339Y-48503205D01*
X114505064Y-48666104D01*
X114613869Y-48851693D01*
X114735264Y-49057440D01*
X114867761Y-49280814D01*
X115009867Y-49519284D01*
X115034585Y-49560706D01*
X115103520Y-49676460D01*
X115185381Y-49814176D01*
X115277864Y-49969972D01*
X115378670Y-50139962D01*
X115485495Y-50320264D01*
X115596039Y-50506992D01*
X115708000Y-50696263D01*
X115819076Y-50884193D01*
X115926964Y-51066897D01*
X115992799Y-51178431D01*
X116097007Y-51354938D01*
X116200143Y-51529587D01*
X116300314Y-51699174D01*
X116395627Y-51860496D01*
X116484189Y-52010350D01*
X116564109Y-52145534D01*
X116633492Y-52262844D01*
X116690446Y-52359077D01*
X116733078Y-52431030D01*
X116738370Y-52439954D01*
X116802108Y-52547565D01*
X116877230Y-52674585D01*
X116959367Y-52813615D01*
X117044149Y-52957256D01*
X117127206Y-53098107D01*
X117204168Y-53228769D01*
X117206615Y-53232926D01*
X117278014Y-53354157D01*
X117348284Y-53473323D01*
X117418189Y-53591702D01*
X117488496Y-53710571D01*
X117559970Y-53831208D01*
X117633377Y-53954892D01*
X117709483Y-54082899D01*
X117789053Y-54216508D01*
X117872852Y-54356997D01*
X117961647Y-54505643D01*
X118056202Y-54663724D01*
X118157285Y-54832518D01*
X118265659Y-55013303D01*
X118382091Y-55207357D01*
X118507347Y-55415957D01*
X118642191Y-55640382D01*
X118787391Y-55881909D01*
X118943710Y-56141815D01*
X119111916Y-56421380D01*
X119292773Y-56721880D01*
X119487047Y-57044594D01*
X119695504Y-57390799D01*
X119918909Y-57761773D01*
X120158028Y-58158794D01*
X120210085Y-58245195D01*
X120308878Y-58409032D01*
X120408318Y-58573783D01*
X120505964Y-58735411D01*
X120599375Y-58889878D01*
X120686107Y-59033147D01*
X120763720Y-59161183D01*
X120829770Y-59269946D01*
X120881818Y-59355402D01*
X120887824Y-59365240D01*
X120964738Y-59491419D01*
X121026842Y-59594064D01*
X121075889Y-59676600D01*
X121113629Y-59742451D01*
X121141815Y-59795043D01*
X121162197Y-59837801D01*
X121176529Y-59874150D01*
X121186560Y-59907514D01*
X121194044Y-59941320D01*
X121200731Y-59978992D01*
X121204446Y-60003514D01*
X121209377Y-60153628D01*
X121185336Y-60300052D01*
X121134844Y-60439105D01*
X121060423Y-60567102D01*
X120964593Y-60680359D01*
X120849876Y-60775193D01*
X120718794Y-60847919D01*
X120573867Y-60894855D01*
X120569718Y-60895576D01*
X120554660Y-60897118D01*
X120530908Y-60898585D01*
X120497736Y-60899981D01*
X120454419Y-60901307D01*
X120400230Y-60902566D01*
X120334445Y-60903757D01*
X120256338Y-60904885D01*
X120165184Y-60905950D01*
X120060257Y-60906955D01*
X119940831Y-60907900D01*
X119806182Y-60908788D01*
X119655583Y-60909622D01*
X119488310Y-60910401D01*
X119303637Y-60911129D01*
X119100838Y-60911808D01*
X118879187Y-60912438D01*
X118637960Y-60913022D01*
X118376432Y-60913562D01*
X118093875Y-60914059D01*
X117789566Y-60914516D01*
X117462778Y-60914934D01*
X117112786Y-60915315D01*
X116738865Y-60915660D01*
X116340289Y-60915973D01*
X115916332Y-60916253D01*
X115466270Y-60916504D01*
X114989376Y-60916727D01*
X114484926Y-60916924D01*
X113952194Y-60917097D01*
X113390454Y-60917247D01*
X112798980Y-60917376D01*
X112177048Y-60917487D01*
X111523932Y-60917581D01*
X111047742Y-60917630D01*
X110328898Y-60917656D01*
X109641279Y-60917620D01*
X108984919Y-60917522D01*
X108359846Y-60917362D01*
X107766094Y-60917141D01*
X107203692Y-60916857D01*
X106672672Y-60916512D01*
X106173065Y-60916105D01*
X105704901Y-60915637D01*
X105268213Y-60915107D01*
X104863030Y-60914515D01*
X104489384Y-60913862D01*
X104147306Y-60913148D01*
X103836828Y-60912372D01*
X103557979Y-60911535D01*
X103310791Y-60910637D01*
X103095296Y-60909677D01*
X102911524Y-60908656D01*
X102759506Y-60907574D01*
X102639274Y-60906431D01*
X102550857Y-60905227D01*
X102494289Y-60903962D01*
X102469598Y-60902636D01*
X102411246Y-60889642D01*
X102323819Y-60860855D01*
X102236119Y-60823129D01*
X102138630Y-60766290D01*
X102022751Y-60669009D01*
X101928144Y-60552577D01*
X101856410Y-60420946D01*
X101809153Y-60278070D01*
X101787973Y-60127903D01*
X101794474Y-59974398D01*
X101830256Y-59821509D01*
X101830274Y-59821454D01*
X101837173Y-59804758D01*
X101849866Y-59778824D01*
X101868890Y-59742749D01*
X101894782Y-59695631D01*
X101928078Y-59636566D01*
X101969315Y-59564652D01*
X102019029Y-59478986D01*
X102077759Y-59378664D01*
X102146039Y-59262785D01*
X102224407Y-59130445D01*
X102313400Y-58980741D01*
X102413554Y-58812770D01*
X102525406Y-58625630D01*
X102649493Y-58418418D01*
X102786351Y-58190231D01*
X102936517Y-57940166D01*
X103100529Y-57667319D01*
X103278922Y-57370789D01*
X103472233Y-57049673D01*
X103680999Y-56703067D01*
X103905757Y-56330068D01*
X104262682Y-55737837D01*
X104478985Y-55677230D01*
X104497945Y-55671975D01*
X104581797Y-55650029D01*
X104658479Y-55631887D01*
X104720185Y-55619311D01*
X104759108Y-55614060D01*
X104776716Y-55612474D01*
X104831209Y-55603328D01*
X104900388Y-55588162D01*
X104973515Y-55569223D01*
X105015046Y-55557899D01*
X105072729Y-55543465D01*
X105113665Y-55534900D01*
X105130920Y-55533767D01*
X105131232Y-55535402D01*
X105125476Y-55551392D01*
X105109159Y-55584407D01*
X105081852Y-55635179D01*
X105043123Y-55704439D01*
X104992542Y-55792917D01*
X104929679Y-55901344D01*
X104854104Y-56030452D01*
X104765385Y-56180972D01*
X104663092Y-56353634D01*
X104546796Y-56549170D01*
X104416065Y-56768311D01*
X104270468Y-57011787D01*
X104109577Y-57280330D01*
X103932959Y-57574671D01*
X103740185Y-57895540D01*
X103703931Y-57955852D01*
X103538279Y-58231426D01*
X103388139Y-58481213D01*
X103252748Y-58706512D01*
X103131345Y-58908622D01*
X103023168Y-59088841D01*
X102927456Y-59248468D01*
X102843446Y-59388802D01*
X102770376Y-59511142D01*
X102707486Y-59616786D01*
X102654013Y-59707034D01*
X102609196Y-59783183D01*
X102572272Y-59846533D01*
X102542480Y-59898382D01*
X102519058Y-59940030D01*
X102501245Y-59972775D01*
X102488278Y-59997915D01*
X102479396Y-60016750D01*
X102473838Y-60030579D01*
X102470840Y-60040699D01*
X102469642Y-60048410D01*
X102469482Y-60055011D01*
X102469598Y-60061800D01*
X102471401Y-60084198D01*
X102486582Y-60136601D01*
X102512189Y-60181633D01*
X102542110Y-60207049D01*
X102546800Y-60207343D01*
X102579673Y-60207930D01*
X102643099Y-60208507D01*
X102736173Y-60209073D01*
X102857989Y-60209628D01*
X103007641Y-60210171D01*
X103184224Y-60210701D01*
X103386832Y-60211216D01*
X103614558Y-60211716D01*
X103866498Y-60212199D01*
X104141745Y-60212665D01*
X104439394Y-60213113D01*
X104758539Y-60213541D01*
X105098274Y-60213949D01*
X105457693Y-60214335D01*
X105835891Y-60214700D01*
X106231962Y-60215040D01*
X106644999Y-60215357D01*
X107074097Y-60215648D01*
X107518351Y-60215912D01*
X107976855Y-60216150D01*
X108448702Y-60216358D01*
X108932988Y-60216538D01*
X109428805Y-60216687D01*
X109935249Y-60216805D01*
X110451414Y-60216890D01*
X110976394Y-60216942D01*
X111509283Y-60216960D01*
X112088526Y-60216959D01*
X112698688Y-60216956D01*
X113278429Y-60216947D01*
X113828529Y-60216930D01*
X114349770Y-60216902D01*
X114842932Y-60216859D01*
X115308797Y-60216801D01*
X115748145Y-60216722D01*
X116161758Y-60216622D01*
X116550416Y-60216496D01*
X116914901Y-60216343D01*
X117255993Y-60216159D01*
X117574474Y-60215942D01*
X117871124Y-60215689D01*
X118146725Y-60215396D01*
X118402057Y-60215063D01*
X118637902Y-60214684D01*
X118855040Y-60214259D01*
X119054253Y-60213783D01*
X119236321Y-60213255D01*
X119402026Y-60212671D01*
X119552148Y-60212029D01*
X119687469Y-60211325D01*
X119808769Y-60210558D01*
X119916830Y-60209724D01*
X120012433Y-60208821D01*
X120096358Y-60207846D01*
X120169387Y-60206795D01*
X120232300Y-60205667D01*
X120285878Y-60204458D01*
X120330904Y-60203166D01*
X120368157Y-60201787D01*
X120398418Y-60200320D01*
X120422469Y-60198762D01*
X120441090Y-60197108D01*
X120455064Y-60195358D01*
X120465169Y-60193507D01*
X120472189Y-60191554D01*
X120476902Y-60189495D01*
X120480092Y-60187328D01*
X120482538Y-60185050D01*
X120500136Y-60160548D01*
X120514064Y-60104480D01*
X120506184Y-60040270D01*
X120476759Y-59977353D01*
X120471895Y-59969926D01*
X120448360Y-59932335D01*
X120409071Y-59868356D01*
X120354462Y-59778712D01*
X120284969Y-59664124D01*
X120201026Y-59525314D01*
X120103069Y-59363005D01*
X119991531Y-59177919D01*
X119866850Y-58970778D01*
X119729458Y-58742304D01*
X119579792Y-58493219D01*
X119418286Y-58224246D01*
X119245376Y-57936105D01*
X119061496Y-57629521D01*
X118867081Y-57305213D01*
X118831523Y-57245886D01*
X118728658Y-57074271D01*
X118612061Y-56879762D01*
X118483667Y-56665586D01*
X118345411Y-56434970D01*
X118199228Y-56191142D01*
X118047054Y-55937328D01*
X117890822Y-55676757D01*
X117732468Y-55412655D01*
X117573928Y-55148250D01*
X117417135Y-54886770D01*
X117264025Y-54631440D01*
X117116533Y-54385490D01*
X117103872Y-54364378D01*
X116968484Y-54138586D01*
X116835406Y-53916601D01*
X116705814Y-53700386D01*
X116580884Y-53491904D01*
X116461792Y-53293117D01*
X116349712Y-53105990D01*
X116245821Y-52932484D01*
X116151293Y-52774563D01*
X116067304Y-52634190D01*
X115995029Y-52513328D01*
X115935644Y-52413940D01*
X115890324Y-52337988D01*
X115860246Y-52287437D01*
X115815939Y-52212771D01*
X115754465Y-52109210D01*
X115682792Y-51988495D01*
X115604120Y-51856014D01*
X115521646Y-51717152D01*
X115438570Y-51577297D01*
X115358090Y-51441834D01*
X115302857Y-51348836D01*
X115210979Y-51193994D01*
X115114183Y-51030717D01*
X115016715Y-50866176D01*
X114922824Y-50707543D01*
X114836756Y-50561988D01*
X114762760Y-50436683D01*
X114743761Y-50404486D01*
X114669707Y-50279054D01*
X114594138Y-50151151D01*
X114520598Y-50026769D01*
X114452630Y-49911901D01*
X114393778Y-49812538D01*
X114347585Y-49734673D01*
X114343194Y-49727279D01*
X114287190Y-49632817D01*
X114220840Y-49520671D01*
X114149471Y-49399856D01*
X114078409Y-49279387D01*
X114012979Y-49168279D01*
X113987236Y-49124541D01*
X113931752Y-49030437D01*
X113880434Y-48943609D01*
X113836279Y-48869118D01*
X113802285Y-48812024D01*
X113781449Y-48777387D01*
X113767973Y-48755056D01*
X113737604Y-48704209D01*
X113695888Y-48634034D01*
X113645619Y-48549235D01*
X113589586Y-48454517D01*
X113530582Y-48354585D01*
X113490101Y-48285981D01*
X113414600Y-48158124D01*
X113331321Y-48017187D01*
X113245513Y-47872052D01*
X113162428Y-47731600D01*
X113087313Y-47604711D01*
X113036468Y-47518828D01*
X112959191Y-47388207D01*
X112879471Y-47253368D01*
X112801987Y-47122225D01*
X112731417Y-47002697D01*
X112672442Y-46902701D01*
X112648863Y-46862695D01*
X112589383Y-46761800D01*
X112519058Y-46642535D01*
X112441522Y-46511058D01*
X112360406Y-46373530D01*
X112279344Y-46236112D01*
X112201969Y-46104962D01*
X112185960Y-46077827D01*
X112077407Y-45893728D01*
X111983787Y-45734900D01*
X111903868Y-45599457D01*
X111836420Y-45485514D01*
X111780212Y-45391184D01*
X111734013Y-45314582D01*
X111696592Y-45253822D01*
X111666719Y-45207017D01*
X111643162Y-45172283D01*
X111624691Y-45147733D01*
X111610075Y-45131481D01*
X111598083Y-45121642D01*
X111587485Y-45116329D01*
X111577048Y-45113657D01*
X111565543Y-45111740D01*
X111551739Y-45108692D01*
X111546069Y-45107194D01*
X111492612Y-45102428D01*
X111434914Y-45118135D01*
X111425473Y-45121420D01*
X111416159Y-45124058D01*
X111407646Y-45127029D01*
X111398864Y-45132026D01*
X111388746Y-45140742D01*
X111376222Y-45154871D01*
X111360223Y-45176108D01*
X111339680Y-45206145D01*
X111313526Y-45246677D01*
X111280690Y-45299397D01*
X111240104Y-45365999D01*
X111190699Y-45448177D01*
X111131407Y-45547625D01*
X111061158Y-45666035D01*
X110978884Y-45805103D01*
X110883515Y-45966521D01*
X110773984Y-46151983D01*
X110649220Y-46363184D01*
X110547588Y-46535116D01*
X110434380Y-46726502D01*
X110318103Y-46922957D01*
X110201513Y-47119830D01*
X110087365Y-47312473D01*
X109978414Y-47496236D01*
X109877416Y-47666467D01*
X109787126Y-47818518D01*
X109710299Y-47947738D01*
X109699678Y-47965588D01*
X109606292Y-48122560D01*
X109505401Y-48292194D01*
X109400977Y-48467809D01*
X109296990Y-48642725D01*
X109197413Y-48810263D01*
X109106215Y-48963742D01*
X109027369Y-49096482D01*
X108972891Y-49188175D01*
X108880869Y-49342908D01*
X108780100Y-49512201D01*
X108675159Y-49688376D01*
X108570620Y-49863753D01*
X108471056Y-50030657D01*
X108381043Y-50181407D01*
X108373071Y-50194750D01*
X108285587Y-50341275D01*
X108186445Y-50507461D01*
X108079858Y-50686244D01*
X107970035Y-50870555D01*
X107861188Y-51053328D01*
X107757527Y-51227496D01*
X107663264Y-51385992D01*
X107638524Y-51427597D01*
X107546722Y-51581775D01*
X107448282Y-51746820D01*
X107344414Y-51920719D01*
X107236331Y-52101458D01*
X107125243Y-52287023D01*
X107012361Y-52475402D01*
X106898897Y-52664580D01*
X106786061Y-52852546D01*
X106675066Y-53037284D01*
X106567122Y-53216781D01*
X106463440Y-53389025D01*
X106365232Y-53552002D01*
X106273709Y-53703698D01*
X106190081Y-53842101D01*
X106115561Y-53965195D01*
X106051360Y-54070969D01*
X105998688Y-54157409D01*
X105958757Y-54222501D01*
X105932778Y-54264232D01*
X105921962Y-54280589D01*
X105921895Y-54280637D01*
X105905188Y-54277332D01*
X105863763Y-54265958D01*
X105803082Y-54248215D01*
X105728606Y-54225802D01*
X105645797Y-54200417D01*
X105560117Y-54173760D01*
X105477028Y-54147528D01*
X105401990Y-54123422D01*
X105340467Y-54103140D01*
X105297918Y-54088381D01*
X105279807Y-54080843D01*
X105279283Y-54078890D01*
X105286827Y-54058042D01*
X105305665Y-54023358D01*
X105312521Y-54011899D01*
X105336515Y-53971652D01*
X105374784Y-53907377D01*
X105426046Y-53821231D01*
X105489016Y-53715373D01*
X105562413Y-53591960D01*
X105644953Y-53453150D01*
X105735354Y-53301100D01*
X105832333Y-53137968D01*
X105934606Y-52965911D01*
X106040892Y-52787088D01*
X106149906Y-52603656D01*
X106260367Y-52417772D01*
X106370991Y-52231595D01*
X106401028Y-52181046D01*
X106478836Y-52050147D01*
X106558387Y-51916370D01*
X106636074Y-51785779D01*
X106708289Y-51664435D01*
X106771426Y-51558402D01*
X106821878Y-51473743D01*
X106838997Y-51445007D01*
X106884243Y-51368916D01*
X106943549Y-51269047D01*
X107015467Y-51147847D01*
X107098548Y-51007762D01*
X107191345Y-50851238D01*
X107292407Y-50680721D01*
X107400288Y-50498657D01*
X107513538Y-50307493D01*
X107630709Y-50109676D01*
X107750352Y-49907650D01*
X107871018Y-49703863D01*
X107991260Y-49500761D01*
X108109629Y-49300790D01*
X108224675Y-49106396D01*
X108334952Y-48920026D01*
X108439009Y-48744125D01*
X108535399Y-48581140D01*
X108622672Y-48433518D01*
X108699381Y-48303704D01*
X108764077Y-48194144D01*
X108815312Y-48107286D01*
X108905944Y-47953562D01*
X109013138Y-47771860D01*
X109128811Y-47575882D01*
X109250718Y-47369426D01*
X109376618Y-47156286D01*
X109504264Y-46940261D01*
X109631412Y-46725147D01*
X109755820Y-46514741D01*
X109875241Y-46312838D01*
X109987434Y-46123237D01*
X110090152Y-45949733D01*
X110181152Y-45796124D01*
X110258190Y-45666206D01*
X110289663Y-45613129D01*
X110363919Y-45487656D01*
X110438015Y-45362139D01*
X110508721Y-45242072D01*
X110572803Y-45132947D01*
X110627030Y-45040257D01*
X110668169Y-44969494D01*
X110701419Y-44912776D01*
X110756112Y-44824535D01*
X110803824Y-44755976D01*
X110848882Y-44701093D01*
X110895615Y-44653883D01*
X110995824Y-44573529D01*
X111138644Y-44493025D01*
X111292048Y-44440301D01*
X111451970Y-44416262D01*
X111614350Y-44421815D01*
G37*
%TD*%
M02*
